<svg width="1920" height="1080" viewBox="0 0 1920 1080" fill="none" xmlns="http://www.w3.org/2000/svg">
<path d="M504.583 502.147L590.707 462.183V353L504.583 502.147Z" fill="#FF596E"/>
<path d="M590.706 462.182V549.203L676.83 502.146L590.706 462.182Z" fill="#FF596E"/>
<path d="M590.707 462.182V549.203L504.597 502.146L590.707 462.182Z" fill="#800010"/>
<path d="M676.83 502.147L590.706 462.183V353L676.83 502.147Z" fill="#800010"/>
<path d="M590.705 582.793V675.527L502.925 534.825L590.705 582.793Z" fill="#FF596E"/>
<path d="M590.706 582.793V675.527L678.5 534.825L590.706 582.793Z" fill="#800010"/>
<path d="M692.976 556.062L712.875 611.882L756.427 539.116L692.976 556.062Z" fill="#800010"/>
<path d="M712.875 611.882L756.427 598.979V539.116L712.875 611.882Z" fill="#FF596E"/>
<path d="M756.427 598.98L692.976 704.962L644.788 725.607L712.875 611.883L756.427 598.98Z" fill="#800010"/>
<path d="M425 598.98L488.451 704.962L536.64 725.607L468.551 611.883L425 598.98Z" fill="#FF596E"/>
<path d="M590.705 725.605L488.45 556.062L468.55 611.882L536.638 725.605H590.705Z" fill="#800010"/>
<path d="M488.451 556.062L468.551 611.882L425 539.116L488.451 556.062Z" fill="#FF596E"/>
<path d="M468.551 611.882L425 598.979V539.116L468.551 611.882Z" fill="#800010"/>
<path d="M590.706 725.605L692.976 556.062L712.875 611.882L644.788 725.605H590.706Z" fill="#FF596E"/>
<path d="M853.023 527.017V624.94H882.486V563.835L909.478 624.94H941.7L898.438 527.017H853.023Z" fill="black"/>
<path d="M983.558 527.017L940.297 624.94H972.505L999.498 563.835V624.94H1028.96V527.017H983.558Z" fill="black"/>
<path d="M877.933 658.601C884.762 658.601 890.362 660.776 894.755 665.105C899.148 669.434 901.334 674.972 901.334 681.674C901.334 688.376 899.148 693.914 894.755 698.243C890.362 702.572 884.762 704.748 877.933 704.748H863.98V724.525H852.758V658.601H877.933ZM877.251 695.057C880.961 695.057 884.034 693.782 886.47 691.233C888.905 688.684 890.134 685.498 890.134 681.674C890.134 677.85 888.905 674.664 886.47 672.115C884.034 669.566 880.961 668.291 877.251 668.291H863.98V695.035H877.251V695.057Z" fill="black"/>
<path d="M956.849 681.666C956.849 686.741 955.529 691.2 952.89 695.045C950.251 698.867 946.724 701.613 942.31 703.238L955.78 724.525H942.993L930.502 704.754H919.49V724.525H908.273V658.601H933.437C940.263 658.601 945.86 660.775 950.251 665.103C954.642 669.43 956.826 674.966 956.826 681.666H956.849ZM919.513 668.288V695.023H932.777C936.486 695.023 939.557 693.748 941.992 691.2C944.426 688.652 945.655 685.467 945.655 681.644C945.655 677.822 944.426 674.637 941.992 672.089C939.557 669.54 936.486 668.266 932.777 668.266H919.513V668.288Z" fill="black"/>
<path d="M1025.48 716.246C1019.19 722.93 1010.76 726.261 1000.22 726.261C989.684 726.261 981.25 722.93 974.964 716.246C968.678 709.563 965.524 701.335 965.524 691.564C965.524 681.792 968.678 673.564 974.964 666.881C981.25 660.197 989.684 656.866 1000.22 656.866C1010.76 656.866 1019.19 660.219 1025.48 666.881C1031.76 673.564 1034.92 681.792 1034.92 691.564C1034.92 701.335 1031.76 709.563 1025.48 716.246ZM983.197 709.386C987.313 714.151 992.995 716.533 1000.22 716.533C1007.45 716.533 1013.11 714.151 1017.24 709.386C1021.36 704.622 1023.4 698.688 1023.33 691.564C1023.4 684.439 1021.36 678.505 1017.24 673.741C1013.13 668.976 1007.45 666.594 1000.22 666.594C992.995 666.594 987.313 668.976 983.197 673.741C979.08 678.505 977.045 684.439 977.112 691.564C977.045 698.688 979.08 704.622 983.197 709.386Z" fill="black"/>
<path d="M1052.74 724.525V668.775H1033.18V658.601H1083.49V668.775H1063.85V724.525H1052.76H1052.74Z" fill="black"/>
<path d="M1144.94 716.246C1138.5 722.93 1129.86 726.261 1119.06 726.261C1108.26 726.261 1099.61 722.93 1093.17 716.246C1086.73 709.563 1083.49 701.335 1083.49 691.564C1083.49 681.792 1086.73 673.564 1093.17 666.881C1099.61 660.197 1108.26 656.866 1119.06 656.866C1129.86 656.866 1138.5 660.219 1144.94 666.881C1151.39 673.564 1154.62 681.792 1154.62 691.564C1154.62 701.335 1151.39 709.563 1144.94 716.246ZM1101.61 709.386C1105.83 714.151 1111.65 716.533 1119.06 716.533C1126.46 716.533 1132.26 714.151 1136.51 709.386C1140.73 704.622 1142.81 698.688 1142.74 691.564C1142.81 684.439 1140.73 678.505 1136.51 673.741C1132.29 668.976 1126.46 666.594 1119.06 666.594C1111.65 666.594 1105.83 668.976 1101.61 673.741C1097.39 678.505 1095.3 684.439 1095.37 691.564C1095.3 698.688 1097.39 704.622 1101.61 709.386Z" fill="black"/>
<path d="M1196.59 726.261C1185.81 726.261 1177.28 723.04 1170.99 716.621C1164.71 710.18 1161.56 701.842 1161.56 691.564C1161.56 681.285 1164.71 672.947 1170.99 666.506C1177.28 660.065 1185.81 656.866 1196.59 656.866C1205.64 656.866 1213.08 659.116 1218.91 663.616C1224.75 668.116 1228.19 673.961 1229.22 681.152H1217.09C1215.99 676.608 1213.7 673.057 1210.22 670.476C1206.72 667.895 1202.23 666.594 1196.71 666.594C1189.32 666.594 1183.57 668.844 1179.44 673.344C1175.3 677.844 1173.24 683.909 1173.24 691.541C1173.24 699.173 1175.3 705.239 1179.44 709.739C1183.57 714.239 1189.34 716.489 1196.71 716.489C1202.23 716.489 1206.72 715.188 1210.22 712.607C1213.73 710.026 1216.02 706.453 1217.09 701.931H1229.22C1228.19 709.122 1224.75 714.967 1218.91 719.467C1213.08 723.967 1205.62 726.216 1196.59 726.216V726.261Z" fill="black"/>
<path d="M1296.11 716.246C1289.83 722.93 1281.39 726.261 1270.86 726.261C1260.32 726.261 1251.89 722.93 1245.6 716.246C1239.31 709.563 1236.16 701.335 1236.16 691.564C1236.16 681.792 1239.31 673.564 1245.6 666.881C1251.89 660.197 1260.32 656.866 1270.86 656.866C1281.39 656.866 1289.83 660.219 1296.11 666.881C1302.4 673.564 1305.55 681.792 1305.55 691.564C1305.55 701.335 1302.4 709.563 1296.11 716.246ZM1253.83 709.386C1257.95 714.151 1263.63 716.533 1270.86 716.533C1278.08 716.533 1283.74 714.151 1287.88 709.386C1292 704.622 1294.03 698.688 1293.97 691.564C1294.03 684.439 1292 678.505 1287.88 673.741C1283.76 668.976 1278.08 666.594 1270.86 666.594C1263.63 666.594 1257.95 668.976 1253.83 673.741C1249.72 678.505 1247.68 684.439 1247.75 691.564C1247.68 698.688 1249.72 704.622 1253.83 709.386Z" fill="black"/>
<path d="M1315.96 724.525V658.601H1327.05V714.351H1354.13V724.525H1315.96Z" fill="black"/>
<g clip-path="url(#clip0_1_84)">
<path d="M1049 625V437H1163.46V471.905H1092.31V514.644H1163.46V548.735H1092.31V590.095H1163.46V625H1049Z" fill="black"/>
<path d="M1230.37 625V475.665H1179.01V437H1325.05V475.665H1273.44V625H1230.37Z" fill="black"/>
<path d="M1344.59 625V437H1387.9V513.015H1452.62V437H1495.94V625H1452.62V550.301H1387.9V625H1344.59Z" fill="black"/>
</g>
<defs>
<clipPath id="clip0_1_84">
<rect width="447" height="188" fill="white" transform="translate(1049 437)"/>
</clipPath>
</defs>
</svg>
