<svg width="400" height="295" viewBox="0 0 400 295" fill="none" xmlns="http://www.w3.org/2000/svg">
<path fill-rule="evenodd" clip-rule="evenodd" d="M207.875 27.2505L211.955 0.945508C207.915 0.318487 203.784 0 199.664 0H199.604V53.675H199.664C201.923 53.675 204.162 53.9636 206.322 54.5409L213.259 28.3851C211.488 27.9174 209.686 27.5392 207.865 27.2605L207.875 27.2505Z" fill="black"/>
<path fill-rule="evenodd" clip-rule="evenodd" d="M186.725 57.1389L173.368 34.1282C171.796 35.0439 170.263 36.0392 168.79 37.1041L152.836 15.2479C156.19 12.7996 159.763 10.6 163.455 8.70901L175.598 32.4064C178.066 31.1424 180.624 30.0775 183.251 29.2216L174.981 3.9118C178.922 2.6279 183.012 1.64258 187.113 0.985703L191.363 27.7087C189.561 27.9974 187.78 28.3855 186.018 28.8533L192.925 54.5512C190.756 55.1384 188.666 56.0043 186.715 57.1389H186.725Z" fill="black"/>
<path fill-rule="evenodd" clip-rule="evenodd" d="M152.886 55.7552L128.77 43.4835C126.879 47.1859 125.277 51.0774 124.003 55.0286L149.75 63.3491C150.596 60.7515 151.651 58.1936 152.886 55.7552Z" fill="black"/>
<path fill-rule="evenodd" clip-rule="evenodd" d="M245.038 53.1877L222.037 66.5542C223.172 68.505 224.038 70.595 224.625 72.7647L250.313 65.8376C250.791 67.5993 251.179 69.3808 251.457 71.1822L278.181 66.9225C277.524 62.812 276.538 58.7314 275.254 54.7802L249.945 63.0509C249.089 60.4234 248.024 57.8655 246.76 55.4072L270.447 43.2549C268.556 39.5724 266.357 35.9994 263.908 32.6453L242.062 48.6095C243.137 50.0825 244.122 51.6152 245.048 53.1877H245.038Z" fill="black"/>
<path fill-rule="evenodd" clip-rule="evenodd" d="M235.652 8.60002C231.94 6.71896 228.058 5.11657 224.107 3.83267L215.797 29.5803C218.394 30.4164 220.952 31.4714 223.391 32.7155L235.652 8.59007V8.60002Z" fill="black"/>
<path fill-rule="evenodd" clip-rule="evenodd" d="M226.048 33.6505L212.542 57.0991C214.503 58.2238 216.304 59.6072 217.907 61.2096L255.797 23.1902C252.861 20.2641 249.666 17.547 246.312 15.1086L230.686 36.6562C229.193 35.5813 227.65 34.5761 226.058 33.6505H226.048Z" fill="black"/>
<path fill-rule="evenodd" clip-rule="evenodd" d="M177.27 66.6233L153.831 53.0976C154.747 51.5051 155.762 49.9625 156.837 48.4696L135.299 32.8338C137.737 29.4798 140.455 26.285 143.391 23.3489L181.39 61.2489C179.788 62.8512 178.404 64.6626 177.28 66.6134L177.27 66.6233Z" fill="black"/>
<path fill-rule="evenodd" clip-rule="evenodd" d="M148.546 65.8873L174.692 72.8443C174.115 75.004 173.826 77.2434 173.826 79.5126H120.161C120.161 75.3822 120.48 71.2319 121.117 67.1812L147.422 71.2817C147.71 69.4604 148.078 67.6689 148.556 65.8873H148.546Z" fill="black"/>
<path fill-rule="evenodd" clip-rule="evenodd" d="M246.451 103.26L270.567 115.531C272.448 111.829 274.06 107.938 275.334 103.986L249.586 95.6658C248.74 98.2635 247.685 100.821 246.451 103.26Z" fill="black"/>
<path fill-rule="evenodd" clip-rule="evenodd" d="M212.612 101.876L225.969 124.887C227.541 123.971 229.074 122.976 230.547 121.911L246.501 143.767C243.147 146.215 239.574 148.415 235.881 150.306L223.739 126.609C221.271 127.873 218.723 128.938 216.085 129.793L224.346 155.103C220.405 156.387 216.314 157.372 212.214 158.029L207.964 131.306C209.766 131.018 211.547 130.629 213.309 130.162L206.401 104.464C208.571 103.877 210.661 103.011 212.612 101.876Z" fill="black"/>
<path fill-rule="evenodd" clip-rule="evenodd" d="M154.299 105.827L177.3 92.4608C176.165 90.51 175.299 88.42 174.712 86.2503L149.024 93.1774C148.546 91.4157 148.158 89.6342 147.879 87.8328L121.156 92.0925C121.813 96.203 122.799 100.284 124.082 104.235L149.392 95.9641C150.248 98.5916 151.313 101.149 152.577 103.608L128.89 115.76C130.781 119.453 132.98 123.016 135.429 126.37L157.275 110.406C156.2 108.933 155.215 107.4 154.289 105.827H154.299Z" fill="black"/>
<path fill-rule="evenodd" clip-rule="evenodd" d="M163.684 150.425C167.397 152.306 171.278 153.909 175.229 155.193L183.54 129.445C180.942 128.609 178.384 127.554 175.946 126.31L163.684 150.425Z" fill="black"/>
<path fill-rule="evenodd" clip-rule="evenodd" d="M173.289 125.364L186.794 101.926C184.834 100.801 183.032 99.4175 181.43 97.8151L143.54 135.834C146.476 138.761 149.671 141.478 153.025 143.916L168.651 122.368C170.143 123.443 171.686 124.449 173.279 125.374L173.289 125.364Z" fill="black"/>
<path fill-rule="evenodd" clip-rule="evenodd" d="M222.067 92.3919L245.506 105.918C244.59 107.51 243.575 109.053 242.5 110.546L264.038 126.181C261.599 129.535 258.882 132.73 255.946 135.666L217.947 97.7664C219.549 96.164 220.933 94.3526 222.057 92.4019L222.067 92.3919Z" fill="black"/>
<path fill-rule="evenodd" clip-rule="evenodd" d="M193.015 104.484L186.078 130.64C187.849 131.107 189.651 131.486 191.472 131.764L187.382 158.069C191.422 158.696 195.553 159.015 199.673 159.015H199.733V105.34H199.673C197.414 105.34 195.175 105.051 193.015 104.474V104.484Z" fill="black"/>
<path fill-rule="evenodd" clip-rule="evenodd" d="M224.645 86.1713C225.222 84.0115 225.51 81.7721 225.51 79.5029H279.185C279.185 83.6333 278.867 87.7836 278.23 91.8343L251.925 87.7338C251.636 89.5552 251.268 91.3467 250.79 93.1282L224.645 86.1713Z" fill="black"/>
<path fill-rule="evenodd" clip-rule="evenodd" d="M0 198.266H21.0799L43.2446 248.428H31.361L13.9935 209.134H10.8684V248.428H0V198.266Z" fill="black"/>
<path d="M221.657 198.266H210.788V248.428H221.657V198.266Z" fill="black"/>
<path fill-rule="evenodd" clip-rule="evenodd" d="M210.789 248.428H198.905L181.548 209.134H174.402V248.428H163.534V198.266H188.634L210.789 248.428Z" fill="black"/>
<path fill-rule="evenodd" clip-rule="evenodd" d="M65.3994 198.266L43.2447 248.428H55.1183L72.4858 209.134H75.6109V248.428H86.4793V198.266H65.3994Z" fill="black"/>
<path d="M135.088 198.266H115.203L93.0382 248.428H104.922L112.147 232.085H138.144L145.36 248.428H157.243L135.078 198.266H135.088ZM116.945 221.217L122.279 209.144H128.002L133.337 221.217H116.945Z" fill="black"/>
<path fill-rule="evenodd" clip-rule="evenodd" d="M227.699 209.134V198.266H289.296V209.134H263.926V248.428H253.058V209.134H227.699Z" fill="black"/>
<path fill-rule="evenodd" clip-rule="evenodd" d="M306.196 198.266H295.327V248.428H342.632V237.559H306.196V198.266Z" fill="black"/>
<path fill-rule="evenodd" clip-rule="evenodd" d="M400 198.266V209.134H359.542V217.186H394.616V228.054H359.542V237.559H400V248.428H348.674V198.266H400Z" fill="black"/>
<path d="M88.4042 293.211V261.133H96.0081L107.145 281.895V261.133H114.251V293.211H106.648L95.5105 272.449V293.211H88.4042Z" fill="black"/>
<path d="M120.482 293.211V261.133H140.099V267.095H127.907V274.38H140.099V280.203H127.907V287.259H140.099V293.221H120.482V293.211Z" fill="black"/>
<path d="M151.554 293.211V267.732H142.756V261.133H167.777V267.732H158.929V293.211H151.554Z" fill="black"/>
<path d="M180.994 293.211L169.678 261.133H177.471L184.159 282.442L190.529 261.133H196.302L202.671 282.442L209.36 261.133H217.153L205.836 293.211H199.785L193.415 273.047L187.046 293.211H180.994Z" fill="black"/>
<path d="M245.279 289.2C242.164 292.485 238.004 294.127 232.808 294.127C227.613 294.127 223.463 292.485 220.347 289.2C217.232 285.916 215.67 281.905 215.67 277.167C215.67 272.43 217.232 268.419 220.347 265.135C223.463 261.85 227.623 260.208 232.808 260.208C237.994 260.208 242.154 261.85 245.279 265.135C248.394 268.419 249.957 272.43 249.957 277.167C249.957 281.905 248.394 285.916 245.279 289.2ZM232.808 287.478C235.744 287.478 238.043 286.493 239.706 284.522C241.368 282.552 242.204 280.103 242.204 277.167C242.204 274.231 241.368 271.783 239.706 269.812C238.043 267.842 235.744 266.856 232.808 266.856C229.872 266.856 227.533 267.842 225.861 269.812C224.199 271.783 223.383 274.231 223.413 277.167C223.383 280.103 224.199 282.552 225.861 284.522C227.523 286.493 229.842 287.478 232.808 287.478Z" fill="black"/>
<path d="M279.417 272.718C279.417 275.037 278.879 277.107 277.814 278.929C276.74 280.75 275.276 282.114 273.415 283.029L279.049 293.201H270.619L265.573 284.313H261.681V293.201H254.256V261.123H267.911C271.246 261.123 273.993 262.218 276.162 264.398C278.332 266.587 279.417 269.354 279.417 272.718ZM261.681 267.175V278.262H266.767C268.26 278.262 269.494 277.744 270.459 276.699C271.425 275.664 271.902 274.331 271.902 272.708C271.902 271.086 271.425 269.762 270.459 268.717C269.494 267.682 268.27 267.155 266.767 267.155H261.681V267.175Z" fill="black"/>
<path d="M310.857 261.123L298.257 277.028L310.857 293.211H302.009L291.469 279.048V293.211H284.045V261.133H291.469V275.386L302.059 261.133H310.857V261.123Z" fill="black"/>
</svg>
