<?xml version="1.0" encoding="UTF-8"?>
<svg id="Capa_1" xmlns="http://www.w3.org/2000/svg" viewBox="0 0 1920 800">
  <defs>
    <style>
      .cls-1 {
        fill: #fff;
      }
    </style>
  </defs>
  <g>
    <g>
      <polygon class="cls-1" points="448.57 206.61 473.55 206.61 473.55 281.47 386.2 281.47 386.2 206.61 411.18 206.61 411.18 194.12 336.32 194.12 336.32 206.61 361.22 206.61 361.22 381.3 336.32 381.3 336.32 393.72 411.18 393.72 411.18 381.3 386.2 381.3 386.2 293.96 473.55 293.96 473.55 381.3 448.57 381.3 448.57 393.72 523.43 393.72 523.43 381.3 498.45 381.3 498.45 206.61 523.43 206.61 523.43 194.12 448.57 194.12 448.57 206.61"/>
      <polygon class="cls-1" points="616.97 268.98 635.63 268.98 635.63 300.2 648.12 300.2 648.12 268.98 666.86 268.98 666.86 256.49 616.97 256.49 616.97 268.98"/>
      <rect class="cls-1" x="623.22" y="300.2" width="12.41" height="31.15"/>
      <polygon class="cls-1" points="535.95 468.58 560.77 468.58 560.77 456.09 573.26 456.09 573.26 443.6 535.95 443.6 535.95 468.58"/>
      <rect class="cls-1" x="573.26" y="418.62" width="12.49" height="24.98"/>
      <polygon class="cls-1" points="598.24 331.35 585.75 331.35 585.75 300.2 573.26 300.2 573.26 268.98 592 268.98 592 256.49 529.7 256.49 529.7 268.98 548.36 268.98 548.36 300.2 560.77 300.2 560.77 331.35 573.26 331.35 573.26 362.57 585.75 362.57 585.75 418.62 598.24 418.62 598.24 393.72 610.73 393.72 610.73 362.57 598.24 362.57 598.24 331.35"/>
      <rect class="cls-1" x="610.73" y="331.35" width="12.49" height="31.22"/>
      <polygon class="cls-1" points="804.11 281.47 791.62 281.47 791.62 268.98 779.13 268.98 779.13 256.49 729.25 256.49 729.25 268.98 766.64 268.98 766.64 281.47 779.13 281.47 779.13 306.44 791.62 306.44 791.62 343.84 779.13 343.84 779.13 368.81 766.64 368.81 766.64 381.3 729.25 381.3 729.25 393.72 779.13 393.72 779.13 381.3 791.62 381.3 791.62 368.81 804.11 368.81 804.11 343.84 816.59 343.84 816.59 306.44 804.11 306.44 804.11 281.47"/>
      <polygon class="cls-1" points="716.76 368.81 716.76 281.47 729.25 281.47 729.25 268.98 716.76 268.98 716.76 244 704.27 244 704.27 256.49 691.78 256.49 691.78 268.98 679.37 268.98 679.37 281.47 691.78 281.47 691.78 456.09 679.37 456.09 679.37 468.58 729.25 468.58 729.25 456.09 716.76 456.09 716.76 381.3 729.25 381.3 729.25 368.81 716.76 368.81"/>
      <rect class="cls-1" x="866.5" y="268.98" width="12.49" height="12.49"/>
      <polygon class="cls-1" points="953.84 268.98 941.35 268.98 941.35 256.49 878.98 256.49 878.98 268.98 928.87 268.98 928.87 281.47 941.35 281.47 941.35 293.96 866.5 293.96 866.5 281.47 854.01 281.47 854.01 306.44 841.59 306.44 841.59 343.84 854.01 343.84 854.01 368.81 866.5 368.81 866.5 381.3 878.98 381.3 878.98 393.72 941.35 393.72 941.35 381.3 891.47 381.3 891.47 368.81 878.98 368.81 878.98 343.84 866.5 343.84 866.5 306.44 966.33 306.44 966.33 281.47 953.84 281.47 953.84 268.98"/>
      <rect class="cls-1" x="941.35" y="368.81" width="12.49" height="12.49"/>
      <rect class="cls-1" x="953.84" y="356.32" width="12.49" height="12.49"/>
      <polygon class="cls-1" points="1034.97 256.49 1034.97 268.98 1059.95 268.98 1059.95 281.47 1084.85 281.47 1084.85 256.49 1034.97 256.49"/>
      <polygon class="cls-1" points="1022.48 244 1009.99 244 1009.99 256.49 997.5 256.49 997.5 268.98 985.09 268.98 985.09 281.47 997.5 281.47 997.5 381.3 985.09 381.3 985.09 393.72 1034.97 393.72 1034.97 381.3 1022.48 381.3 1022.48 281.47 1034.97 281.47 1034.97 268.98 1022.48 268.98 1022.48 244"/>
    </g>
    <g>
      <polygon class="cls-1" points="1084.58 418.62 1109.56 418.62 1109.56 493.48 1022.21 493.48 1022.21 418.62 1047.19 418.62 1047.19 406.13 972.33 406.13 972.33 418.62 997.23 418.62 997.23 593.32 972.33 593.32 972.33 605.73 1047.19 605.73 1047.19 593.32 1022.21 593.32 1022.21 505.97 1109.56 505.97 1109.56 593.32 1084.58 593.32 1084.58 605.73 1159.44 605.73 1159.44 593.32 1134.46 593.32 1134.46 418.62 1159.44 418.62 1159.44 406.13 1084.58 406.13 1084.58 418.62"/>
      <polygon class="cls-1" points="1284.2 493.48 1271.72 493.48 1271.72 480.99 1259.23 480.99 1259.23 468.5 1196.86 468.5 1196.86 480.99 1184.37 480.99 1184.37 493.48 1171.95 493.48 1171.95 505.97 1196.86 505.97 1196.86 493.48 1209.35 493.48 1209.35 480.99 1246.81 480.99 1246.81 493.48 1259.23 493.48 1259.23 518.46 1246.81 518.46 1246.81 530.87 1259.23 530.87 1259.23 580.83 1246.81 580.83 1246.81 593.32 1271.72 593.32 1271.72 605.73 1296.69 605.73 1296.69 593.32 1284.2 593.32 1284.2 493.48"/>
      <rect class="cls-1" x="1209.35" y="530.87" width="37.47" height="12.49"/>
      <polygon class="cls-1" points="1209.35 580.83 1196.86 580.83 1196.86 555.85 1209.35 555.85 1209.35 543.36 1184.37 543.36 1184.37 555.85 1171.95 555.85 1171.95 580.83 1184.37 580.83 1184.37 593.32 1196.86 593.32 1196.86 605.73 1246.81 605.73 1246.81 593.32 1209.35 593.32 1209.35 580.83"/>
      <rect class="cls-1" x="1421.45" y="568.34" width="12.49" height="12.49"/>
      <polygon class="cls-1" points="1421.45 480.99 1408.96 480.99 1408.96 468.5 1346.59 468.5 1346.59 480.99 1334.1 480.99 1334.1 493.48 1321.61 493.48 1321.61 518.46 1309.2 518.46 1309.2 555.85 1321.61 555.85 1321.61 580.83 1334.1 580.83 1334.1 593.32 1346.59 593.32 1346.59 605.73 1408.96 605.73 1408.96 593.32 1359.08 593.32 1359.08 580.83 1346.59 580.83 1346.59 555.85 1334.1 555.85 1334.1 518.46 1346.59 518.46 1346.59 493.48 1359.08 493.48 1359.08 480.99 1396.47 480.99 1396.47 493.48 1408.96 493.48 1408.96 505.97 1433.94 505.97 1433.94 493.48 1421.45 493.48 1421.45 480.99"/>
      <rect class="cls-1" x="1408.96" y="580.83" width="12.49" height="12.49"/>
      <polygon class="cls-1" points="1571.19 593.32 1571.19 580.83 1558.7 580.83 1558.7 568.34 1546.21 568.34 1546.21 555.85 1533.72 555.85 1533.72 543.36 1521.31 543.36 1521.31 530.87 1508.82 530.87 1508.82 518.46 1496.33 518.46 1496.33 530.87 1483.84 530.87 1483.84 368.74 1471.35 368.74 1471.35 381.15 1458.86 381.15 1458.86 393.64 1446.45 393.64 1446.45 406.13 1458.86 406.13 1458.86 593.32 1446.45 593.32 1446.45 605.73 1496.33 605.73 1496.33 593.32 1483.84 593.32 1483.84 543.36 1508.82 543.36 1508.82 555.85 1521.31 555.85 1521.31 568.34 1533.72 568.34 1533.72 580.83 1546.21 580.83 1546.21 593.32 1533.72 593.32 1533.72 605.73 1583.68 605.73 1583.68 593.32 1571.19 593.32"/>
      <rect class="cls-1" x="1508.82" y="505.97" width="12.49" height="12.49"/>
      <rect class="cls-1" x="1521.31" y="493.48" width="12.41" height="12.49"/>
      <polygon class="cls-1" points="1546.21 480.99 1571.19 480.99 1571.19 468.5 1515.06 468.5 1515.06 480.99 1533.72 480.99 1533.72 493.48 1546.21 493.48 1546.21 480.99"/>
    </g>
  </g>
  <g>
    <path d="M218.94,300.16v-12.41h24.9v12.41h-24.9ZM243.84,287.75v-12.49h12.49v12.49h-12.49ZM243.84,312.65v-12.49h12.49v12.49h-12.49ZM256.33,275.26v-112.33h12.49v112.33h-12.49ZM256.33,424.9v-112.25h12.49v112.25h-12.49ZM268.82,162.93v-12.49h24.98v12.49h-24.98ZM268.82,437.39v-12.49h24.98v12.49h-24.98Z"/>
    <path d="M1626.2,375.1v-12.49h24.9v12.49h-24.9ZM1626.2,649.56v-12.49h24.9v12.49h-24.9ZM1651.1,487.43v-112.33h12.49v112.33h-12.49ZM1651.1,637.07v-112.25h12.49v112.25h-12.49ZM1663.59,499.91v-12.49h12.49v12.49h-12.49ZM1663.59,524.82v-12.49h12.49v12.49h-12.49ZM1676.08,512.33v-12.41h24.98v12.41h-24.98Z"/>
  </g>
</svg>