<svg width="2560" height="918" viewBox="0 0 2560 918" fill="none" xmlns="http://www.w3.org/2000/svg">
<g clip-path="url(#clip0_1_26)">
<path d="M917.291 458.646C917.291 367.934 890.392 279.26 839.995 203.836C789.598 128.412 717.968 69.6263 634.161 34.9125C550.355 0.198738 458.137 -8.88399 369.168 8.81294C280.2 26.5099 198.477 70.1916 134.334 134.334C70.1913 198.477 26.5099 280.2 8.81299 369.168C-8.88395 458.137 0.198621 550.355 34.9124 634.161C69.6262 717.968 128.412 789.599 203.836 839.995C279.26 890.392 367.934 917.291 458.645 917.291C580.286 917.291 696.944 868.969 782.957 782.957C868.969 696.944 917.291 580.286 917.291 458.646Z" fill="black"/>
<path d="M768.153 435.721C758.423 428.39 748.317 421.573 737.876 415.298C733.348 412.475 729.152 409.153 725.367 405.393C717.555 397.683 704.485 384.153 700.247 375.831C697.541 370.725 698.664 360.973 700.758 351.834C704.465 335.822 701.694 318.993 693.048 305.015L679.467 282.856C673.208 272.766 668.169 261.968 664.456 250.69C659.77 236.19 651.6 223.059 640.663 212.448C618.556 190.902 557.389 180.282 506.587 178.597C503.437 177.64 500.231 176.873 496.989 176.3C474.37 172.471 450.22 166.089 428.572 170.275C396.406 176.249 363.934 186.358 339.631 211.121C334.525 216.227 327.122 218.473 321.863 223.221C311.652 232.667 297.305 232.667 288.013 243.134C282.601 249.26 280.098 269.173 265.853 276.831C242.265 289.442 225.008 303.33 219.137 310.478C214.797 315.584 211.478 322.017 207.24 327.48C203.002 332.943 182.682 342.797 176.606 348.464C172.1 353.472 168.83 359.466 167.057 365.964C165.284 372.463 165.057 379.287 166.394 385.889C166.752 387.421 167.007 388.697 167.211 389.769C169.56 398.398 175.84 414.124 174.411 421.323C172.675 429.798 150.771 493.313 199.939 510.264C204.434 511.601 208.379 514.347 211.192 518.098C214.005 521.85 215.538 526.407 215.562 531.095C216.615 539.591 219.065 547.855 222.813 555.552C226.041 561.804 230.868 567.089 236.802 570.869C243.087 576.885 249.036 583.242 254.621 589.913C271.981 622.028 267.079 638.06 300.572 648.986C309.109 651.809 317.31 655.558 325.029 660.168C334.433 665.825 344.499 670.301 354.999 673.493L356.327 673.902C363.679 656.083 371.185 639.132 378.639 623.202C359.285 604.303 345.479 580.462 338.719 554.269C331.959 528.076 332.504 500.532 340.295 474.626C340.456 474.077 340.755 473.577 341.163 473.175C341.57 472.773 342.075 472.482 342.627 472.328C343.178 472.175 343.76 472.165 344.317 472.299C344.874 472.433 345.387 472.707 345.809 473.094C358.369 484.072 396.866 523.794 392.117 595.631C405.29 569.235 418.157 546.055 429.9 526.245C415.766 503.017 408.219 476.382 408.066 449.193C407.913 422.003 415.161 395.285 429.032 371.899C429.347 371.415 429.779 371.017 430.287 370.741C430.795 370.465 431.364 370.321 431.942 370.321C432.52 370.321 433.089 370.465 433.597 370.741C434.106 371.017 434.537 371.415 434.853 371.899C443.686 384.97 467.58 428.062 452.773 489.331C463.495 472.941 472.226 460.79 477.945 453.131C493.262 351.017 570.46 317.575 590.729 310.478C591.269 310.288 591.848 310.236 592.412 310.328C592.977 310.419 593.51 310.651 593.962 311.001C594.414 311.352 594.771 311.81 595 312.334C595.229 312.858 595.323 313.431 595.274 314.001C592.09 345.096 580.742 374.796 562.378 400.091C544.015 425.386 519.289 445.375 490.709 458.033C479.936 472.227 469.571 487.084 459.666 502.401C493.875 475.647 541.766 463.087 581.591 472.737C582.15 472.873 582.667 473.143 583.098 473.525C583.528 473.907 583.858 474.388 584.06 474.927C584.261 475.466 584.328 476.046 584.253 476.617C584.179 477.187 583.965 477.731 583.632 478.2C572.196 493.517 526.653 544.574 440.673 532.78C426.172 557.185 412.898 581.948 401.103 605.639C438.171 577.608 492.292 566.886 534.261 580.978C534.821 581.158 535.327 581.477 535.733 581.903C536.139 582.33 536.432 582.851 536.584 583.42C536.736 583.989 536.744 584.587 536.605 585.159C536.467 585.731 536.187 586.26 535.792 586.696C522.772 600.686 472.584 646.791 390.024 628.512C382.264 644.85 370.725 671.706 365.109 685.032C363.168 689.576 361.381 694.223 360.003 698.92C356.327 709.744 351.425 723.223 345.553 736.753C344.738 738.68 344.326 740.754 344.343 742.847C344.36 744.94 344.806 747.006 345.653 748.92C346.5 750.834 347.729 752.554 349.267 753.974C350.804 755.394 352.616 756.483 354.591 757.176C419.711 780.426 490.411 783.064 557.083 764.732C559.286 764.102 561.319 762.987 563.033 761.467C564.747 759.947 566.099 758.062 566.988 755.951C568.366 752.632 569.745 749.517 569.745 749.517C569.745 749.517 598.541 682.633 602.779 653.479C603.997 644.298 606.851 635.41 611.203 627.236C613.45 623.148 616.701 619.701 620.649 617.217C624.598 614.734 629.113 613.297 633.771 613.042C655.725 611.868 702.443 608.804 719.445 603.443C742.012 596.244 732.208 555.143 731.034 550.701C729.86 546.259 741.91 535.946 744.36 529.921C746.811 523.896 738.285 521.854 734.762 515.217C731.239 508.579 743.492 503.882 744.973 497.908C746.454 491.935 740.991 485.297 738.642 480.855C737.075 477.632 736.007 474.188 735.476 470.644C735.476 470.644 751.967 458.543 761.004 450.885C770.042 443.226 768.153 436.946 768.153 435.568" fill="#00CFFF"/>
<path d="M1375.48 612.327V429.237L1309.1 562.444H1270.2L1203.82 429.237V612.327H1132.9V305.117H1209.9L1289.45 465.538L1369.45 305.117H1446.04V612.327H1375.48Z" fill="white"/>
<path d="M1764.28 549.884V612.327H1548.46V305.117H1760.4V367.253H1619.38V426.939H1740.48V484.684H1619.38V549.986L1764.28 549.884Z" fill="white"/>
<path d="M2084.71 367.253H1991.33V612.327H1920.31V367.253H1826.46V305.117H2084.61L2084.71 367.253Z" fill="white"/>
<path d="M2162.57 612.327V305.117H2233.49V612.327H2162.57Z" fill="white"/>
<path d="M2519.77 395.488C2517.19 392.707 2514.1 390.437 2510.68 388.799C2504.39 385.18 2497.89 381.924 2491.23 379.047C2482.95 375.402 2474.42 372.365 2465.7 369.96C2456.7 367.392 2447.38 366.086 2438.02 366.079C2428.27 365.535 2418.55 367.69 2409.94 372.308C2406.66 374.258 2403.98 377.067 2402.18 380.433C2400.38 383.798 2399.53 387.592 2399.73 391.403C2399.61 394.53 2400.23 397.642 2401.54 400.483C2402.86 403.323 2404.83 405.811 2407.29 407.742C2413.89 412.518 2421.29 416.08 2429.14 418.259C2438.64 421.255 2450.31 424.761 2464.17 428.777C2481.79 433.207 2498.9 439.471 2515.22 447.464C2528.5 453.802 2539.89 463.5 2548.26 475.596C2556.52 489.302 2560.52 505.155 2559.74 521.139C2560.21 536.233 2556.95 551.209 2550.25 564.742C2544.2 576.258 2535.44 586.126 2524.72 593.487C2513.45 600.986 2500.9 606.367 2487.7 609.366C2473.69 612.75 2459.33 614.463 2444.92 614.471C2429.49 614.411 2414.11 612.89 2398.97 609.928C2383.54 606.993 2368.42 602.652 2353.78 596.959C2339.81 591.606 2326.46 584.759 2313.96 576.536L2345.1 514.655C2348.5 517.784 2352.27 520.477 2356.33 522.671C2363.94 527.184 2371.82 531.225 2379.92 534.771C2390.08 539.234 2400.56 542.921 2411.27 545.8C2422.68 548.946 2434.46 550.544 2446.3 550.548C2456.11 551.229 2465.91 549.178 2474.63 544.625C2477.52 542.961 2479.9 540.553 2481.54 537.652C2483.17 534.75 2484 531.463 2483.93 528.134C2484.05 524.534 2483.21 520.965 2481.51 517.791C2479.81 514.616 2477.29 511.949 2474.22 510.06C2466 504.993 2457.12 501.093 2447.83 498.47C2436.7 494.998 2423.98 491.169 2409.53 486.829C2393.35 482.194 2377.76 475.7 2363.07 467.478C2351.82 461.306 2342.41 452.248 2335.81 441.235C2329.51 429.335 2326.47 415.986 2326.98 402.534C2326.34 383.26 2331.69 364.263 2342.29 348.158C2352.61 333.292 2366.93 321.66 2383.6 314.614C2401.48 306.879 2420.79 302.983 2440.27 303.177C2454.34 303.103 2468.35 304.819 2481.98 308.283C2494.86 311.578 2507.44 315.915 2519.61 321.251C2531.31 326.357 2541.72 331.462 2550.96 336.568L2519.77 395.488Z" fill="white"/>
</g>
<defs>
<clipPath id="clip0_1_26">
<rect width="2560" height="917.291" fill="white"/>
</clipPath>
</defs>
</svg>
