<svg width="2214" height="2560" viewBox="0 0 2214 2560" fill="none" xmlns="http://www.w3.org/2000/svg">
<g clip-path="url(#clip0_3_165)">
<path fill-rule="evenodd" clip-rule="evenodd" d="M1871.26 408.558C1972.28 559.739 2026.2 737.482 2026.2 919.308C2026.22 1040.03 2002.45 1159.57 1956.26 1271.1C1910.07 1382.64 1842.37 1483.98 1757.01 1569.35C1671.65 1654.72 1570.31 1722.43 1458.79 1768.64C1347.26 1814.84 1227.72 1838.62 1107 1838.62C925.171 1838.64 747.422 1784.74 596.229 1683.73C445.036 1582.73 327.191 1439.16 257.595 1271.18C187.999 1103.2 169.778 918.357 205.239 740.023C240.699 561.688 328.247 397.873 456.81 269.296C585.373 140.718 749.178 53.1521 927.509 17.6721C1105.84 -17.8079 1290.69 0.39164 1458.67 69.9688C1626.66 139.546 1770.24 257.376 1871.26 408.558ZM1649.49 832.217C1670.47 844.765 1690.77 858.43 1710.28 873.152L1710.39 873.05C1710.39 873.348 1710.43 873.762 1710.48 874.281C1710.93 878.58 1712.13 890.148 1696.06 903.752C1678.05 919 1644.89 943.254 1644.89 943.254C1646.02 950.357 1648.19 957.254 1651.34 963.722C1652.34 965.631 1653.64 967.733 1655.02 969.976C1660.09 978.196 1666.33 988.314 1663.92 997.801C1662.68 1002.69 1657.95 1007.14 1653.22 1011.59C1646.26 1018.14 1639.31 1024.68 1643.46 1032.6C1646.23 1037.91 1650.66 1041.75 1654.66 1045.22C1660.67 1050.44 1665.71 1054.82 1662.69 1062.07C1660.6 1067.11 1655.19 1073.63 1649.77 1080.17C1642.2 1089.29 1634.61 1098.43 1635.98 1103.62C1638.34 1112.52 1657.99 1195.01 1612.75 1209.44C1578.67 1220.18 1485.04 1226.32 1441.03 1228.68C1431.69 1229.18 1422.64 1232.06 1414.72 1237.03C1406.81 1242.01 1400.29 1248.93 1395.8 1257.13C1387.07 1273.51 1381.35 1291.33 1378.91 1309.73C1370.42 1368.16 1312.7 1502.13 1312.7 1502.13L1307.17 1515.02C1305.39 1519.25 1302.68 1523.03 1299.24 1526.08C1295.81 1529.12 1291.73 1531.36 1287.32 1532.62C1153.66 1569.48 1011.9 1564.23 881.34 1517.58C877.391 1516.18 873.77 1513.99 870.699 1511.14C867.629 1508.29 865.175 1504.84 863.488 1501C861.801 1497.17 860.916 1493.03 860.888 1488.84C860.861 1484.65 861.691 1480.5 863.328 1476.64C875.097 1449.63 884.922 1422.51 892.29 1400.81C895.053 1391.4 898.635 1382.18 902.524 1372.97C913.781 1346.37 936.91 1292.43 952.465 1259.69C1117.84 1296.32 1218.44 1204.01 1244.64 1175.87C1245.44 1175.01 1246 1173.95 1246.28 1172.81C1246.56 1171.67 1246.54 1170.48 1246.24 1169.34C1245.93 1168.21 1245.34 1167.17 1244.53 1166.33C1243.71 1165.48 1242.69 1164.86 1241.57 1164.51C1157.35 1136.16 1048.87 1157.65 974.673 1213.84C998.313 1166.45 1024.92 1116.82 1053.99 1067.8C1226.32 1091.54 1317.51 989.205 1340.53 958.503C1341.23 957.57 1341.68 956.478 1341.84 955.327C1342 954.176 1341.87 953.002 1341.47 951.913C1341.06 950.824 1340.39 949.855 1339.51 949.093C1338.63 948.331 1337.58 947.802 1336.44 947.553C1256.62 928.211 1160.62 953.386 1092.06 1006.91C1111.91 976.31 1132.68 946.427 1154.17 918.079C1211.36 892.578 1260.81 852.437 1297.52 801.711C1334.23 750.985 1356.9 691.47 1363.25 629.177C1363.35 628.035 1363.16 626.886 1362.7 625.836C1362.24 624.785 1361.53 623.867 1360.62 623.164C1359.72 622.462 1358.65 621.998 1357.52 621.815C1356.39 621.631 1355.23 621.735 1354.14 622.116C1313.52 636.341 1158.78 703.372 1128.08 908.05C1116.62 923.298 1099.12 947.655 1077.63 980.608C1107.3 857.802 1059.31 771.428 1041.7 745.229C1041.07 744.258 1040.21 743.459 1039.19 742.907C1038.17 742.354 1037.03 742.065 1035.87 742.065C1034.71 742.065 1033.57 742.354 1032.55 742.907C1031.53 743.459 1030.67 744.258 1030.04 745.229C1002.23 792.083 987.704 845.622 988.01 900.104C988.317 954.587 1003.45 1007.96 1031.78 1054.5C1008.24 1094.2 982.45 1140.77 955.945 1193.57C964.95 1049.58 888.401 970.067 863.226 947.962C862.353 947.215 861.31 946.696 860.188 946.451C859.067 946.206 857.902 946.241 856.797 946.555C855.693 946.869 854.684 947.452 853.859 948.251C853.034 949.05 852.42 950.04 852.071 951.134C836.549 1003.07 835.513 1058.27 849.076 1110.75C862.64 1163.24 890.286 1211.02 929.029 1248.94C914.088 1280.87 899.045 1314.74 884.206 1350.56L881.647 1349.64C860.578 1343.35 840.392 1334.41 821.574 1323.03C806.057 1313.78 789.588 1306.23 772.452 1300.52C724.622 1284.87 716.194 1263.89 702.369 1229.48C696.938 1215.96 690.673 1200.37 680.858 1182.22C669.626 1168.85 657.669 1156.1 645.04 1144.04C633.244 1136.38 623.622 1125.8 617.102 1113.34C609.546 1097.97 604.633 1081.43 602.57 1064.42C602.494 1055.02 599.414 1045.89 593.781 1038.36C588.147 1030.83 580.254 1025.29 571.254 1022.57C481.763 991.775 509.896 883.779 518.294 851.543C519.135 848.316 519.777 845.848 520.085 844.293C522.278 833.627 515.918 813.68 510.59 796.974C508.71 791.078 506.958 785.586 505.757 781.048C505.59 780.211 505.388 779.289 505.167 778.274C504.846 776.806 504.483 775.145 504.12 773.27C501.406 760.053 501.844 746.383 505.4 733.368C508.957 720.352 515.53 708.358 524.588 698.358C530.285 692.804 542.254 685.638 554.239 678.462C567.872 670.299 581.525 662.124 585.991 656.297C589.934 651.152 593.516 645.667 597.097 640.184C601.137 633.997 605.176 627.812 609.734 622.116C621.502 607.891 656.195 580.055 703.373 554.675C722.339 544.582 730.949 523.639 737.749 507.099C741.222 498.651 744.223 491.351 747.891 487.233C757.755 476.123 770.431 470.897 783.215 465.626C794.57 460.944 806.01 456.228 815.639 447.322C820.636 442.853 826.557 439.468 832.493 436.074C839.2 432.239 845.926 428.394 851.355 422.965C899.966 373.228 965.155 353.068 1029.63 341.094C1065.34 334.189 1104.44 341.559 1142.43 348.72C1150.61 350.261 1158.73 351.793 1166.76 353.17C1173.22 354.322 1179.61 355.825 1185.9 357.673C1287.83 361.05 1410.43 382.337 1454.74 425.626C1476.67 446.895 1493.04 473.213 1502.43 502.277C1509.88 524.884 1519.97 546.526 1532.52 566.751L1559.74 611.166C1576.98 639.219 1582.53 672.912 1575.2 705.01C1571 723.227 1568.75 742.876 1574.17 753.109C1582.67 769.791 1608.76 796.808 1624.52 812.363C1632.12 819.845 1640.49 826.5 1649.49 832.217Z" fill="white"/>
<path d="M375.787 2556.72V2272.84L273.448 2479.46H213.069L110.73 2272.84V2556.72H0V2080.75H119.429L242.952 2329.74L367.088 2080.75H485.903V2557.24L375.787 2556.72Z" fill="white"/>
<path d="M979.073 2460.01V2556.72H644.222V2080.75H973.445V2177.36H754.338V2269.97H942.743V2359.21H754.338V2460.53L979.073 2460.01Z" fill="white"/>
<path d="M1476.34 2176.84H1331.63V2556.72H1221.41V2176.84H1075.78V2080.75H1476.34V2176.84Z" fill="white"/>
<path d="M1597.71 2556.72V2080.75H1707.21V2557.24L1597.71 2556.72Z" fill="white"/>
<path d="M2151.46 2220.44C2147.44 2216.18 2142.65 2212.71 2137.34 2210.21C2127.39 2204.61 2117.14 2199.55 2106.64 2195.06C2093.78 2189.46 2080.54 2184.74 2067.03 2180.94C2053.08 2176.98 2038.66 2174.95 2024.15 2174.9C2008.97 2174.06 1993.85 2177.42 1980.46 2184.62C1975.72 2187.8 1971.91 2192.17 1969.39 2197.29C1966.88 2202.41 1965.75 2208.1 1966.13 2213.79C1965.94 2218.62 1966.9 2223.43 1968.93 2227.83C1970.96 2232.22 1974 2236.07 1977.8 2239.07C1988.04 2246.47 1999.5 2252.02 2011.67 2255.44C2026.54 2260.01 2044.69 2265.44 2066.11 2271.71C2093.42 2278.58 2119.93 2288.29 2145.22 2300.67C2165.79 2310.54 2183.43 2325.6 2196.39 2344.37C2209.18 2365.63 2215.38 2390.21 2214.2 2414.99C2214.94 2438.41 2209.87 2461.64 2199.46 2482.63C2189.98 2500.59 2176.24 2515.94 2159.45 2527.35C2142 2538.96 2122.58 2547.29 2102.14 2551.92C2080.34 2557.06 2058.01 2559.64 2035.62 2559.59C2011.57 2559.52 1987.59 2557.19 1963.98 2552.63C1940.04 2547.94 1916.58 2541.09 1893.88 2532.16C1872.29 2523.82 1851.7 2513.11 1832.47 2500.23L1880.78 2404.34C1886.04 2409.18 1891.89 2413.34 1898.18 2416.73C1909.99 2423.76 1922.22 2430.05 1934.81 2435.56C1950.57 2442.46 1966.82 2448.17 1983.42 2452.65C2001.13 2457.53 2019.4 2460.01 2037.77 2460.02C2053 2461.03 2068.22 2457.85 2081.77 2450.81C2086.25 2448.23 2089.96 2444.5 2092.5 2439.99C2095.04 2435.49 2096.32 2430.39 2096.2 2425.22C2096.36 2419.63 2095.05 2414.09 2092.39 2409.17C2089.73 2404.25 2085.82 2400.11 2081.06 2397.18C2068.31 2389.31 2054.53 2383.25 2040.12 2379.17C2022.93 2373.85 2003.07 2367.81 1980.76 2361.16C1955.82 2353.88 1931.78 2343.79 1909.13 2331.07C1891.62 2321.47 1877.02 2307.33 1866.86 2290.13C1857.05 2271.67 1852.29 2250.95 1853.05 2230.06C1852.05 2200.16 1860.39 2170.69 1876.89 2145.73C1892.91 2122.68 1915.12 2104.62 1940.95 2093.64C1968.7 2081.68 1998.65 2075.65 2028.86 2075.94C2050.71 2075.86 2072.48 2078.57 2093.64 2084.02C2113.65 2089.23 2133.19 2096.08 2152.08 2104.49C2170.16 2112.54 2186.36 2120.63 2200.69 2128.75L2151.46 2220.44Z" fill="white"/>
</g>
<defs>
<clipPath id="clip0_3_165">
<rect width="2213.89" height="2560" fill="white"/>
</clipPath>
</defs>
</svg>
