<svg width="2214" height="2560" viewBox="0 0 2214 2560" fill="none" xmlns="http://www.w3.org/2000/svg">
<g clip-path="url(#clip0_1_50)">
<path d="M2026.2 919.308C2026.2 737.486 1972.29 559.747 1871.27 408.568C1770.26 257.388 1626.68 139.558 1458.7 69.9781C1290.72 0.397862 1105.87 -17.8075 927.546 17.6642C749.218 53.1358 585.414 140.691 456.846 269.259C328.279 397.826 240.723 561.631 205.251 739.96C169.779 918.288 187.985 1103.13 257.565 1271.11C327.145 1439.09 444.976 1582.67 596.155 1683.68C747.335 1784.7 925.073 1838.62 1106.9 1838.62C1227.62 1838.63 1347.17 1814.86 1458.71 1768.66C1570.26 1722.47 1671.61 1654.75 1756.97 1569.39C1842.34 1484.02 1910.06 1382.67 1956.25 1271.13C2002.45 1159.59 2026.22 1040.04 2026.2 919.308Z" fill="black"/>
<path d="M1710.59 873.358C1691.11 858.627 1670.85 844.962 1649.9 832.422C1640.87 826.706 1632.46 820.051 1624.83 812.568C1609.17 797.115 1583.08 769.996 1574.48 753.314C1569.05 743.08 1571.31 723.534 1575.5 705.215C1582.93 673.12 1577.38 639.388 1560.05 611.371L1532.83 566.956C1520.27 546.75 1510.2 525.102 1502.84 502.483C1493.41 473.438 1477.04 447.129 1455.15 425.831C1410.84 382.542 1288.14 361.358 1186.31 357.878C1179.98 356.03 1173.56 354.527 1167.07 353.375C1121.73 345.597 1073.43 332.907 1029.94 341.299C965.462 353.273 900.374 373.434 851.764 423.17C841.53 433.404 826.588 438.009 816.047 447.527C795.58 466.459 766.925 466.459 748.299 487.439C737.349 499.719 732.335 539.631 703.782 554.88C656.502 580.26 621.911 608.096 610.142 622.321C601.443 633.066 594.792 645.552 586.4 656.502C578.008 667.452 537.073 687.204 524.997 698.563C515.967 708.581 509.412 720.576 505.857 733.586C502.303 746.596 501.848 760.258 504.529 773.475C505.246 776.648 505.756 779.206 506.166 781.253C510.873 798.65 523.564 830.068 520.596 844.498C517.219 861.589 473.213 988.898 571.765 1022.87C580.776 1025.56 588.689 1031.07 594.343 1038.58C599.997 1046.1 603.094 1055.23 603.183 1064.63C605.195 1081.63 610.074 1098.17 617.613 1113.55C624.162 1126.02 633.82 1136.6 645.653 1144.25C658.251 1156.31 670.174 1169.05 681.369 1182.42C716.165 1246.79 706.442 1278.93 773.474 1300.83C790.584 1306.48 807.023 1314 822.495 1323.24C841.322 1334.59 861.505 1343.53 882.568 1349.85L885.228 1350.77C900.068 1315.05 915.009 1281.07 930.053 1249.14C810.01 1126.34 841.53 988.284 853.094 951.34C853.42 950.229 854.023 949.218 854.845 948.403C855.668 947.588 856.684 946.994 857.797 946.678C858.911 946.361 860.086 946.331 861.214 946.592C862.342 946.852 863.386 947.394 864.249 948.167C889.424 970.272 965.974 1049.89 956.968 1193.78C983.474 1140.87 1009.16 1094.31 1032.7 1054.6C1004.37 1008.06 989.238 954.689 988.931 900.207C988.625 845.724 1003.15 792.186 1030.96 745.332C1031.59 744.361 1032.45 743.562 1033.47 743.01C1034.49 742.457 1035.63 742.168 1036.79 742.168C1037.95 742.168 1039.09 742.457 1040.11 743.01C1041.13 743.562 1041.99 744.361 1042.63 745.332C1060.33 771.531 1108.22 857.904 1078.55 981.222C1100.14 948.269 1117.54 923.913 1129 908.664C1159.7 703.987 1314.44 636.955 1355.07 622.73C1356.15 622.327 1357.32 622.207 1358.47 622.379C1359.62 622.552 1360.7 623.013 1361.62 623.718C1362.54 624.423 1363.27 625.351 1363.73 626.413C1364.19 627.475 1364.38 628.637 1364.28 629.792C1357.92 692.082 1335.24 751.592 1298.53 802.316C1261.82 853.04 1212.38 893.183 1155.2 918.694C1133.6 947.041 1112.83 976.924 1093.08 1007.63C1161.54 954 1257.64 928.825 1337.46 948.167C1338.59 948.43 1339.63 948.969 1340.5 949.736C1341.37 950.503 1342.03 951.475 1342.42 952.562C1342.82 953.649 1342.94 954.817 1342.77 955.962C1342.6 957.107 1342.15 958.191 1341.45 959.117C1318.53 989.819 1227.24 1092.16 1054.91 1068.41C1025.84 1117.44 999.233 1167.07 975.593 1214.45C1049.89 1158.37 1158.37 1136.78 1242.49 1165.12C1243.62 1165.47 1244.63 1166.1 1245.45 1166.94C1246.26 1167.79 1246.85 1168.82 1247.16 1169.96C1247.46 1171.09 1247.48 1172.29 1247.2 1173.43C1246.92 1174.57 1246.36 1175.62 1245.56 1176.48C1219.47 1204.63 1118.87 1296.94 953.386 1260.3C937.831 1293.15 914.702 1346.98 903.445 1373.59C899.556 1382.8 895.974 1392.01 893.211 1401.42C885.945 1423.12 876.017 1450.24 864.249 1477.36C862.614 1481.22 861.788 1485.38 861.822 1489.57C861.857 1493.77 862.751 1497.91 864.448 1501.75C866.146 1505.58 868.61 1509.03 871.692 1511.88C874.773 1514.72 878.404 1516.91 882.363 1518.3C1012.89 1564.94 1154.62 1570.2 1288.24 1533.34C1292.65 1532.08 1296.73 1529.84 1300.16 1526.79C1303.6 1523.75 1306.31 1519.97 1308.09 1515.74C1310.85 1509.19 1313.62 1502.94 1313.62 1502.94C1313.62 1502.94 1371.34 1368.88 1379.83 1310.45C1382.27 1292.04 1387.99 1274.23 1396.72 1257.84C1401.22 1249.65 1407.74 1242.74 1415.65 1237.76C1423.56 1232.79 1432.62 1229.91 1441.95 1229.39C1485.96 1227.04 1579.6 1220.9 1613.68 1210.15C1659.01 1195.72 1639.36 1113.24 1636.9 1104.44C1634.45 1095.64 1658.7 1074.86 1663.72 1062.79C1668.73 1050.71 1651.44 1046.62 1644.38 1033.31C1637.32 1020.01 1661.88 1010.59 1665.36 998.518C1668.83 986.442 1657.37 973.342 1652.77 964.439C1649.62 957.972 1647.45 951.075 1646.32 943.971C1646.32 943.971 1679.48 919.717 1697.49 904.366C1715.5 889.015 1711.82 876.428 1711.72 873.665" fill="#00CFFF"/>
<path d="M375.787 2556.73V2272.74L273.449 2479.46H212.967L110.629 2272.74V2556.73H0.614746V2080.13H120.043L243.464 2329.12L367.703 2080.13H486.416V2556.73H375.787Z" fill="black"/>
<path d="M979.074 2459.91V2556.73H644.221V2080.13H973.035V2176.74H754.235V2269.36H942.129V2358.6H754.235V2459.91H979.074Z" fill="black"/>
<path d="M1476.23 2176.74H1331.22V2556.73H1221.21V2176.74H1075.58V2080.13H1476.23V2176.74Z" fill="black"/>
<path d="M1597.1 2556.73V2080.13H1707.21V2556.73H1597.1Z" fill="black"/>
<path d="M2151.67 2220.34C2147.64 2216.13 2142.89 2212.66 2137.65 2210.1C2127.85 2204.54 2117.78 2199.49 2107.46 2194.96C2094.61 2189.34 2081.37 2184.66 2067.85 2180.94C2053.88 2176.93 2039.41 2174.9 2024.87 2174.9C2009.73 2174.01 1994.64 2177.34 1981.27 2184.52C1976.25 2187.6 1972.16 2191.99 1969.44 2197.22C1966.72 2202.45 1965.47 2208.32 1965.82 2214.2C1965.66 2219.05 1966.65 2223.87 1968.72 2228.26C1970.78 2232.66 1973.86 2236.5 1977.69 2239.48C1987.92 2246.9 1999.39 2252.44 2011.57 2255.85C2026.3 2260.46 2044.42 2266.08 2065.91 2272.12C2093.26 2278.99 2119.81 2288.74 2145.12 2301.19C2165.69 2311 2183.33 2326.03 2196.29 2344.78C2209.08 2366.04 2215.28 2390.61 2214.1 2415.4C2214.83 2438.81 2209.77 2462.05 2199.36 2483.04C2189.98 2501.03 2176.26 2516.4 2159.45 2527.76C2141.95 2539.36 2122.5 2547.72 2102.03 2552.43C2080.27 2557.58 2057.98 2560.15 2035.62 2560.1C2011.57 2560.04 1987.58 2557.68 1963.98 2553.04C1940.01 2548.35 1916.51 2541.5 1893.78 2532.57C1872.21 2524.19 1851.62 2513.48 1832.37 2500.64L1880.68 2404.75C1886.01 2409.55 1891.88 2413.7 1898.18 2417.14C1909.95 2424.17 1922.15 2430.46 1934.71 2435.97C1950.5 2442.87 1966.78 2448.58 1983.42 2453.06C2001.12 2457.95 2019.4 2460.43 2037.77 2460.42C2052.97 2461.44 2068.16 2458.26 2081.67 2451.21C2086.15 2448.64 2089.86 2444.91 2092.4 2440.4C2094.94 2435.9 2096.21 2430.8 2096.1 2425.63C2096.28 2420.04 2094.99 2414.51 2092.35 2409.59C2089.71 2404.66 2085.81 2400.52 2081.06 2397.59C2068.3 2389.74 2054.52 2383.68 2040.12 2379.58C2022.82 2374.26 2003.07 2368.22 1980.66 2361.57C1955.72 2354.29 1931.68 2344.2 1909.02 2331.48C1891.56 2321.82 1876.97 2307.69 1866.76 2290.54C1857.06 2272.05 1852.33 2251.34 1853.04 2230.47C1852.02 2200.53 1860.36 2171.02 1876.89 2146.04C1892.91 2122.99 1915.12 2104.93 1940.95 2093.95C1968.7 2081.97 1998.64 2075.94 2028.86 2076.25C2050.71 2076.17 2072.48 2078.89 2093.64 2084.33C2113.63 2089.49 2133.15 2096.34 2151.98 2104.8C2170.06 2112.78 2186.29 2120.83 2200.69 2128.95L2151.67 2220.34Z" fill="black"/>
</g>
<defs>
<clipPath id="clip0_1_50">
<rect width="2213.89" height="2560" fill="white"/>
</clipPath>
</defs>
</svg>
