<svg width="2560" height="918" viewBox="0 0 2560 918" fill="none" xmlns="http://www.w3.org/2000/svg">
<g clip-path="url(#clip0_3_138)">
<path fill-rule="evenodd" clip-rule="evenodd" d="M839.995 203.836C890.392 279.26 917.291 367.934 917.291 458.646C917.291 580.286 868.97 696.944 782.957 782.957C696.944 868.97 580.286 917.291 458.646 917.291C367.934 917.291 279.26 890.392 203.836 839.995C128.412 789.599 69.6263 717.968 34.9125 634.162C0.198738 550.355 -8.88399 458.137 8.81295 369.168C26.5099 280.2 70.1916 198.477 134.334 134.334C198.477 70.1917 280.2 26.5099 369.168 8.81295C458.137 -8.88399 550.355 0.198738 634.162 34.9125C717.968 69.6263 789.599 128.412 839.995 203.836ZM737.877 415.349C748.333 421.6 758.44 428.418 768.153 435.772H768.46C768.464 435.892 768.48 436.049 768.499 436.241C768.699 438.26 769.284 444.143 761.312 451.089C752.581 458.697 736.038 470.797 736.038 470.797C736.609 474.339 737.693 477.779 739.255 481.009C739.778 482.019 740.478 483.141 741.226 484.341C743.769 488.416 746.876 493.396 745.535 498.01C744.841 500.398 742.468 502.597 740.093 504.799C736.525 508.106 732.953 511.416 735.068 515.37C736.464 517.98 738.646 519.892 740.619 521.622C743.625 524.257 746.147 526.468 744.667 530.074C743.645 532.566 740.944 535.812 738.232 539.073C734.441 543.63 730.627 548.214 731.341 550.804C732.567 555.246 742.318 596.397 719.751 603.545C702.749 608.958 656.032 612.021 634.078 613.195C629.42 613.451 624.905 614.888 620.957 617.371C617.008 619.854 613.757 623.302 611.51 627.389C607.15 635.56 604.296 644.45 603.086 653.632C598.848 682.786 570.052 749.62 570.052 749.62C570.052 749.62 568.673 752.785 567.295 756.053C566.406 758.164 565.054 760.049 563.34 761.569C561.626 763.089 559.593 764.205 557.39 764.835C490.728 783.223 420.016 780.602 354.898 757.329C352.923 756.637 351.111 755.547 349.574 754.127C348.037 752.707 346.806 750.987 345.96 749.073C345.113 747.16 344.667 745.093 344.65 743C344.633 740.908 345.045 738.834 345.861 736.906C351.732 723.427 356.685 709.897 360.31 699.073C361.688 694.376 363.475 689.781 365.415 685.186C371.032 671.911 382.571 645.004 390.331 628.666C472.89 646.944 523.079 600.891 536.099 586.85C536.494 586.413 536.774 585.885 536.912 585.312C537.051 584.74 537.043 584.142 536.891 583.573C536.739 583.005 536.446 582.483 536.04 582.057C535.634 581.63 535.128 581.312 534.567 581.132C492.598 567.04 438.478 577.762 401.41 605.792C413.205 582.102 426.479 557.39 440.98 532.934C526.96 544.728 572.503 493.671 583.939 478.354C584.287 477.896 584.514 477.358 584.599 476.79C584.685 476.222 584.625 475.641 584.427 475.102C584.228 474.563 583.897 474.082 583.464 473.704C583.031 473.327 582.51 473.065 581.948 472.942C542.124 463.292 494.181 475.852 459.973 502.555C469.878 487.289 480.243 472.38 491.016 458.237C519.543 445.516 544.207 425.489 562.514 400.18C580.821 374.872 592.121 345.179 595.274 314.103C595.333 313.529 595.246 312.95 595.021 312.419C594.795 311.887 594.439 311.422 593.986 311.065C593.533 310.708 592.996 310.472 592.427 310.379C591.858 310.285 591.274 310.337 590.73 310.529C570.46 317.626 493.262 351.119 477.945 453.233C472.227 460.841 463.547 472.993 452.774 489.433C467.581 428.164 443.686 385.072 434.853 372.002C434.546 371.506 434.118 371.096 433.609 370.812C433.099 370.528 432.526 370.379 431.943 370.379C431.359 370.379 430.786 370.528 430.277 370.812C429.767 371.096 429.339 371.506 429.032 372.002C415.16 395.377 407.912 422.088 408.065 449.269C408.218 476.451 415.766 503.078 429.9 526.296C418.157 546.106 405.342 569.286 392.118 595.683C396.611 523.845 358.369 484.174 345.809 473.146C345.379 472.772 344.862 472.512 344.306 472.389C343.749 472.266 343.171 472.283 342.623 472.441C342.075 472.598 341.575 472.89 341.169 473.289C340.762 473.689 340.462 474.183 340.295 474.728C334.526 493.109 318.8 561.985 378.69 623.254C371.202 639.217 363.747 656.134 356.327 674.004L355 673.545C344.492 670.396 334.422 665.936 325.029 660.27C317.323 655.623 309.119 651.856 300.573 649.037C276.512 641.213 272.273 630.693 265.323 613.446C262.613 606.721 259.491 598.974 254.622 589.964C249.048 583.299 243.099 576.958 236.803 570.971C230.899 567.154 226.08 561.878 222.813 555.654C219.074 547.972 216.624 539.726 215.563 531.249C215.541 526.553 214.011 521.989 211.198 518.229C208.385 514.469 204.438 511.713 199.939 510.366C155.258 495.009 169.312 441.154 173.513 425.055C173.935 423.439 174.257 422.203 174.411 421.425C175.479 416.048 172.245 405.942 169.562 397.555C168.652 394.713 167.806 392.068 167.212 389.872C167.008 388.851 166.752 387.574 166.395 385.991C165.053 379.397 165.278 372.58 167.052 366.089C168.825 359.598 172.098 353.613 176.606 348.618C179.456 345.84 185.439 342.253 191.427 338.664C198.206 334.601 204.99 330.534 207.241 327.633C209.24 325.055 211.036 322.306 212.83 319.559C214.838 316.484 216.845 313.411 219.137 310.58C225.009 303.483 242.266 289.545 265.854 276.934C275.251 271.915 279.537 261.521 282.935 253.283C284.688 249.032 286.204 245.355 288.064 243.287C292.986 237.712 299.284 235.107 305.678 232.462C311.288 230.141 316.972 227.789 321.864 223.375C324.343 221.136 327.299 219.442 330.267 217.742C333.593 215.836 336.933 213.922 339.632 211.223C363.935 186.46 396.407 176.402 428.573 170.378C446.405 166.979 465.858 170.649 484.779 174.219C488.881 174.993 492.959 175.762 496.989 176.453C500.231 177.009 503.436 177.76 506.588 178.7C557.39 180.385 618.607 191.005 640.664 212.602C651.623 223.205 659.81 236.336 664.507 250.843C668.181 262.129 673.204 272.929 679.467 283.009L693.048 305.066C701.692 319.064 704.463 335.907 700.758 351.936C698.665 361.025 697.541 370.827 700.247 375.933C704.536 384.255 717.556 397.734 725.367 405.495C729.164 409.227 733.359 412.532 737.877 415.349Z" fill="white"/>
<path d="M1375.48 612.174V429.236L1309.1 562.444H1270.15L1203.77 429.236V612.174H1133.31V305.117H1210.31L1289.85 465.589L1369.81 305.117H1446.39V612.174H1375.48Z" fill="white"/>
<path d="M1764.28 549.884V612.174H1548.51V305.117H1760.4V367.406H1619.43V427.092H1740.48V484.582H1619.43V549.884H1764.28Z" fill="white"/>
<path d="M2084.61 367.406H1991.33V612.174H1920.41V367.406H1826.57V305.117H2084.61V367.406Z" fill="white"/>
<path d="M2162.57 612.174V305.117H2233.49V612.174H2162.57Z" fill="white"/>
<path d="M2519.77 395.335C2517.19 392.531 2514.11 390.244 2510.68 388.595C2504.38 384.994 2497.89 381.756 2491.23 378.894C2482.95 375.255 2474.41 372.217 2465.7 369.806C2456.68 367.241 2447.35 365.936 2437.97 365.926C2428.22 365.355 2418.49 367.512 2409.89 372.155C2406.61 374.104 2403.93 376.914 2402.13 380.279C2400.33 383.645 2399.48 387.439 2399.68 391.25C2399.56 394.37 2400.18 397.474 2401.49 400.307C2402.81 403.139 2404.77 405.618 2407.24 407.537C2413.84 412.332 2421.23 415.911 2429.09 418.106C2438.59 421.118 2450.28 424.59 2464.11 428.624C2481.74 433.054 2498.85 439.317 2515.17 447.311C2528.46 453.645 2539.87 463.343 2548.26 475.443C2556.48 489.145 2560.46 504.974 2559.69 520.935C2560.16 536.029 2556.9 551.004 2550.2 564.538C2544.17 576.079 2535.4 585.966 2524.67 593.334C2513.39 600.821 2500.85 606.201 2487.65 609.213C2473.64 612.571 2459.28 614.285 2444.87 614.318C2429.44 614.275 2414.06 612.771 2398.92 609.825C2383.49 606.873 2368.36 602.515 2353.73 596.806C2339.77 591.463 2326.43 584.615 2313.96 576.383L2345 514.451C2348.43 517.553 2352.22 520.244 2356.28 522.467C2363.87 526.99 2371.73 531.032 2379.82 534.567C2389.98 539.03 2400.46 542.717 2411.17 545.595C2422.58 548.742 2434.36 550.339 2446.19 550.344C2456 550.997 2465.8 548.949 2474.53 544.421C2477.41 542.784 2479.79 540.404 2481.44 537.53C2483.08 534.656 2483.92 531.393 2483.87 528.083C2483.99 524.491 2483.15 520.933 2481.44 517.768C2479.74 514.604 2477.23 511.945 2474.17 510.06C2465.96 504.974 2457.07 501.056 2447.78 498.419C2436.71 495.015 2423.95 491.152 2409.48 486.829C2393.32 482.149 2377.73 475.657 2363.02 467.478C2351.79 461.277 2342.38 452.225 2335.76 441.235C2329.46 429.335 2326.42 415.986 2326.92 402.534C2326.28 383.244 2331.63 364.23 2342.24 348.107C2352.59 333.269 2366.9 321.645 2383.55 314.562C2401.43 306.846 2420.74 302.967 2440.22 303.177C2454.29 303.1 2468.3 304.816 2481.93 308.282C2494.82 311.531 2507.41 315.869 2519.56 321.251C2531.25 326.356 2541.67 331.462 2550.91 336.823L2519.77 395.335Z" fill="white"/>
</g>
<defs>
<clipPath id="clip0_3_138">
<rect width="2560" height="917.291" fill="white"/>
</clipPath>
</defs>
</svg>
