<svg width="2560" height="918" viewBox="0 0 2560 918" fill="none" xmlns="http://www.w3.org/2000/svg">
<g clip-path="url(#clip0_1_74)">
<path d="M917.291 458.646C917.291 367.934 890.392 279.26 839.995 203.836C789.599 128.412 717.968 69.6263 634.162 34.9125C550.355 0.198685 458.137 -8.88404 369.168 8.81289C280.2 26.5098 198.477 70.1916 134.334 134.334C70.1916 198.477 26.5099 280.2 8.81295 369.168C-8.88399 458.137 0.198738 550.355 34.9125 634.162C69.6263 717.968 128.412 789.599 203.836 839.995C279.26 890.392 367.934 917.291 458.646 917.291C580.286 917.291 696.944 868.97 782.957 782.957C868.97 696.944 917.291 580.286 917.291 458.646Z" fill="white"/>
<path d="M768.153 435.772C758.44 428.418 748.333 421.6 737.876 415.349C733.359 412.532 729.164 409.227 725.367 405.495C717.555 397.734 704.536 384.255 700.247 375.933C697.541 370.827 698.664 361.024 700.757 351.936C704.462 335.907 701.692 319.064 693.048 305.066L679.467 283.009C673.203 272.929 668.18 262.128 664.507 250.843C659.81 236.336 651.622 223.205 640.663 212.602C618.607 191.004 557.389 180.385 506.588 178.7C503.436 177.759 500.23 177.009 496.989 176.453C474.371 172.573 450.272 166.242 428.572 170.377C396.406 176.402 363.934 186.46 339.631 211.223C334.525 216.329 327.122 218.626 321.863 223.375C311.397 232.82 297.305 232.82 288.063 243.287C282.6 249.363 280.099 269.326 265.854 276.933C242.265 289.545 225.008 303.483 219.136 310.58C214.797 315.941 211.478 322.17 207.24 327.633C203.002 333.096 182.682 342.695 176.606 348.618C172.097 353.613 168.825 359.598 167.051 366.089C165.278 372.58 165.053 379.397 166.394 385.991C166.752 387.574 167.007 388.85 167.211 389.872C169.56 398.551 175.84 414.226 174.41 421.425C172.726 429.951 150.771 493.466 199.939 510.366C204.438 511.713 208.384 514.469 211.197 518.229C214.01 521.989 215.541 526.553 215.562 531.249C216.624 539.726 219.073 547.972 222.813 555.654C226.08 561.878 230.899 567.154 236.802 570.971C243.098 576.958 249.047 583.299 254.621 589.964C271.98 622.079 267.13 638.162 300.572 649.037C309.119 651.856 317.322 655.623 325.029 660.27C334.422 665.936 344.491 670.396 354.999 673.545L356.327 674.004C363.747 656.134 371.201 639.217 378.69 623.253C318.8 561.985 334.525 493.109 340.295 474.728C340.461 474.183 340.762 473.688 341.168 473.289C341.575 472.889 342.074 472.598 342.622 472.441C343.17 472.283 343.749 472.266 344.305 472.389C344.862 472.512 345.379 472.772 345.809 473.146C358.369 484.174 396.611 523.845 392.118 595.683C405.342 569.286 418.157 546.106 429.9 526.296C415.765 503.078 408.217 476.451 408.064 449.269C407.911 422.088 415.16 395.377 429.032 372.002C429.338 371.505 429.767 371.096 430.276 370.812C430.785 370.528 431.359 370.379 431.942 370.379C432.525 370.379 433.099 370.528 433.608 370.812C434.118 371.096 434.546 371.505 434.852 372.002C443.685 385.072 467.58 428.164 452.774 489.433C463.547 472.992 472.226 460.841 477.945 453.233C493.262 351.119 570.46 317.626 590.73 310.529C591.274 310.337 591.857 310.285 592.426 310.378C592.996 310.472 593.532 310.708 593.986 311.065C594.439 311.422 594.795 311.887 595.02 312.418C595.245 312.95 595.332 313.529 595.274 314.103C592.121 345.179 580.82 374.872 562.513 400.18C544.207 425.489 519.543 445.516 491.015 458.237C480.242 472.38 469.878 487.288 459.972 502.555C494.181 475.852 542.123 463.292 581.948 472.941C582.509 473.064 583.031 473.327 583.464 473.704C583.897 474.082 584.228 474.563 584.426 475.102C584.625 475.641 584.684 476.222 584.599 476.79C584.514 477.358 584.287 477.896 583.939 478.354C572.502 493.671 526.959 544.728 440.979 532.934C426.479 557.39 413.204 582.101 401.41 605.792C438.477 577.762 492.598 567.04 534.567 581.131C535.127 581.312 535.634 581.63 536.04 582.056C536.446 582.483 536.738 583.005 536.89 583.573C537.043 584.142 537.05 584.74 536.912 585.312C536.773 585.885 536.494 586.413 536.099 586.85C523.079 600.89 472.89 646.944 390.331 628.665C382.57 645.004 371.031 671.911 365.415 685.186C363.475 689.781 361.688 694.376 360.309 699.073C356.684 709.897 351.732 723.427 345.86 736.906C345.045 738.834 344.633 740.907 344.65 743C344.667 745.093 345.112 747.16 345.959 749.073C346.806 750.987 348.036 752.707 349.573 754.127C351.11 755.547 352.922 756.637 354.897 757.329C420.015 780.602 490.727 783.223 557.389 764.835C559.592 764.205 561.625 763.089 563.34 761.569C565.054 760.049 566.405 758.164 567.294 756.053C568.673 752.785 570.051 749.62 570.051 749.62C570.051 749.62 598.848 682.786 603.085 653.632C604.295 644.45 607.149 635.56 611.51 627.389C613.757 623.302 617.008 619.854 620.956 617.371C624.904 614.887 629.42 613.45 634.077 613.195C656.032 612.021 702.749 608.957 719.751 603.545C742.318 596.397 732.566 555.245 731.341 550.803C730.115 546.362 742.216 536.048 744.667 530.074C747.117 524.101 738.591 521.956 735.068 515.37C731.545 508.784 743.799 503.984 745.535 498.01C747.271 492.037 741.552 485.45 739.255 481.008C737.693 477.779 736.609 474.339 736.038 470.797C736.038 470.797 752.58 458.697 761.311 451.089C770.042 443.482 768.51 437.15 768.459 435.772" fill="#00CFFF"/>
<path d="M1375.48 612.174V429.237L1309.1 562.444H1270.15L1203.77 429.237V612.174H1133.31V305.117H1210.31L1289.85 465.589L1369.81 305.117H1446.4V612.174H1375.48Z" fill="white"/>
<path d="M1764.28 549.884V612.174H1548.51V305.117H1760.4V367.406H1619.43V427.092H1740.48V484.582H1619.43V549.884H1764.28Z" fill="white"/>
<path d="M2084.61 367.406H1991.33V612.174H1920.41V367.406H1826.57V305.117H2084.61V367.406Z" fill="white"/>
<path d="M2162.57 612.174V305.117H2233.49V612.174H2162.57Z" fill="white"/>
<path d="M2519.77 395.335C2517.19 392.532 2514.11 390.244 2510.68 388.595C2504.38 384.995 2497.89 381.756 2491.23 378.894C2482.95 375.255 2474.41 372.217 2465.7 369.806C2456.68 367.242 2447.35 365.936 2437.97 365.926C2428.22 365.355 2418.49 367.512 2409.89 372.155C2406.61 374.104 2403.93 376.914 2402.13 380.279C2400.33 383.645 2399.48 387.439 2399.68 391.25C2399.56 394.37 2400.18 397.475 2401.49 400.307C2402.81 403.139 2404.77 405.618 2407.24 407.537C2413.84 412.332 2421.23 415.911 2429.09 418.106C2438.59 421.118 2450.28 424.59 2464.11 428.624C2481.74 433.054 2498.85 439.317 2515.17 447.311C2528.46 453.646 2539.87 463.343 2548.26 475.443C2556.48 489.145 2560.46 504.975 2559.69 520.935C2560.16 536.029 2556.9 551.004 2550.2 564.538C2544.17 576.079 2535.4 585.966 2524.67 593.334C2513.39 600.821 2500.85 606.201 2487.65 609.213C2473.64 612.571 2459.28 614.285 2444.87 614.318C2429.44 614.276 2414.06 612.771 2398.92 609.825C2383.49 606.873 2368.36 602.515 2353.73 596.806C2339.77 591.463 2326.43 584.615 2313.96 576.383L2345 514.451C2348.43 517.553 2352.22 520.244 2356.28 522.467C2363.87 526.991 2371.73 531.032 2379.82 534.567C2389.98 539.03 2400.46 542.717 2411.17 545.596C2422.58 548.742 2434.36 550.339 2446.19 550.344C2456 550.998 2465.8 548.949 2474.53 544.421C2477.41 542.785 2479.79 540.405 2481.44 537.53C2483.08 534.656 2483.92 531.394 2483.87 528.083C2483.99 524.491 2483.15 520.933 2481.44 517.768C2479.74 514.604 2477.23 511.945 2474.17 510.06C2465.96 504.974 2457.07 501.057 2447.78 498.419C2436.71 495.015 2423.95 491.152 2409.48 486.829C2393.32 482.149 2377.73 475.657 2363.02 467.478C2351.79 461.277 2342.38 452.225 2335.76 441.235C2329.46 429.335 2326.42 415.986 2326.92 402.534C2326.28 383.245 2331.63 364.23 2342.24 348.107C2352.59 333.27 2366.9 321.645 2383.55 314.562C2401.43 306.846 2420.74 302.967 2440.22 303.177C2454.29 303.1 2468.3 304.816 2481.93 308.282C2494.82 311.531 2507.41 315.87 2519.56 321.251C2531.25 326.357 2541.67 331.462 2550.91 336.823L2519.77 395.335Z" fill="white"/>
</g>
<defs>
<clipPath id="clip0_1_74">
<rect width="2560" height="917.291" fill="white"/>
</clipPath>
</defs>
</svg>
