<svg width="2214" height="2560" viewBox="0 0 2214 2560" fill="none" xmlns="http://www.w3.org/2000/svg">
<g clip-path="url(#clip0_1_66)">
<path d="M2026.2 919.308C2026.2 737.486 1972.29 559.747 1871.27 408.568C1770.26 257.388 1626.68 139.558 1458.7 69.9781C1290.72 0.397862 1105.87 -17.8075 927.546 17.6642C749.218 53.1358 585.413 140.691 456.845 269.259C328.278 397.826 240.722 561.631 205.251 739.96C169.779 918.288 187.984 1103.13 257.565 1271.11C327.145 1439.09 444.975 1582.67 596.154 1683.68C747.334 1784.7 925.072 1838.62 1106.89 1838.62C1227.62 1838.63 1347.17 1814.86 1458.71 1768.66C1570.26 1722.47 1671.6 1654.75 1756.97 1569.39C1842.34 1484.02 1910.06 1382.67 1956.25 1271.13C2002.45 1159.59 2026.22 1040.04 2026.2 919.308Z" fill="white"/>
<path d="M1710.59 873.358C1691.11 858.627 1670.86 844.962 1649.9 832.422C1640.87 826.706 1632.47 820.051 1624.83 812.568C1609.17 797.115 1583.08 769.996 1574.58 753.314C1569.06 743.08 1571.31 723.534 1575.61 705.215C1582.95 673.105 1577.36 639.394 1560.05 611.371L1532.83 566.956C1520.27 546.75 1510.21 525.102 1502.84 502.483C1493.41 473.438 1477.04 447.129 1455.15 425.831C1410.84 382.542 1288.14 361.358 1186.31 357.878C1180.01 356.042 1173.63 354.539 1167.17 353.375C1121.73 345.597 1073.43 332.907 1029.94 341.299C965.565 353.273 900.375 373.434 851.765 423.17C841.531 433.404 826.589 438.009 816.048 447.527C795.069 466.459 766.926 466.459 748.3 487.439C737.35 499.719 732.335 539.631 703.783 554.88C656.503 580.26 621.912 608.096 610.143 622.321C601.444 633.066 594.792 645.552 586.401 656.502C578.009 667.452 537.073 687.204 524.997 698.563C515.968 708.581 509.413 720.576 505.858 733.586C502.303 746.596 501.848 760.258 504.53 773.475C505.246 776.648 505.758 779.206 506.167 781.253C510.875 798.65 523.564 830.068 520.597 844.498C517.219 861.589 473.214 988.898 571.766 1022.87C580.758 1025.58 588.648 1031.09 594.282 1038.61C599.916 1046.12 603 1055.24 603.081 1064.63C605.094 1081.63 609.973 1098.17 617.511 1113.55C624.06 1126.02 633.719 1136.6 645.552 1144.25C658.177 1156.28 670.101 1169.02 681.268 1182.42C716.063 1246.79 706.341 1278.93 773.373 1300.83C790.483 1306.48 806.921 1314 822.393 1323.24C841.221 1334.59 861.404 1343.53 882.466 1349.85L885.127 1350.77C899.966 1315.05 914.907 1281.07 929.951 1249.14C891.141 1211.27 863.448 1163.49 849.881 1110.99C836.313 1058.49 837.389 1003.27 852.993 951.34C853.319 950.229 853.922 949.218 854.744 948.403C855.566 947.588 856.582 946.994 857.695 946.678C858.809 946.361 859.985 946.331 861.113 946.592C862.241 946.852 863.285 947.394 864.147 948.167C889.323 970.272 965.872 1049.89 956.866 1193.78C983.372 1140.87 1009.06 1094.31 1032.6 1054.6C1004.17 1008.12 988.936 954.775 988.522 900.292C988.107 845.809 1002.53 792.241 1030.24 745.332C1030.88 744.361 1031.74 743.562 1032.76 743.01C1033.78 742.457 1034.92 742.168 1036.08 742.168C1037.24 742.168 1038.38 742.457 1039.39 743.01C1040.41 743.562 1041.28 744.361 1041.91 745.332C1059.61 771.531 1107.51 857.904 1077.83 981.222C1099.42 948.269 1116.92 923.913 1128.28 908.664C1158.98 703.987 1313.72 636.955 1354.35 622.73C1355.44 622.327 1356.61 622.207 1357.75 622.379C1358.9 622.552 1359.98 623.013 1360.9 623.718C1361.82 624.423 1362.55 625.351 1363.01 626.413C1363.48 627.475 1363.67 628.637 1363.56 629.792C1357.2 692.082 1334.52 751.592 1297.81 802.316C1261.1 853.04 1211.66 893.183 1154.48 918.694C1132.89 947.041 1112.22 976.924 1092.36 1007.63C1160.83 954 1256.92 928.825 1336.75 948.167C1337.87 948.43 1338.92 948.969 1339.78 949.736C1340.65 950.503 1341.31 951.475 1341.71 952.562C1342.1 953.649 1342.22 954.817 1342.05 955.962C1341.88 957.107 1341.43 958.191 1340.74 959.117C1317.81 989.819 1226.53 1092.16 1054.19 1068.41C1025.23 1117.44 998.518 1167.07 974.98 1214.45C1049.18 1158.37 1157.65 1136.78 1241.78 1165.12C1242.9 1165.47 1243.92 1166.1 1244.73 1166.94C1245.55 1167.79 1246.14 1168.82 1246.44 1169.96C1246.75 1171.09 1246.76 1172.29 1246.48 1173.43C1246.21 1174.57 1245.64 1175.62 1244.85 1176.48C1218.75 1204.63 1118.15 1296.94 952.67 1260.3C937.115 1293.15 913.986 1346.98 902.729 1373.59C898.84 1382.8 895.259 1392.01 892.495 1401.42C885.229 1423.12 875.302 1450.24 863.533 1477.36C861.899 1481.22 861.073 1485.38 861.107 1489.57C861.142 1493.77 862.035 1497.91 863.732 1501.75C865.43 1505.58 867.895 1509.03 870.976 1511.88C874.057 1514.72 877.689 1516.91 881.647 1518.3C1012.17 1564.94 1153.9 1570.2 1287.52 1533.34C1291.94 1532.08 1296.01 1529.84 1299.45 1526.79C1302.88 1523.75 1305.59 1519.97 1307.38 1515.74C1310.14 1509.19 1312.9 1502.94 1312.9 1502.94C1312.9 1502.94 1370.62 1368.88 1379.12 1310.45C1381.56 1292.04 1387.28 1274.23 1396 1257.84C1400.52 1249.64 1407.06 1242.73 1414.99 1237.75C1422.92 1232.77 1431.99 1229.9 1441.34 1229.39C1485.24 1227.04 1578.88 1220.9 1612.96 1210.15C1658.29 1195.72 1638.65 1113.24 1636.19 1104.44C1633.73 1095.64 1657.99 1074.86 1663 1062.79C1668.02 1050.71 1650.72 1046.62 1643.66 1033.31C1636.6 1020.01 1661.16 1010.59 1664.64 998.518C1668.12 986.442 1656.66 973.342 1652.05 964.439C1648.9 957.972 1646.73 951.075 1645.6 943.971C1645.6 943.971 1678.76 919.717 1696.77 904.366C1714.79 889.015 1711.1 876.428 1711 873.665" fill="#00CFFF"/>
<path d="M375.787 2556.73V2272.74L273.449 2479.46H212.967L110.628 2272.74V2556.73H0V2080.13H119.429L242.952 2329.12L367.089 2080.13H485.801V2556.73H375.787Z" fill="white"/>
<path d="M979.074 2459.91V2556.73H644.222V2080.13H972.933V2176.74H754.236V2269.36H942.232V2358.6H754.236V2459.91H979.074Z" fill="white"/>
<path d="M1476.34 2176.74H1331.12V2556.73H1221.31V2176.74H1075.27V2080.13H1475.93L1476.34 2176.74Z" fill="white"/>
<path d="M1597.2 2556.73V2080.13H1707.31V2556.73H1597.2Z" fill="white"/>
<path d="M2151.36 2220.34C2147.33 2216.13 2142.58 2212.66 2137.34 2210.1C2127.55 2204.54 2117.47 2199.49 2107.15 2194.96C2094.3 2189.34 2081.07 2184.66 2067.55 2180.94C2053.57 2176.93 2039.1 2174.9 2024.57 2174.9C2009.42 2174.01 1994.33 2177.34 1980.97 2184.52C1975.95 2187.6 1971.86 2191.99 1969.14 2197.22C1966.41 2202.45 1965.16 2208.32 1965.52 2214.2C1965.34 2219.04 1966.32 2223.86 1968.37 2228.25C1970.41 2232.64 1973.47 2236.49 1977.28 2239.48C1987.52 2246.9 1998.99 2252.44 2011.16 2255.85C2025.9 2260.46 2044.01 2266.08 2065.5 2272.12C2092.84 2278.9 2119.39 2288.54 2144.71 2300.88C2165.25 2310.74 2182.88 2325.76 2195.88 2344.48C2208.59 2365.76 2214.75 2390.32 2213.58 2415.09C2214.32 2438.51 2209.26 2461.75 2198.85 2482.73C2189.47 2500.73 2175.75 2516.1 2158.94 2527.46C2141.43 2539.06 2121.99 2547.41 2101.52 2552.12C2079.76 2557.27 2057.47 2559.85 2035.11 2559.8C2011.06 2559.74 1987.07 2557.37 1963.47 2552.73C1939.5 2548.04 1916 2541.19 1893.26 2532.27C1871.7 2523.88 1851.11 2513.17 1831.86 2500.34L1880.17 2404.45C1885.5 2409.24 1891.37 2413.4 1897.66 2416.83C1909.44 2423.86 1921.64 2430.15 1934.2 2435.66C1949.99 2442.56 1966.27 2448.27 1982.91 2452.75C2000.61 2457.65 2018.89 2460.13 2037.25 2460.12C2052.46 2461.14 2067.65 2457.95 2081.16 2450.91C2085.64 2448.33 2089.35 2444.6 2091.89 2440.1C2094.43 2435.59 2095.7 2430.49 2095.59 2425.32C2095.77 2419.74 2094.48 2414.2 2091.84 2409.28C2089.19 2404.36 2085.3 2400.22 2080.54 2397.28C2067.79 2389.43 2054.01 2383.37 2039.61 2379.27C2022.31 2373.95 2002.56 2367.91 1980.15 2361.26C1955.21 2353.98 1931.17 2343.89 1908.51 2331.17C1891.06 2321.49 1876.48 2307.37 1866.25 2290.24C1856.54 2271.74 1851.82 2251.04 1852.53 2230.16C1851.51 2200.23 1859.85 2170.71 1876.38 2145.73C1892.4 2122.68 1914.6 2104.62 1940.44 2093.64C1968.19 2081.66 1998.13 2075.63 2028.35 2075.94C2050.2 2075.86 2071.97 2078.58 2093.13 2084.02C2113.12 2089.19 2132.63 2096.03 2151.46 2104.49C2169.54 2112.47 2185.78 2120.52 2200.18 2128.64L2151.36 2220.34Z" fill="white"/>
</g>
<defs>
<clipPath id="clip0_1_66">
<rect width="2213.89" height="2560" fill="white"/>
</clipPath>
</defs>
</svg>
