<svg width="2214" height="2560" viewBox="0 0 2214 2560" fill="none" xmlns="http://www.w3.org/2000/svg">
<g clip-path="url(#clip0_1_42)">
<path d="M2026.2 919.308C2026.22 737.481 1972.32 559.733 1871.32 408.54C1770.32 257.347 1626.75 139.501 1458.77 69.9052C1290.79 0.30925 1105.94 -17.9107 927.609 17.5494C749.274 53.0095 585.46 140.557 456.882 269.12C328.304 397.684 240.739 561.489 205.259 739.82C169.779 918.151 187.978 1103 257.555 1270.99C327.133 1438.97 444.962 1582.56 596.144 1683.57C747.326 1784.59 925.068 1838.51 1106.89 1838.51C1227.61 1838.53 1347.16 1814.76 1458.69 1768.57C1570.23 1722.38 1671.57 1654.68 1756.94 1569.32C1842.3 1483.96 1910.02 1382.63 1956.22 1271.1C2002.42 1159.57 2026.2 1040.03 2026.2 919.308Z" fill="#00CFFF"/>
<path d="M1710.69 873.358C1691.22 858.627 1670.96 844.962 1650.01 832.422C1640.97 826.706 1632.57 820.051 1624.93 812.568C1609.27 797.115 1583.18 769.996 1574.58 753.314C1569.16 743.08 1571.41 723.534 1575.71 705.215C1583.05 673.105 1577.46 639.394 1560.15 611.371L1532.93 566.956C1520.38 546.75 1510.31 525.102 1502.94 502.483C1493.51 473.438 1477.14 447.129 1455.25 425.831C1410.94 382.542 1288.24 361.358 1186.41 357.878C1180.12 356.042 1173.73 354.539 1167.27 353.375C1121.84 345.597 1073.53 332.907 1030.04 341.299C965.667 353.273 900.478 373.434 851.867 423.17C841.633 433.404 826.692 438.009 816.151 447.527C795.171 466.459 767.028 466.459 748.402 487.439C737.452 499.719 732.437 539.631 703.885 554.88C656.604 580.26 622.014 608.096 610.245 622.321C601.546 633.066 594.895 645.552 586.503 656.502C578.111 667.452 537.176 687.204 525.1 698.563C516.07 708.581 509.514 720.576 505.96 733.586C502.405 746.596 501.951 760.258 504.632 773.475C505.348 776.648 505.86 779.206 506.269 781.253C510.977 798.65 523.666 830.068 520.699 844.498C517.321 861.589 473.316 988.898 571.868 1022.87C580.86 1025.58 588.75 1031.09 594.384 1038.61C600.019 1046.12 603.102 1055.24 603.184 1064.63C605.196 1081.63 610.075 1098.17 617.614 1113.55C624.163 1126.02 633.821 1136.6 645.654 1144.25C658.278 1156.28 670.203 1169.02 681.37 1182.42C716.165 1246.79 706.443 1278.93 773.475 1300.83C790.585 1306.48 807.023 1314 822.496 1323.24C841.323 1334.59 861.506 1343.53 882.568 1349.85L885.229 1350.77C900.068 1315.05 915.009 1281.07 930.053 1249.14C810.01 1126.34 841.531 988.284 853.095 951.34C853.421 950.229 854.024 949.218 854.846 948.403C855.669 947.588 856.684 946.994 857.798 946.678C858.911 946.361 860.087 946.331 861.215 946.592C862.343 946.852 863.387 947.394 864.249 948.167C889.425 970.272 965.974 1049.89 956.968 1193.78C983.474 1140.87 1009.16 1094.31 1032.7 1054.6C1004.37 1008.06 989.238 954.689 988.931 900.207C988.625 845.724 1003.15 792.186 1030.96 745.332C1031.59 744.361 1032.46 743.562 1033.47 743.01C1034.49 742.457 1035.63 742.168 1036.79 742.168C1037.95 742.168 1039.09 742.457 1040.11 743.01C1041.13 743.562 1041.99 744.361 1042.63 745.332C1060.33 771.531 1108.22 857.904 1078.55 981.222C1100.14 948.269 1117.54 923.913 1129 908.664C1159.7 703.987 1314.44 636.955 1355.07 622.73C1356.15 622.327 1357.32 622.207 1358.47 622.379C1359.62 622.552 1360.7 623.013 1361.62 623.718C1362.54 624.423 1363.27 625.351 1363.73 626.413C1364.2 627.475 1364.38 628.637 1364.28 629.792C1357.92 692.082 1335.24 751.592 1298.53 802.316C1261.82 853.04 1212.38 893.183 1155.2 918.694C1133.6 947.041 1112.83 976.924 1093.08 1007.63C1161.54 954 1257.64 928.825 1337.46 948.167C1338.59 948.43 1339.63 948.969 1340.5 949.736C1341.37 950.503 1342.03 951.475 1342.42 952.562C1342.82 953.649 1342.94 954.817 1342.77 955.962C1342.6 957.107 1342.15 958.191 1341.45 959.117C1318.53 989.819 1227.24 1092.16 1054.91 1068.41C1025.94 1117.44 999.234 1167.07 975.594 1214.45C1049.89 1158.37 1158.37 1136.78 1242.49 1165.12C1243.62 1165.47 1244.63 1166.1 1245.45 1166.94C1246.26 1167.79 1246.85 1168.82 1247.16 1169.96C1247.46 1171.09 1247.48 1172.29 1247.2 1173.43C1246.92 1174.57 1246.36 1175.62 1245.56 1176.48C1219.47 1204.63 1118.87 1296.94 953.386 1260.3C937.831 1293.15 914.702 1346.98 903.445 1373.59C899.556 1382.8 895.974 1392.01 893.211 1401.42C885.945 1423.12 876.018 1450.24 864.249 1477.36C862.615 1481.22 861.789 1485.38 861.823 1489.57C861.857 1493.77 862.751 1497.91 864.449 1501.75C866.146 1505.58 868.611 1509.03 871.692 1511.88C874.774 1514.72 878.405 1516.91 882.363 1518.3C1012.89 1564.94 1154.62 1570.2 1288.24 1533.34C1292.65 1532.08 1296.73 1529.84 1300.16 1526.79C1303.6 1523.75 1306.31 1519.97 1308.09 1515.74C1310.85 1509.19 1313.62 1502.94 1313.62 1502.94C1313.62 1502.94 1371.34 1368.88 1379.83 1310.45C1382.27 1292.04 1387.99 1274.23 1396.72 1257.84C1401.22 1249.65 1407.74 1242.74 1415.65 1237.76C1423.56 1232.79 1432.62 1229.91 1441.95 1229.39C1485.96 1227.04 1579.6 1220.9 1613.68 1210.15C1659.01 1195.72 1639.36 1113.24 1636.91 1104.44C1634.45 1095.64 1658.7 1074.86 1663.72 1062.79C1668.73 1050.71 1651.44 1046.62 1644.38 1033.31C1637.32 1020.01 1661.88 1010.59 1664.84 998.518C1667.81 986.442 1656.86 973.342 1652.26 964.439C1649.11 957.972 1646.94 951.075 1645.81 943.971C1645.81 943.971 1678.97 919.717 1696.98 904.366C1714.99 889.015 1711.31 876.428 1711.2 873.665" fill="black"/>
<path d="M375.787 2556.73V2272.74L273.449 2479.46H212.967L110.628 2272.74V2556.73H0.000274658V2080.13H119.429L242.952 2329.12L367.089 2080.13H485.801V2556.73H375.787Z" fill="black"/>
<path d="M979.073 2459.91V2556.73H644.221V2080.13H973.035V2176.74H754.235V2269.36H942.129V2358.6H754.235V2459.91H979.073Z" fill="black"/>
<path d="M1476.34 2176.74H1331.32V2556.73H1221.31V2176.74H1076.19V2080.13H1476.34V2176.74Z" fill="black"/>
<path d="M1597.1 2556.73V2080.13H1707.21V2556.73H1597.1Z" fill="black"/>
<path d="M2151.36 2220.34C2147.33 2216.13 2142.58 2212.66 2137.34 2210.1C2127.38 2204.53 2117.13 2199.47 2106.64 2194.96C2093.79 2189.34 2080.55 2184.66 2067.03 2180.94C2053.06 2176.93 2038.59 2174.9 2024.05 2174.9C2008.91 2174.01 1993.82 2177.34 1980.46 2184.52C1975.43 2187.6 1971.35 2191.99 1968.62 2197.22C1965.9 2202.45 1964.65 2208.32 1965 2214.2C1964.83 2219.04 1965.81 2223.86 1967.85 2228.25C1969.9 2232.64 1972.95 2236.49 1976.77 2239.48C1987 2246.9 1998.47 2252.44 2010.65 2255.85C2025.38 2260.46 2043.5 2266.08 2064.99 2272.12C2092.34 2278.99 2118.89 2288.74 2144.2 2301.19C2164.77 2311 2182.41 2326.03 2195.37 2344.78C2208.16 2366.04 2214.36 2390.61 2213.17 2415.4C2213.91 2438.81 2208.85 2462.05 2198.44 2483.04C2189.06 2501.03 2175.34 2516.4 2158.53 2527.76C2141.02 2539.36 2121.58 2547.72 2101.11 2552.43C2079.35 2557.58 2057.06 2560.15 2034.7 2560.1C2010.65 2560.04 1986.66 2557.68 1963.06 2553.04C1939.09 2548.35 1915.59 2541.5 1892.86 2532.57C1871.29 2524.19 1850.7 2513.48 1831.45 2500.64L1879.76 2404.75C1885.09 2409.55 1890.96 2413.7 1897.26 2417.14C1909.03 2424.17 1921.23 2430.46 1933.79 2435.97C1949.58 2442.87 1965.86 2448.58 1982.5 2453.06C2000.2 2457.95 2018.48 2460.43 2036.85 2460.42C2052.05 2461.44 2067.24 2458.26 2080.75 2451.21C2085.23 2448.64 2088.94 2444.91 2091.48 2440.4C2094.02 2435.9 2095.29 2430.8 2095.18 2425.63C2095.36 2420.04 2094.07 2414.51 2091.43 2409.59C2088.78 2404.66 2084.89 2400.52 2080.13 2397.59C2067.38 2389.74 2053.6 2383.68 2039.2 2379.58C2021.9 2374.26 2002.15 2368.22 1979.74 2361.57C1954.8 2354.29 1930.76 2344.2 1908.1 2331.48C1890.65 2321.8 1876.07 2307.68 1865.84 2290.54C1856.14 2272.05 1851.41 2251.34 1852.12 2230.47C1851.1 2200.53 1859.44 2171.02 1875.97 2146.04C1891.99 2122.99 1914.2 2104.93 1940.03 2093.95C1967.78 2081.97 1997.72 2075.94 2027.94 2076.25C2049.79 2076.17 2071.56 2078.89 2092.72 2084.33C2112.71 2089.49 2132.22 2096.34 2151.06 2104.8C2169.14 2112.78 2185.37 2120.83 2199.77 2128.95L2151.36 2220.34Z" fill="black"/>
</g>
<defs>
<clipPath id="clip0_1_42">
<rect width="2213.89" height="2560" fill="white"/>
</clipPath>
</defs>
</svg>
