<svg width="2214" height="2560" viewBox="0 0 2214 2560" fill="none" xmlns="http://www.w3.org/2000/svg">
<g clip-path="url(#clip0_1_58)">
<path d="M2026.2 919.308C2026.2 737.482 1972.28 559.739 1871.26 408.558C1770.24 257.376 1626.66 139.546 1458.67 69.9688C1290.69 0.391579 1105.84 -17.8079 927.509 17.672C749.178 53.152 585.373 140.718 456.81 269.295C328.247 397.873 240.699 561.687 205.239 740.022C169.778 918.357 187.999 1103.2 257.595 1271.18C327.191 1439.16 445.036 1582.73 596.229 1683.73C747.422 1784.74 925.171 1838.64 1107 1838.62C1227.72 1838.62 1347.26 1814.84 1458.79 1768.64C1570.31 1722.43 1671.65 1654.72 1757.01 1569.35C1842.37 1483.98 1910.07 1382.64 1956.26 1271.1C2002.45 1159.57 2026.22 1040.03 2026.2 919.308Z" fill="black"/>
<path d="M1710.28 873.153C1690.77 858.43 1670.47 844.765 1649.49 832.217C1640.49 826.5 1632.12 819.845 1624.52 812.364C1608.76 796.808 1582.67 769.791 1574.17 753.11C1568.75 742.876 1571 723.227 1575.2 705.01C1582.53 672.912 1576.98 639.219 1559.74 611.166L1532.52 566.751C1519.97 546.526 1509.88 524.884 1502.43 502.278C1493.04 473.214 1476.67 446.895 1454.74 425.626C1410.43 382.337 1287.83 361.05 1185.9 357.673C1179.61 355.825 1173.22 354.322 1166.76 353.17C1121.43 345.393 1073.02 332.703 1029.63 341.094C965.155 353.068 899.966 373.229 851.355 422.965C841.121 433.199 826.282 437.804 815.639 447.322C795.171 466.255 766.516 466.254 747.891 487.234C737.043 499.412 732.028 539.427 703.373 554.675C656.195 580.055 621.502 607.891 609.734 622.116C601.137 632.861 594.383 645.347 585.991 656.297C577.599 667.247 536.766 686.487 524.588 698.358C515.53 708.358 508.957 720.352 505.4 733.368C501.844 746.383 501.406 760.054 504.12 773.27C504.734 776.443 505.348 779.001 505.757 781.048C510.362 798.446 523.053 829.863 520.085 844.293C516.708 861.384 472.804 988.693 571.254 1022.57C580.254 1025.29 588.147 1030.83 593.781 1038.36C599.414 1045.89 602.494 1055.02 602.57 1064.42C604.633 1081.43 609.546 1097.97 617.102 1113.34C623.622 1125.81 633.244 1136.38 645.04 1144.04C657.669 1156.1 669.626 1168.85 680.858 1182.22C715.653 1246.59 705.829 1278.72 772.452 1300.52C789.588 1306.23 806.058 1313.78 821.574 1323.03C840.392 1334.41 860.578 1343.35 881.647 1349.64L884.206 1350.56C899.045 1314.74 914.088 1280.87 929.029 1248.94C890.286 1211.02 862.64 1163.24 849.076 1110.76C835.513 1058.27 836.549 1003.07 852.071 951.135C852.42 950.041 853.034 949.05 853.859 948.251C854.684 947.452 855.693 946.87 856.797 946.556C857.902 946.241 859.067 946.206 860.188 946.451C861.31 946.697 862.353 947.216 863.226 947.962C888.401 970.067 964.95 1049.58 955.945 1193.57C982.45 1140.77 1008.24 1094.2 1031.78 1054.5C1003.45 1007.96 988.317 954.587 988.01 900.105C987.704 845.622 1002.23 792.083 1030.04 745.229C1030.67 744.258 1031.53 743.46 1032.55 742.907C1033.57 742.355 1034.71 742.065 1035.87 742.065C1037.03 742.065 1038.17 742.355 1039.19 742.907C1040.21 743.46 1041.07 744.258 1041.7 745.229C1059.31 771.428 1107.3 857.802 1077.63 980.608C1099.12 947.655 1116.62 923.298 1128.08 908.05C1158.78 703.373 1313.52 636.341 1354.14 622.116C1355.23 621.735 1356.39 621.632 1357.52 621.815C1358.65 621.998 1359.72 622.462 1360.62 623.165C1361.53 623.867 1362.24 624.786 1362.7 625.836C1363.16 626.886 1363.35 628.035 1363.25 629.177C1356.9 691.47 1334.23 750.985 1297.52 801.711C1260.81 852.437 1211.36 892.578 1154.17 918.079C1132.68 946.427 1111.91 976.31 1092.06 1006.91C1160.62 953.386 1256.62 928.211 1336.44 947.553C1337.58 947.802 1338.63 948.332 1339.51 949.093C1340.39 949.855 1341.06 950.825 1341.47 951.914C1341.87 953.003 1342 954.176 1341.84 955.327C1341.68 956.478 1341.23 957.57 1340.53 958.503C1317.51 989.205 1226.32 1091.54 1053.99 1067.8C1024.92 1116.82 998.313 1166.45 974.673 1213.84C1048.87 1157.65 1157.35 1136.16 1241.57 1164.51C1242.69 1164.86 1243.71 1165.48 1244.53 1166.33C1245.34 1167.17 1245.93 1168.21 1246.24 1169.34C1246.54 1170.48 1246.56 1171.67 1246.28 1172.81C1246 1173.95 1245.44 1175.01 1244.64 1175.87C1218.44 1204.01 1117.84 1296.32 952.465 1259.69C936.91 1292.43 913.781 1346.37 902.524 1372.97C898.635 1382.19 895.053 1391.4 892.29 1400.81C884.922 1422.51 875.097 1449.63 863.328 1476.64C861.691 1480.5 860.861 1484.65 860.888 1488.84C860.916 1493.03 861.801 1497.17 863.488 1501C865.175 1504.84 867.629 1508.29 870.699 1511.14C873.77 1513.99 877.391 1516.18 881.34 1517.58C1011.9 1564.23 1153.66 1569.48 1287.32 1532.62C1291.73 1531.36 1295.81 1529.12 1299.24 1526.08C1302.68 1523.03 1305.39 1519.25 1307.17 1515.02L1312.7 1502.13C1312.7 1502.13 1370.42 1368.16 1378.91 1309.73C1381.35 1291.33 1387.07 1273.51 1395.8 1257.13C1400.29 1248.93 1406.81 1242.01 1414.72 1237.03C1422.64 1232.06 1431.69 1229.18 1441.03 1228.68C1485.04 1226.32 1578.67 1220.18 1612.75 1209.44C1657.99 1195.01 1638.34 1112.52 1635.98 1103.62C1633.63 1094.72 1657.68 1074.15 1662.69 1062.07C1667.71 1049.99 1650.41 1045.9 1643.46 1032.6C1636.5 1019.29 1660.85 1009.88 1663.92 997.801C1666.99 985.725 1656.04 972.626 1651.34 963.722C1648.19 957.254 1646.02 950.357 1644.89 943.254C1644.89 943.254 1678.05 919 1696.06 903.752C1714.07 888.503 1710.39 875.813 1710.39 873.05" fill="#00CFFF"/>
<path d="M375.787 2556.73V2272.84L273.448 2479.46H213.069L110.73 2272.84V2556.73H0V2080.75H119.429L242.952 2329.74L367.088 2080.75H485.903V2557.24L375.787 2556.73Z" fill="white"/>
<path d="M979.073 2460.02V2556.73H644.222V2080.75H973.445V2177.36H754.338V2269.97H942.743V2359.21H754.338V2460.53L979.073 2460.02Z" fill="white"/>
<path d="M1476.34 2176.84H1331.63V2556.73H1221.41V2176.84H1075.78V2080.75H1476.34V2176.84Z" fill="white"/>
<path d="M1597.71 2556.73V2080.75H1707.21V2557.24L1597.71 2556.73Z" fill="white"/>
<path d="M2151.46 2220.44C2147.44 2216.18 2142.65 2212.7 2137.34 2210.21C2127.39 2204.61 2117.14 2199.55 2106.64 2195.06C2093.77 2189.46 2080.54 2184.74 2067.03 2180.94C2053.08 2176.98 2038.66 2174.95 2024.15 2174.9C2008.97 2174.06 1993.85 2177.42 1980.46 2184.62C1975.72 2187.8 1971.91 2192.17 1969.39 2197.29C1966.88 2202.41 1965.75 2208.1 1966.13 2213.79C1965.94 2218.62 1966.9 2223.43 1968.93 2227.83C1970.96 2232.22 1974 2236.07 1977.8 2239.07C1988.04 2246.47 1999.5 2252.02 2011.67 2255.44C2026.54 2260.01 2044.69 2265.44 2066.11 2271.71C2093.42 2278.58 2119.93 2288.29 2145.22 2300.67C2165.79 2310.54 2183.43 2325.6 2196.39 2344.37C2209.18 2365.63 2215.38 2390.2 2214.2 2414.99C2214.94 2438.4 2209.87 2461.64 2199.46 2482.63C2189.98 2500.59 2176.24 2515.94 2159.45 2527.35C2142 2538.96 2122.58 2547.29 2102.14 2551.92C2080.34 2557.06 2058.01 2559.64 2035.62 2559.59C2011.57 2559.52 1987.59 2557.19 1963.98 2552.63C1940.04 2547.94 1916.58 2541.09 1893.88 2532.16C1872.29 2523.82 1851.7 2513.11 1832.47 2500.23L1880.78 2404.34C1886.04 2409.18 1891.89 2413.34 1898.18 2416.73C1909.99 2423.76 1922.22 2430.05 1934.81 2435.56C1950.57 2442.46 1966.82 2448.17 1983.42 2452.65C2001.13 2457.53 2019.4 2460.01 2037.77 2460.02C2053 2461.03 2068.22 2457.85 2081.77 2450.8C2086.25 2448.23 2089.96 2444.5 2092.5 2439.99C2095.04 2435.49 2096.32 2430.39 2096.2 2425.22C2096.36 2419.63 2095.05 2414.09 2092.39 2409.17C2089.73 2404.24 2085.82 2400.11 2081.05 2397.18C2068.31 2389.31 2054.53 2383.25 2040.12 2379.17C2022.93 2373.85 2003.07 2367.81 1980.76 2361.16C1955.82 2353.88 1931.78 2343.79 1909.13 2331.07C1891.62 2321.47 1877.02 2307.33 1866.86 2290.13C1857.05 2271.67 1852.29 2250.95 1853.04 2230.06C1852.05 2200.16 1860.39 2170.69 1876.89 2145.73C1892.91 2122.68 1915.12 2104.62 1940.95 2093.64C1968.7 2081.68 1998.65 2075.65 2028.86 2075.94C2050.71 2075.86 2072.48 2078.57 2093.64 2084.02C2113.65 2089.23 2133.19 2096.08 2152.08 2104.49C2170.16 2112.54 2186.36 2120.63 2200.69 2128.75L2151.46 2220.44Z" fill="white"/>
</g>
<defs>
<clipPath id="clip0_1_58">
<rect width="2213.89" height="2560" fill="white"/>
</clipPath>
</defs>
</svg>
