<svg width="2560" height="918" viewBox="0 0 2560 918" fill="none" xmlns="http://www.w3.org/2000/svg">
<g clip-path="url(#clip0_1_18)">
<path d="M917.291 458.646C917.291 367.934 890.392 279.26 839.995 203.836C789.599 128.412 717.968 69.6262 634.162 34.9125C550.355 0.198677 458.137 -8.88405 369.168 8.81288C280.2 26.5098 198.477 70.1915 134.334 134.334C70.1916 198.477 26.5099 280.2 8.81295 369.168C-8.88399 458.137 0.198738 550.355 34.9125 634.161C69.6263 717.968 128.412 789.599 203.836 839.995C279.26 890.392 367.934 917.291 458.646 917.291C580.286 917.291 696.944 868.969 782.957 782.957C868.97 696.944 917.291 580.286 917.291 458.646Z" fill="black"/>
<path d="M768.153 435.721C758.424 428.39 748.318 421.573 737.877 415.298C733.358 412.462 729.163 409.141 725.368 405.393C717.556 397.683 704.536 384.153 700.247 375.831C697.541 370.725 698.665 360.973 700.758 351.834C704.466 335.822 701.695 318.993 693.048 305.015L679.467 282.856C673.204 272.775 668.181 261.975 664.507 250.69C659.799 236.188 651.613 223.059 640.664 212.448C618.607 190.902 557.39 180.282 506.588 178.598C503.437 177.64 500.232 176.873 496.989 176.3C474.371 172.471 450.272 166.089 428.573 170.275C396.407 176.249 363.935 186.358 339.632 211.121C334.526 216.227 327.123 218.473 321.864 223.221C311.397 232.667 297.305 232.667 288.064 243.134C282.601 249.261 280.099 269.173 265.854 276.831C242.266 289.442 225.009 303.33 219.137 310.478C214.797 315.584 211.478 322.017 207.241 327.48C203.003 332.943 182.682 342.797 176.606 348.464C172.101 353.472 168.83 359.466 167.057 365.965C165.284 372.463 165.057 379.287 166.395 385.889C166.752 387.421 167.008 388.697 167.212 389.769C169.561 398.398 175.841 414.124 174.411 421.323C172.726 429.798 150.772 493.313 199.94 510.264C204.434 511.601 208.379 514.347 211.193 518.099C214.006 521.85 215.538 526.407 215.563 531.096C216.616 539.591 219.066 547.855 222.813 555.552C226.057 561.793 230.881 567.074 236.803 570.869C243.088 576.885 249.036 583.243 254.622 589.913C271.981 622.028 267.131 638.06 300.573 648.986C309.109 651.809 317.31 655.558 325.029 660.168C334.434 665.825 344.5 670.301 355 673.493L356.327 673.902C363.731 656.083 371.185 639.132 378.69 623.202C318.8 561.934 334.526 493.058 340.295 474.626C340.457 474.077 340.755 473.577 341.163 473.175C341.571 472.773 342.075 472.482 342.627 472.329C343.179 472.175 343.761 472.165 344.317 472.299C344.874 472.433 345.388 472.707 345.81 473.095C358.37 484.072 396.611 523.794 392.118 595.631C405.342 569.235 418.157 546.055 429.9 526.245C415.767 503.017 408.219 476.382 408.066 449.193C407.914 422.003 415.161 395.285 429.032 371.899C429.348 371.415 429.779 371.017 430.287 370.741C430.796 370.465 431.365 370.321 431.943 370.321C432.521 370.321 433.09 370.465 433.598 370.741C434.106 371.017 434.538 371.415 434.853 371.899C443.686 384.97 467.581 428.062 452.774 489.331C463.547 472.941 472.227 460.79 477.945 453.131C493.262 351.017 570.46 317.575 590.73 310.478C591.27 310.288 591.848 310.236 592.413 310.328C592.977 310.419 593.51 310.651 593.962 311.001C594.414 311.352 594.771 311.81 595 312.334C595.23 312.858 595.324 313.431 595.274 314.001C592.137 345.082 580.842 374.781 562.533 400.092C544.225 425.403 519.553 445.427 491.016 458.135C480.243 472.329 469.878 487.186 459.973 502.503C494.181 475.75 542.124 463.19 581.948 472.839C582.511 472.97 583.031 473.239 583.463 473.622C583.895 474.005 584.225 474.49 584.423 475.032C584.621 475.574 584.68 476.157 584.596 476.728C584.511 477.299 584.286 477.84 583.939 478.302C572.503 493.62 526.96 544.677 440.98 532.882C426.48 557.288 413.205 582.05 401.411 605.741C438.478 577.711 492.598 566.989 534.567 581.08C535.128 581.261 535.634 581.579 536.04 582.005C536.446 582.432 536.739 582.953 536.891 583.522C537.043 584.091 537.051 584.689 536.912 585.261C536.774 585.834 536.494 586.362 536.099 586.799C523.079 600.788 472.89 646.893 390.331 628.614C382.571 644.953 371.032 671.809 365.415 685.135C363.475 689.679 361.688 694.325 360.31 699.022C356.685 709.846 351.732 723.325 345.861 736.855C345.045 738.783 344.633 740.856 344.65 742.949C344.667 745.042 345.113 747.109 345.96 749.022C346.807 750.936 348.037 752.656 349.574 754.076C351.111 755.496 352.923 756.586 354.898 757.278C420.018 780.528 490.718 783.167 557.39 764.835C559.593 764.205 561.626 763.089 563.34 761.569C565.054 760.049 566.406 758.164 567.295 756.053C568.674 752.734 570.052 749.62 570.052 749.62C570.052 749.62 598.848 682.735 603.086 653.581C604.305 644.401 607.158 635.513 611.51 627.338C613.757 623.251 617.008 619.803 620.957 617.32C624.905 614.836 629.42 613.399 634.077 613.144C656.032 611.97 702.749 608.907 719.751 603.546C742.318 596.346 732.567 555.245 731.341 550.804C730.116 546.362 742.216 536.048 744.667 530.023C747.118 523.999 738.591 521.956 735.068 515.319C731.545 508.681 743.799 503.984 745.535 498.01C747.271 492.037 741.553 485.399 739.255 480.958C737.685 477.731 736.601 474.29 736.038 470.746C736.038 470.746 752.581 458.646 761.312 450.987C770.042 443.329 768.511 437.048 768.46 435.67" fill="#00CFFF"/>
<path d="M1375.48 612.327V429.237L1309.1 562.444H1270.15L1203.77 429.237V612.327H1133.31V305.117H1210.31L1289.85 465.538L1369.81 305.117H1446.39V612.327H1375.48Z" fill="black"/>
<path d="M1764.28 549.884V612.327H1548.51V305.117H1760.4V367.253H1619.43V426.939H1740.48V484.684H1619.43V549.986L1764.28 549.884Z" fill="black"/>
<path d="M2084.61 367.253H1991.33V612.327H1920.41V367.253H1826.57V305.117H2084.61V367.253Z" fill="black"/>
<path d="M2162.57 612.327V305.117H2233.49V612.327H2162.57Z" fill="black"/>
<path d="M2519.77 395.488C2517.19 392.707 2514.1 390.437 2510.68 388.799C2504.39 385.18 2497.89 381.924 2491.23 379.047C2482.95 375.408 2474.41 372.371 2465.7 369.959C2456.68 367.395 2447.35 366.089 2437.97 366.079C2428.22 365.535 2418.5 367.69 2409.89 372.308C2406.61 374.257 2403.93 377.067 2402.13 380.433C2400.33 383.798 2399.48 387.592 2399.68 391.403C2399.56 394.53 2400.18 397.642 2401.49 400.483C2402.8 403.323 2404.77 405.811 2407.24 407.742C2413.84 412.518 2421.24 416.08 2429.09 418.259C2438.59 421.255 2450.26 424.76 2464.11 428.777C2481.74 433.207 2498.85 439.47 2515.17 447.464C2528.45 453.815 2539.85 463.509 2548.26 475.596C2556.48 489.317 2560.46 505.163 2559.69 521.139C2560.16 536.233 2556.9 551.209 2550.2 564.742C2544.15 576.258 2535.39 586.126 2524.67 593.487C2513.4 600.995 2500.86 606.377 2487.65 609.366C2473.64 612.75 2459.28 614.463 2444.87 614.471C2429.44 614.411 2414.05 612.89 2398.92 609.928C2383.49 606.993 2368.36 602.652 2353.73 596.959C2339.77 591.617 2326.43 584.769 2313.96 576.536L2345 514.4C2348.41 517.537 2352.2 520.231 2356.28 522.416C2363.87 526.94 2371.73 530.981 2379.82 534.516C2389.98 538.979 2400.46 542.666 2411.17 545.544C2422.58 548.691 2434.36 550.288 2446.19 550.293C2456.01 550.973 2465.81 548.923 2474.53 544.37C2477.42 542.714 2479.81 540.307 2481.45 537.404C2483.08 534.501 2483.9 531.21 2483.82 527.879C2483.94 524.278 2483.11 520.71 2481.41 517.535C2479.7 514.361 2477.19 511.694 2474.12 509.804C2465.9 504.738 2457.02 500.838 2447.73 498.215C2436.65 494.743 2423.88 490.913 2409.43 486.574C2393.25 481.938 2377.66 475.445 2362.97 467.223C2351.71 461.051 2342.3 451.993 2335.71 440.98C2329.41 429.08 2326.37 415.731 2326.87 402.278C2326.23 383.005 2331.58 364.008 2342.19 347.903C2352.51 333.037 2366.83 321.405 2383.5 314.358C2401.38 306.624 2420.69 302.728 2440.17 302.922C2454.23 302.845 2468.25 304.561 2481.88 308.027C2494.76 311.323 2507.34 315.66 2519.51 320.996C2531.2 326.101 2541.62 331.207 2550.86 336.313L2519.77 395.488Z" fill="black"/>
</g>
<defs>
<clipPath id="clip0_1_18">
<rect width="2560" height="917.291" fill="white"/>
</clipPath>
</defs>
</svg>
