<svg version="1.2" xmlns="http://www.w3.org/2000/svg" viewBox="0 0 2000 1957" width="2000" height="1957">
	<style>
		.s0 { fill: #ffffff } 
	</style>
	<path id="Path 0" fill-rule="evenodd" class="s0" d="m1999.5 1936c0.27 0 0.5 4.72 0.5 21l-8.75-0.1c-7.02-0.08-8.06-0.27-5.25-0.95 1.92-0.47 4.62-1.69 6-2.71 1.37-1.02 3.52-3.86 4.76-6.3 1.24-2.44 2.25-5.9 2.25-7.69-0.01-1.79 0.21-3.25 0.49-3.25zm-994-1462.44c15.4 0.24 34.52 1.13 42.5 1.98 7.97 0.86 22.15 2.86 31.5 4.46 9.35 1.61 22.4 4.08 29 5.51 6.6 1.43 16.5 3.72 22 5.1 5.5 1.38 16.75 4.54 25 7.02 8.25 2.48 23.32 7.81 33.5 11.85 10.17 4.03 24.12 10.05 31 13.37 6.87 3.32 17.9 9.05 24.5 12.73 6.6 3.69 17.4 10.08 24 14.2 6.6 4.12 18.52 12.03 26.5 17.58 7.97 5.54 19.9 14.43 26.5 19.75 6.6 5.31 17.4 14.72 24 20.9 6.6 6.18 17.57 17.14 24.39 24.36 6.81 7.22 16.44 18.08 21.4 24.13 4.96 6.05 12.9 16.17 17.65 22.5 4.75 6.32 10.68 14.42 13.19 18 2.5 3.57 7.69 11.45 11.53 17.5 3.84 6.05 9.74 15.95 13.11 22 3.37 6.05 10.13 19.55 15.03 30 4.9 10.45 11.07 24.4 13.71 31 2.64 6.6 7.22 19.2 10.19 28 2.97 8.8 6.95 21.85 8.83 29 1.89 7.15 4.81 19.75 6.49 28 1.67 8.25 4.17 21.75 5.54 30 1.37 8.25 2.54 18.82 2.59 23.5 0.06 5.98-0.39 9.46-1.53 11.75-1.04 2.09-2.6 3.47-4.37 3.86-1.51 0.33-3.65 0.35-4.75 0.03-1.1-0.32-6.28-3.02-11.5-6.02-5.23-2.99-12.43-6.47-16-7.74-5.44-1.94-8.54-2.32-19-2.35-10.45-0.02-13.65 0.35-19.5 2.29-3.85 1.27-9.93 4.04-13.5 6.15-3.58 2.11-8.77 6.02-11.54 8.68-2.77 2.67-6.57 7.1-8.44 9.85-1.87 2.75-4.66 7.7-6.2 11-1.54 3.3-3.47 9.15-4.29 13-0.82 3.85-1.5 10.26-1.51 14.25-0.01 3.99 0.71 10.51 1.61 14.5 0.9 3.99 2.73 9.72 4.07 12.75 1.34 3.02 4.36 8.2 6.7 11.5 2.34 3.3 6.92 8.2 10.18 10.9 3.26 2.69 9.07 6.4 12.92 8.25 3.85 1.84 10.37 4.09 14.5 4.99 5.42 1.18 10.41 1.5 18 1.14 7.15-0.34 12.57-1.2 17-2.72 3.57-1.22 10.55-4.52 15.5-7.32 5.16-2.93 10.71-5.29 13-5.56 3.49-0.39 4.29-0.08 6.27 2.43 1.25 1.59 2.54 4.91 2.87 7.39 0.33 2.47 0.06 8.77-0.6 14-0.66 5.22-2.69 18.5-4.53 29.5-1.83 11-5.23 27.42-7.55 36.5-2.32 9.07-6.24 22.57-8.7 30-2.46 7.42-7.84 22.05-11.95 32.5-4.12 10.45-12.08 28.45-17.7 40-5.62 11.55-12.85 25.5-16.07 31-3.22 5.5-10.7 17.2-16.63 26-5.92 8.8-15.82 22.3-22 30-6.19 7.7-15.98 19.4-21.77 26-5.79 6.6-16.86 18.31-24.59 26.02-7.73 7.71-18.78 18.11-24.55 23.09-5.78 4.99-15 12.58-20.5 16.86-5.5 4.29-18.33 13.31-28.5 20.04-10.18 6.74-25.7 16.41-34.5 21.48-8.8 5.08-19.83 11.16-24.5 13.51-4.68 2.35-15.03 7.07-23 10.48-7.98 3.41-23.05 9.05-33.5 12.53-10.45 3.48-28 8.59-39 11.37-11 2.77-26.75 6.39-35 8.05-8.25 1.66-21.98 3.91-30.5 5-8.53 1.09-26.53 2.52-40 3.16-18.8 0.9-30.09 0.9-48.5-0.01-13.2-0.64-30.98-2.06-39.5-3.14-8.53-1.08-21.35-3.08-28.5-4.44-7.15-1.35-20.43-4.29-29.5-6.52-9.08-2.23-23.48-6.1-32-8.6-8.53-2.5-24.05-7.93-34.5-12.08-10.45-4.14-26.43-11.25-35.5-15.8-9.08-4.55-23.7-12.43-32.5-17.52-8.8-5.09-23.43-14.25-32.5-20.36-9.08-6.1-20.78-14.43-26-18.5-5.23-4.07-13.32-10.6-17.99-14.51-4.67-3.91-14.74-13.19-22.37-20.61-7.63-7.43-18.69-18.9-24.58-25.5-5.88-6.6-14.04-16.05-18.14-21-4.1-4.95-10.86-13.5-15.03-19-4.17-5.5-10.89-14.95-14.94-21-4.05-6.05-10.23-15.73-13.73-21.5-3.5-5.78-10.73-19.28-16.07-30-5.35-10.73-12.47-26.03-15.83-34-3.37-7.98-8.42-20.69-11.22-28.25-2.81-7.56-7.08-20.61-9.5-29-2.42-8.39-5.56-20.65-6.98-27.25-1.43-6.6-3.96-20.33-5.63-30.5-1.68-10.18-3.32-22.55-3.66-27.5-0.34-4.95-0.33-10.69 0.02-12.75 0.36-2.06 1.55-4.65 2.65-5.75 1.1-1.1 3.12-2 4.5-2 1.37 0 8.01 2.86 14.75 6.36 8.37 4.35 14.78 6.92 20.25 8.14 5.98 1.32 10.66 1.65 18.5 1.29 7.93-0.36 12.33-1.13 18-3.15 4.12-1.46 10.39-4.57 13.91-6.9 3.53-2.33 8.93-6.98 12-10.32 3.08-3.35 7.26-9.42 9.3-13.5 2.04-4.08 4.39-10.35 5.23-13.92 0.86-3.67 1.53-11.07 1.53-17 0-6.22-0.64-12.95-1.55-16.5-0.86-3.3-3.2-9.38-5.2-13.5-2.72-5.57-5.73-9.58-11.69-15.58-6.3-6.33-9.86-8.98-16.53-12.26-4.68-2.31-11.65-4.86-15.5-5.66-3.85-0.81-10.15-1.48-14-1.49-3.87-0.02-10.58 0.88-15 2.01-4.55 1.17-12.31 4.34-18 7.37-5.5 2.92-11.24 5.61-12.75 5.96-1.51 0.36-3.76 0.19-5-0.38-1.24-0.57-2.87-2.03-3.64-3.25-0.76-1.22-1.59-4.7-1.85-7.72-0.25-3.03 0.27-11.13 1.17-18 0.89-6.88 2.97-19.93 4.61-29 1.64-9.08 4.59-23.03 6.56-31 1.96-7.98 6.64-23.73 10.4-35 3.76-11.28 9.38-26.58 12.49-34 3.11-7.43 9.87-22.05 15.03-32.5 5.15-10.45 12.46-24.18 16.23-30.5 3.78-6.33 10.24-16.68 14.38-23 4.13-6.33 12.6-18.25 18.83-26.5 6.22-8.25 13.6-17.7 16.4-21 2.8-3.3 10.95-12.49 18.11-20.41 7.17-7.93 18.43-19.5 25.03-25.7 6.6-6.21 16.95-15.41 23-20.44 6.05-5.04 16.4-13.08 23-17.88 6.6-4.79 17.4-12.33 24-16.74 6.6-4.42 18.64-11.92 26.75-16.68 8.11-4.76 20.26-11.41 27-14.78 6.74-3.37 19-8.93 27.25-12.35 8.25-3.43 20.4-8.13 27-10.44 6.6-2.31 18.75-6.15 27-8.53 8.25-2.38 21.97-5.94 30.5-7.91 8.52-1.96 21.8-4.73 29.5-6.14 7.7-1.41 19.62-3.24 26.5-4.06 6.87-0.83 18.12-1.91 25-2.41 6.87-0.49 25.1-0.7 40.5-0.47zm-65 92.98c-6.05 0.86-17.98 2.94-26.5 4.61-8.53 1.66-22.48 5.03-31 7.48-8.53 2.45-20 6.05-25.5 8.02-5.5 1.96-16.53 6.26-24.5 9.55-7.98 3.3-20.13 8.85-27 12.35-6.88 3.5-18.58 10.02-26 14.48-7.43 4.47-17.78 11.18-23 14.91-5.23 3.74-14.06 10.34-19.63 14.68-5.58 4.33-15.25 12.44-21.5 18.01-6.26 5.57-17 15.93-23.87 23.02-6.88 7.09-17.01 18.5-22.53 25.37-5.52 6.86-13.01 16.75-16.66 21.98-3.64 5.22-10.44 15.8-15.11 23.5-4.66 7.7-11.66 20.07-15.54 27.5-3.88 7.42-9.28 18.67-11.98 25-2.71 6.32-7.05 18.02-9.66 26-2.6 7.97-5.8 19.22-7.12 25-1.31 5.77-2.39 12.64-2.39 15.25-0.01 2.61 0.69 6.44 1.54 8.5 0.85 2.06 2.99 5.25 4.75 7.09 1.76 1.83 6.8 5.88 11.2 8.99 4.4 3.11 11.15 8.64 15 12.3 3.85 3.65 9.55 10.18 12.68 14.5 3.12 4.33 7.48 11.47 9.68 15.87 2.2 4.4 5.1 11.37 6.44 15.5 1.35 4.12 3.02 10.87 3.73 15 0.71 4.12 1.3 12.45 1.3 18.5 0 6.05-0.58 14.37-1.28 18.5-0.7 4.12-2.56 11.55-4.14 16.5-1.59 4.95-4.36 11.92-6.16 15.5-1.81 3.57-5.53 9.86-8.27 13.96-2.74 4.11-8.36 10.87-12.48 15.02-4.13 4.16-12.11 10.81-17.75 14.79-6.4 4.51-11.28 8.8-13 11.41-2.2 3.35-2.82 5.58-3.1 11.25-0.27 5.48 0.36 9.88 2.81 19.57 1.73 6.87 4.09 15.65 5.24 19.5 1.15 3.85 4.08 12.17 6.51 18.5 2.44 6.32 8.89 20.27 14.34 31 5.46 10.72 14.02 26.02 19.03 34 5.01 7.97 12.55 19.41 16.76 25.41 4.21 6 11.88 15.9 17.04 22 5.16 6.1 15.53 17.16 23.03 24.59 7.51 7.42 18.14 17.38 23.62 22.12 5.48 4.75 17.69 14.42 27.12 21.5 9.44 7.09 23.16 16.68 30.5 21.33 7.34 4.65 19.65 11.71 27.35 15.68 7.7 3.98 18.95 9.24 25 11.7 6.05 2.46 17.52 6.74 25.5 9.5 7.97 2.77 19.67 6.62 26 8.57 6.32 1.94 17.12 4.9 24 6.57 6.87 1.67 19.25 4.14 27.5 5.49 8.25 1.36 20.74 2.93 27.75 3.5 7.01 0.57 26.25 1.04 42.75 1.04 20.11 0 34.86-0.51 44.75-1.55 8.11-0.86 19.47-2.46 25.25-3.56 5.77-1.1 17.7-3.83 26.5-6.06 8.8-2.24 22.07-6.08 29.5-8.54 7.42-2.47 20.47-7.24 29-10.61 8.52-3.36 22.92-9.79 32-14.28 9.07-4.49 21.45-11.19 27.5-14.89 6.05-3.7 15.95-10.27 22-14.6 6.05-4.32 15.79-11.59 21.65-16.14 5.85-4.55 16.15-13.22 22.88-19.27 6.74-6.05 17.88-16.85 24.76-24 6.88-7.15 17.22-18.85 22.97-26 5.75-7.15 14.62-19.3 19.73-27 5.1-7.7 12.33-19.4 16.06-26 3.73-6.6 9.45-17.63 12.71-24.5 3.26-6.88 7.87-17.23 10.23-23 2.36-5.78 5.96-15.68 7.99-22 2.02-6.33 4.77-16 6.1-21.5 1.33-5.5 2.42-12.81 2.42-16.25 0-3.44-0.45-7.38-1-8.75-0.55-1.38-2.46-4.15-4.25-6.16-1.79-2.01-8.2-7.35-14.25-11.86-6.05-4.52-13.71-11.08-17.02-14.59-3.31-3.52-7.86-9.09-10.11-12.39-2.26-3.3-5.91-9.6-8.12-14-2.21-4.4-5.22-11.83-6.69-16.5-1.48-4.68-3.33-12.78-4.12-18-0.78-5.23-1.43-12.76-1.43-16.75-0.01-3.99 0.48-10.74 1.09-15 0.6-4.26 2.2-11.58 3.56-16.25 1.35-4.68 3.96-11.65 5.8-15.5 1.84-3.85 5.6-10.38 8.35-14.5 2.75-4.13 8.08-10.68 11.84-14.57 3.77-3.89 12.25-11.09 18.85-16 9.03-6.72 12.6-10.04 14.46-13.43 1.94-3.56 2.44-5.86 2.36-11-0.06-3.85-1.54-12.21-3.65-20.5-1.95-7.7-5.32-18.95-7.49-25-2.17-6.05-5.83-15.28-8.15-20.5-2.31-5.23-7.69-16.48-11.95-25-4.26-8.53-11.89-22.25-16.96-30.5-5.07-8.25-12.12-19.05-15.65-24-3.54-4.95-11.1-14.63-16.81-21.5-5.71-6.88-15.56-17.9-21.88-24.5-6.33-6.6-17.44-17.18-24.7-23.5-7.26-6.33-21.02-17.35-30.58-24.5-9.55-7.15-23.36-16.6-30.69-20.99-7.32-4.4-19.61-11.16-27.31-15.03-7.7-3.87-22.1-10.25-32-14.18-9.9-3.93-22.95-8.76-29-10.72-6.05-1.97-15.28-4.66-20.5-5.98-5.23-1.33-15.13-3.55-22-4.94-6.88-1.39-19.03-3.44-27-4.55-7.98-1.11-21.93-2.49-31-3.06-9.08-0.57-25.5-0.98-36.5-0.91-11 0.08-24.73 0.52-30.5 0.98-5.78 0.46-15.45 1.55-21.5 2.42z"/>
</svg>