<svg version="1.2" xmlns="http://www.w3.org/2000/svg" viewBox="0 0 4000 3704" width="4000" height="3704">
	<style>
		.s0 { fill: #ffffff } 
	</style>
	<path id="Path 0" class="s0" d="m991.5 1033.41c-4.4 0.74-10.93 2.46-14.5 3.83-3.58 1.36-9.43 3.96-13 5.76-3.58 1.8-9.76 5.47-13.75 8.14-3.99 2.67-11.3 8.91-16.25 13.86-4.95 4.95-10.89 11.81-13.19 15.25-2.31 3.44-5.86 9.85-7.89 14.25-2.04 4.4-4.52 11.15-5.52 15-1.41 5.4-1.81 10.65-1.78 23 0.03 13.15 0.43 17.42 2.2 24 1.18 4.4 4.37 12.5 7.09 18 2.71 5.5 7.6 13.6 10.87 18 3.27 4.4 8.59 10.29 11.83 13.08 3.24 2.8 8.81 7.05 12.39 9.44 3.57 2.39 10.1 6.06 14.5 8.14 4.4 2.09 12.5 5.05 18 6.57 9.08 2.52 11.47 2.76 26 2.7 14.25-0.06 17.09-0.36 26-2.82 5.5-1.52 13.37-4.33 17.5-6.25 4.12-1.92 10.42-5.6 14-8.17 3.57-2.57 9.59-7.6 13.36-11.18 3.77-3.58 9.26-9.66 12.19-13.51 2.94-3.85 7.12-10.83 9.29-15.5 2.18-4.68 4.95-12.33 6.17-17 1.36-5.23 2.41-12.92 2.73-20 0.37-8.34 0.07-13.7-1.09-19.5-0.88-4.4-2.54-10.93-3.69-14.5-1.15-3.58-3.96-10.33-6.26-15-2.29-4.68-6.69-11.88-9.79-16-3.09-4.13-8.5-10.03-12.02-13.13-3.51-3.09-9.77-7.79-13.89-10.44-4.13-2.65-11.1-6.51-15.5-8.58-4.4-2.07-11.38-4.64-15.5-5.72-4.48-1.17-12.53-2.19-20-2.51-8.3-0.37-15.19-0.1-20.5 0.79zm538.5 280.22c-2.48 0.22-11.48 1.27-20 2.34-8.53 1.07-19.78 2.43-25 3.03-5.23 0.6-14.68 2.23-21 3.64-6.33 1.41-16.68 4.12-23 6.02-6.33 1.91-18.48 6.21-27 9.57-8.53 3.35-19.55 7.97-24.5 10.26-4.95 2.29-15.53 7.91-23.5 12.49-7.98 4.58-17.2 10.13-20.5 12.35-3.3 2.22-11.85 8.52-19 14-7.98 6.12-19.77 16.76-30.55 27.57-10.54 10.58-21.15 22.39-26.6 29.6-4.98 6.6-12.22 16.72-16.09 22.5-3.87 5.77-10.01 15.9-13.65 22.5-3.64 6.6-9.54 18.64-13.11 26.75-3.58 8.11-8.26 20.04-10.42 26.5-2.15 6.46-5.51 18.27-7.46 26.25-1.96 7.97-4.25 18.55-5.1 23.5-0.85 4.95-2.04 18.67-2.65 30.5-0.83 16.13-0.81 26.87 0.07 43 0.65 11.82 1.84 25.32 2.65 30 0.8 4.67 3.09 15.25 5.07 23.5 1.99 8.25 6.29 22.87 9.55 32.5 3.27 9.62 9.31 24.47 13.44 33 4.12 8.52 9.78 19.32 12.58 24 2.8 4.67 7.89 12.55 11.31 17.5 3.43 4.95 11.85 15.52 18.72 23.5 6.87 7.97 14.68 16.59 17.36 19.15 2.69 2.56 10.95 9.68 18.38 15.81 7.42 6.14 18.45 14.44 24.5 18.45 6.05 4 15.27 9.69 20.5 12.63 5.22 2.94 16.25 8.59 24.5 12.55 8.25 3.96 21.07 9.47 28.5 12.24 7.42 2.76 20.47 7.04 29 9.5 8.52 2.46 26.07 6.72 39 9.47 12.92 2.75 30.92 6.39 40 8.09 9.07 1.69 22.57 4.19 30 5.55 7.42 1.36 19.35 3.4 26.5 4.55 7.15 1.14 19.07 3.47 26.5 5.16 7.42 1.7 19.12 4.88 26 7.07 6.87 2.19 16.55 5.92 21.5 8.29 4.95 2.38 12.82 6.88 17.5 10.02 4.67 3.13 12.32 8.89 17 12.79 4.67 3.9 11.36 10.03 14.85 13.63 3.5 3.6 9.59 10.82 13.55 16.05 3.96 5.22 9.17 12.87 11.6 17 2.42 4.12 6.4 12.22 8.85 18 2.44 5.77 5.69 15.45 7.22 21.5 1.52 6.05 3.53 16.4 4.46 23 1.18 8.31 1.53 15.38 1.15 23-0.29 6.05-1.73 17.07-3.19 24.5-1.46 7.42-4.02 17.77-5.69 23-1.67 5.22-5.04 13.77-7.48 19-2.45 5.22-6.08 12.2-8.07 15.5-1.99 3.3-6.62 10.05-10.3 15-3.67 4.95-9.15 11.7-12.16 15-3.02 3.3-9.27 9.22-13.89 13.15-4.62 3.92-12.9 10.14-18.4 13.82-5.5 3.67-16.75 10.08-25 14.24-8.25 4.17-20.18 9.27-26.5 11.35-6.33 2.07-16.23 4.67-22 5.78-5.78 1.11-17.7 2.55-26.5 3.2-12.35 0.92-19.65 0.92-32 0-8.8-0.65-19.83-1.85-24.5-2.66-4.68-0.81-10.98-2.16-14-3-3.03-0.84-10.23-3.06-16-4.94-5.78-1.88-16.35-6.31-23.5-9.85-7.15-3.54-17.05-9.11-22-12.39-4.95-3.28-12.83-9.31-17.5-13.39-4.68-4.09-12.1-11.36-16.5-16.17-4.4-4.81-10.63-12.44-13.85-16.94-3.22-4.51-8.98-14.5-12.79-22.2-3.81-7.7-8.23-18.05-9.81-23-1.59-4.95-4.27-14.51-5.97-21.25-1.69-6.74-4.09-14.35-5.33-16.92-1.24-2.58-3.6-5.69-5.25-6.93-1.65-1.24-5.03-2.76-7.5-3.37-3.16-0.79-23.11-1.04-67-0.83-57 0.28-62.83 0.46-66.25 2.05-2.06 0.96-4.67 2.99-5.8 4.5-1.13 1.51-2.52 4.55-3.09 6.75-0.59 2.27-0.76 7.03-0.38 11 0.36 3.85 1.32 11.27 2.12 16.5 0.81 5.22 3.22 16.47 5.36 25 2.14 8.52 5.53 20.9 7.54 27.5 2 6.6 6.11 18.3 9.13 26 3.02 7.7 8.52 19.85 12.23 27 3.7 7.15 10.05 17.95 14.09 24 4.05 6.05 12.27 17.3 18.27 25 6.01 7.7 14.83 18.25 19.6 23.44 4.77 5.18 14.08 14.34 20.68 20.35 6.6 6 17.85 15.33 25 20.72 7.15 5.4 17.84 12.78 23.75 16.4 5.91 3.62 16.94 9.92 24.5 13.99 7.56 4.07 18.47 9.53 24.25 12.13 5.77 2.61 19.05 7.56 29.5 11.01 10.45 3.45 26.2 7.88 35 9.85 8.8 1.97 26.57 5.01 39.5 6.75 20.4 2.74 26.41 3.16 45.5 3.16 19.43 0 24.51-0.37 43.5-3.15 11.82-1.73 27.12-4.51 34-6.19 6.87-1.67 17-4.42 22.5-6.11 5.5-1.69 15.4-5.23 22-7.87 6.6-2.64 17.4-7.23 24-10.2 6.6-2.97 18.97-9.38 27.5-14.25 8.52-4.87 20.45-12.09 26.5-16.04 6.05-3.95 13.7-9.31 17-11.9 3.3-2.6 12.52-10.49 20.5-17.54 7.97-7.05 18.8-17.71 24.06-23.69 5.26-5.97 11.97-13.79 14.91-17.36 2.94-3.58 9.25-12.35 14.03-19.5 4.77-7.15 11.53-17.73 15.02-23.5 3.49-5.78 9.13-16.35 12.54-23.5 3.41-7.15 8.25-18.18 10.76-24.5 2.51-6.33 6.19-16.9 8.18-23.5 1.98-6.6 5.13-20.33 6.98-30.5 1.86-10.18 3.86-23.9 4.44-30.5 0.58-6.6 1.07-21.23 1.08-32.5 0.01-11.28-0.46-25.23-1.05-31-0.58-5.78-2.19-16.35-3.57-23.5-1.38-7.15-3.66-17.28-5.07-22.5-1.41-5.23-4.53-15.24-6.94-22.25-2.4-7.01-6.44-17.36-8.97-23-2.53-5.64-7.46-15.88-10.94-22.75-3.49-6.88-9.15-17-12.58-22.5-3.43-5.5-9.39-14.28-13.24-19.5-3.86-5.23-13.34-15.98-21.08-23.89-7.73-7.92-18.34-18.22-23.56-22.89-5.23-4.67-14-11.69-19.5-15.6-5.5-3.91-15.85-10.64-23-14.95-7.15-4.3-19.75-11.14-28-15.18-8.25-4.05-21.41-9.86-29.25-12.92-7.84-3.07-21.34-7.58-30-10.03-8.66-2.45-22.05-6.03-29.75-7.95-7.7-1.92-23.45-5.52-35-7.99-11.55-2.47-36.3-7.47-55-11.09-18.7-3.63-39.85-7.94-47-9.58-7.15-1.63-17.5-4.37-23-6.07-5.5-1.7-14.05-4.86-19-7.03-4.95-2.16-12.83-6.22-17.5-9.03-4.68-2.81-12.55-8.13-17.5-11.84-4.95-3.71-11.88-9.6-15.4-13.1-3.52-3.5-9.92-11.09-14.22-16.86-4.31-5.78-10.51-15.68-13.79-22-3.28-6.33-7.54-16.23-9.47-22-1.93-5.78-4.42-15-5.54-20.5-1.12-5.5-2.32-15.85-2.68-23-0.38-7.84-0.17-17.56 0.55-24.5 0.66-6.33 2.44-16.45 3.98-22.5 1.53-6.05 4.26-15.05 6.06-20 1.81-4.95 4.74-11.93 6.53-15.5 1.78-3.58 5.97-10.55 9.29-15.5 3.33-4.95 8.94-12.6 12.48-17 3.53-4.4 10.7-12.05 15.93-17 5.22-4.95 13.26-11.7 17.86-15 4.59-3.3 12.88-8.7 18.42-12 5.53-3.3 14.77-7.88 20.53-10.19 5.76-2.3 14.52-5.37 19.47-6.81 4.95-1.44 16.76-3.94 26.25-5.56 9.49-1.62 20.96-2.94 25.5-2.94 4.54-0.01 14.77 1.16 22.75 2.58 7.97 1.42 19.45 3.85 25.5 5.41 6.05 1.56 14.6 4.27 19 6.02 4.4 1.75 11.37 4.8 15.5 6.77 4.12 1.97 12 6.62 17.5 10.33 5.5 3.71 13.8 9.81 18.44 13.57 4.64 3.75 10.84 9.52 13.77 12.82 2.94 3.3 8.24 10.05 11.78 15 3.54 4.95 8.89 13.72 11.9 19.5 3 5.77 7.31 15.9 9.58 22.5 2.27 6.6 5.2 16.27 6.52 21.5 1.32 5.22 3.15 14.22 4.06 20 0.91 5.77 2.31 12.07 3.11 14 0.8 1.92 2.22 4.35 3.15 5.39 0.93 1.05 3.71 2.81 6.19 3.93 3.87 1.74 7.1 2.08 23 2.4 10.17 0.21 41 0.02 68.5-0.42 47.89-0.77 50.15-0.89 53.5-2.86 1.92-1.13 4.56-3.6 5.86-5.5 2.24-3.27 2.33-4.02 1.8-14.94-0.31-6.33-1.48-17.58-2.6-25-1.11-7.43-3.86-20.93-6.09-30-2.23-9.08-5.43-21-7.11-26.5-1.69-5.5-5.1-15.18-7.59-21.5-2.49-6.33-6.66-15.78-9.27-21-2.62-5.23-6.87-13.1-9.46-17.5-2.59-4.4-8.35-13.18-12.79-19.5-4.44-6.33-13.93-18.7-21.08-27.5-7.15-8.8-17.77-20.75-23.59-26.55-5.82-5.8-15.76-14.85-22.08-20.1-6.33-5.26-15.1-12.14-19.5-15.3-4.4-3.16-14.08-9.39-21.5-13.85-7.43-4.46-19.35-10.88-26.5-14.28-7.15-3.39-18.4-8.2-25-10.69-6.6-2.49-16.5-5.9-22-7.59-5.5-1.68-15.63-4.43-22.5-6.11-6.88-1.67-24.2-4.59-38.5-6.48-14.3-1.89-31.63-3.63-38.5-3.87-6.88-0.24-14.53-0.26-17-0.05zm1520 2.87c-0.83 0.22-10.73 0.89-22 1.5-11.28 0.6-23.88 1.55-28 2.12-4.13 0.56-13.35 2.32-20.5 3.91-7.15 1.59-18.63 4.44-25.5 6.34-6.88 1.89-18.13 5.34-25 7.66-6.88 2.33-19.7 7.34-28.5 11.15-8.8 3.81-22.75 10.43-31 14.7-8.25 4.27-20.85 11.4-28 15.84-7.15 4.43-18.85 12.24-26 17.34-7.15 5.11-16.38 12-20.5 15.31-4.13 3.32-15.08 13.48-24.34 22.58-9.26 9.1-20.6 20.82-25.2 26.05-4.61 5.22-13.77 16.92-20.36 26-6.59 9.07-15.92 22.8-20.73 30.5-4.81 7.7-12.19 20.75-16.4 29-4.2 8.25-10.37 21.97-13.7 30.5-3.32 8.52-7.86 21.12-10.08 28-2.22 6.87-5.18 17-6.56 22.5-1.39 5.5-3.66 16.3-5.05 24-1.38 7.7-2.96 17.15-3.51 21-0.54 3.85-1.5 16.67-2.13 28.5-0.82 15.49-1.12 124.47-1.04 389.75 0.09 348.33 0.19 368.47 1.85 372.4 0.96 2.29 2.87 4.92 4.25 5.86 1.37 0.94 4.07 2.21 6 2.81 2.35 0.74 24.28 1.17 67 1.31 58.29 0.19 63.83 0.07 67.5-1.52 2.2-0.95 4.85-2.49 5.9-3.42 1.04-0.93 2.81-3.72 3.93-6.19 2.02-4.48 2.03-5.29 1.9-209-0.08-112.48 0.24-280.1 0.7-372.5 0.81-164.09 0.88-168.36 2.98-183.5 1.19-8.53 3.05-19.78 4.14-25 1.09-5.23 3.06-13.55 4.37-18.5 1.31-4.95 4.05-13.5 6.09-19 2.05-5.5 6.34-15.18 9.54-21.5 3.21-6.33 9.41-16.9 13.79-23.5 4.38-6.6 13.1-17.85 19.37-25 6.27-7.15 16.1-17.36 21.85-22.68 5.74-5.33 13.59-12.21 17.44-15.3 3.85-3.09 10.6-8 15-10.92 4.4-2.92 11.15-7.12 15-9.33 3.85-2.21 9.7-5.38 13-7.03 3.3-1.64 11.17-5.04 17.5-7.53 6.32-2.5 16.67-6.12 23-8.03 6.32-1.92 17.35-4.68 24.5-6.12 8.9-1.81 19.15-2.98 32.5-3.73 14.23-0.79 24.23-0.78 37 0.04 11.76 0.75 22.26 2.11 32 4.13 7.97 1.66 17.87 3.89 22 4.95 4.12 1.06 12 3.46 17.5 5.33 5.5 1.87 14.5 5.37 20 7.79 5.5 2.42 15.4 7.49 22 11.27 6.6 3.79 14.25 8.49 17 10.46 2.75 1.97 11.49 9.01 19.42 15.64 7.93 6.63 17.92 15.88 22.2 20.56 4.28 4.67 10.98 12.32 14.89 17 3.91 4.67 10.56 13.67 14.78 20 4.22 6.32 11.77 19.6 16.78 29.5 5.46 10.78 10.77 23.01 13.24 30.5 2.26 6.87 5.09 16.32 6.28 21 1.19 4.67 2.86 12.1 3.72 16.5 1.38 7.12 1.61 50.06 2.12 388.53l0.57 380.52c4.57 8.85 6.23 10.5 10.04 12.45l4.9 2.5c105.92 0.47 125.67 0.21 129.56-0.6 4.1-0.86 6.42-2.08 9.13-4.78 1.99-1.99 4.13-5.42 4.74-7.62 0.82-2.91 1.12-105.5 1.12-377-0.01-244.38-0.35-376.1-1.02-382-0.55-4.95-2.15-16.43-3.55-25.5-1.4-9.08-3.44-20.55-4.53-25.5-1.1-4.95-3.13-13.5-4.52-19-1.39-5.5-4.11-14.95-6.05-21-1.93-6.05-6.45-18.43-10.03-27.5-3.58-9.08-11.15-25.73-16.82-37-5.68-11.28-13.99-26.35-18.47-33.5-4.49-7.15-11.47-17.73-15.53-23.5-4.05-5.78-11.51-15.23-16.56-21-5.06-5.78-16.9-18.17-26.31-27.54-9.4-9.37-21.83-20.93-27.6-25.69-5.78-4.77-16.8-13.24-24.5-18.83-7.7-5.59-20.75-14.21-29-19.15-8.25-4.94-22.2-12.49-31-16.77-8.8-4.28-22.53-10.37-30.5-13.52-7.98-3.16-19.23-7.28-25-9.17-5.78-1.89-19.28-5.61-30-8.28-10.73-2.66-25.13-5.76-32-6.89-6.88-1.13-21.28-2.54-32-3.15-10.73-0.6-26.25-1.28-34.5-1.51-8.25-0.23-15.68-0.23-16.5 0zm-1135.75 4.6c-2.76 0.59-5.61 2.21-8.13 4.65-2.92 2.83-4.15 5.04-5 9-0.8 3.74-0.96 23.07-0.55 67 0.45 48.38 0.87 62.62 1.94 65.75 0.75 2.2 2.97 5.46 4.93 7.25 2.52 2.31 5.23 3.58 9.31 4.39 4.11 0.81 26.88 1 79.75 0.68 40.7-0.24 91.1-0.18 112 0.13 36.83 0.56 38.13 0.65 42.25 2.81 2.34 1.23 5.08 3.48 6.09 4.99 1.01 1.51 2.25 3.65 2.75 4.75 0.54 1.19 1.11 196.89 1.41 484.5l0.5 482.5c3.75 7.08 5.92 9.25 8.75 10.75l4.25 2.25h132c7.08-3.75 9.25-5.92 10.75-8.75l2.25-4.25c0.96-925.26 1.14-966.25 2.62-969 0.88-1.65 3.02-4.24 4.75-5.75 1.72-1.51 5.04-3.26 7.38-3.89 3.04-0.81 36.45-1.16 117.25-1.25 103.3-0.1 113.26-0.25 116-1.77 1.65-0.91 4.18-2.94 5.61-4.5 1.44-1.56 3.14-4.42 3.77-6.34 0.82-2.49 1.15-21.59 1.14-66.5-0.01-39.82-0.39-64.29-1.04-66.5-0.56-1.93-2.02-4.94-3.25-6.69-1.23-1.76-3.81-4.01-5.73-5-3.35-1.73-17.23-1.82-326.5-1.96-187.14-0.08-324.79 0.23-327.25 0.75zm-968.75 2.58c-1.1 0.25-3.58 0.96-5.5 1.59-1.93 0.63-4.8 2.29-6.38 3.69-1.59 1.39-3.62 3.89-4.5 5.54-1.48 2.74-1.66 39.19-2.12 428.5-0.49 408.3-0.58 425.88-2.35 435-1.02 5.22-3.6 14.79-5.75 21.25-2.14 6.46-5.52 15.01-7.51 19-1.99 3.99-5.22 9.95-7.19 13.25-1.97 3.3-6.13 9.37-9.25 13.5-3.12 4.12-10.35 12.01-16.06 17.51-5.72 5.51-14.89 13.02-20.39 16.69-5.5 3.67-14.05 8.74-19 11.27-4.95 2.53-13.05 5.89-18 7.48-4.95 1.59-12.83 3.71-17.5 4.72-6.19 1.33-12.44 1.81-23 1.75-11.03-0.06-17.01-0.62-25-2.34-5.78-1.24-15.23-3.81-21-5.71-5.78-1.91-14.55-5.45-19.5-7.88-4.95-2.42-13.05-7.21-18-10.65-4.95-3.43-13.73-10.99-19.51-16.79-6.15-6.17-13.16-14.5-16.87-20.05-3.5-5.23-7.6-11.98-9.13-15-1.52-3.03-3.98-8.43-5.45-12-1.48-3.58-4.92-15.28-7.65-26-3.79-14.88-5.61-20.32-7.68-22.95-1.49-1.89-4.74-4.37-7.21-5.5-4.36-1.99-6.39-2.06-67-2.33-40.04-0.18-64.39 0.09-67.75 0.75-3.58 0.7-6.38 2.06-8.81 4.28-1.95 1.79-4.04 4.82-4.63 6.75-0.59 1.92-0.85 6.2-0.58 9.5 0.26 3.3 1.94 14.32 3.73 24.5 1.79 10.2 5.69 27.02 8.71 37.5 3 10.45 7.31 23.72 9.58 29.5 2.26 5.77 7.38 17.02 11.37 25 4 7.97 11.26 20.57 16.15 28 4.88 7.42 11.74 17.1 15.24 21.5 3.49 4.4 15.61 17.24 26.92 28.53 11.31 11.29 24.17 23.41 28.57 26.92 4.4 3.52 14.3 10.55 22 15.64 7.7 5.09 19.17 11.96 25.5 15.26 6.32 3.31 15.1 7.44 19.5 9.18 4.4 1.74 12.95 4.94 19 7.11 6.05 2.17 15.95 5.26 22 6.88 6.05 1.61 14.37 3.64 18.5 4.5 4.12 0.87 16.72 2.72 28 4.13 11.27 1.4 25.9 2.56 32.5 2.59 6.6 0.02 17.85-0.72 25-1.65 7.15-0.92 16.37-2.3 20.5-3.06 4.12-0.76 12-2.52 17.5-3.91 5.5-1.39 15.85-4.54 23-6.99 7.15-2.44 17.05-6.23 22-8.41 4.95-2.17 13.5-6.21 19-8.97 5.5-2.75 14.05-7.39 19-10.3 4.95-2.91 14.85-9.21 22-14.01 7.15-4.79 17.27-12.3 22.5-16.68 5.22-4.38 16.2-14.9 24.39-23.36 8.19-8.47 18.59-20.35 23.12-26.4 4.52-6.05 10.22-14.15 12.66-18 2.43-3.85 8.09-13.53 12.56-21.5 4.48-7.98 10.36-19.68 13.09-26 2.72-6.33 6.38-15.55 8.13-20.5 1.76-4.95 4.97-15.08 7.15-22.5 2.17-7.43 5.53-21.6 7.45-31.5 1.93-9.9 3.96-23.63 4.52-30.5 0.68-8.28 0.92-154.11 0.72-432l-0.29-419.5c-3.19-6.98-5.44-9.95-7.06-11.11-1.62-1.16-4.52-2.58-6.44-3.16-2.19-0.66-26.25-1.23-64.5-1.52-33.55-0.26-61.9-0.27-63-0.03z"/>
</svg>