<svg version="1.2" xmlns="http://www.w3.org/2000/svg" viewBox="0 0 1500 500" width="1500" height="500">
	<style>
		.s0 { opacity: .99;fill: #d9f1fc } 
		.s1 { fill: #19363d } 
		.s2 { fill: #79c0e6 } 
		.s3 { fill: #3f93c0 } 
		.s4 { fill: #000000 } 
	</style>
	<g id="Background">
		<path id="Path 0" class="s0" d="m449.79 184.98c0 15.64 0.18 22.18 0.38 14.5 0.2-7.67 0.2-20.46 0-28.44-0.2-7.97-0.38-1.69-0.38 13.94zm-356.5 65.81c0 5.83 0.21 8.09 0.45 5.02 0.24-3.07 0.24-7.83 0-10.6-0.24-2.76-0.45-0.25-0.45 5.58zm-60.41 53.54c0 4.6 0.2 6.6 0.46 4.46 0.25-2.14 0.25-5.91 0-8.37-0.26-2.45-0.46-0.7-0.46 3.91zm497.34 39.59c0 5.52 0.2 8.03 0.45 5.58 0.25-2.45 0.25-6.97 0.01-10.04-0.25-3.07-0.45-1.06-0.46 4.46z"/>
		<path id="Path 1" class="s1" d="m162.14 65.19c-14.98 8.33-35.5 19.69-45.59 25.24-10.09 5.56-19.28 10.91-20.4 11.89-1.88 1.65-2.05 6.16-2.11 56.45l-0.06 54.65c9.24 4.76 12.19 6.64 12.51 7.25 0.31 0.62-2.35 2.63-5.93 4.47l-6.51 3.34 0.05 34.02c-23.43 13.15-37.04 20.68-45.35 25.22l-15.1 8.24-0.02 22.31c11.49 6.32 24.69 13.49 36.74 20.02 17.57 9.52 22.55 11.74 25.16 11.26 2.65-0.5 9.04 2.54 34.34 16.29 17.1 9.3 43.34 23.67 58.32 31.93 14.98 8.28 42.28 23.26 60.68 33.3 18.41 10.03 34.12 18.25 34.94 18.27 0.81 0 2.54-0.7 3.84-1.54 1.31-0.86 22.62-12.83 47.37-26.61 24.75-13.78 60.58-33.66 79.63-44.19 19.05-10.52 35.17-19.14 35.82-19.14 0.65 0 7.45 3.33 15.1 7.38 7.65 4.06 15.91 8.32 18.35 9.48l4.44 2.11 40.85-22.93 0.55-18.9-25.67-35.69-31.12-17.29 0.08-52.98-23.17-13.38-0.6-58.56 41.46-22.87-0.6-24.27c-44.98-24.7-58.43-31.66-58.91-31.41-0.49 0.26-12.89-6.05-27.53-14.03-14.66-7.97-26.78-14.51-26.94-14.53-0.17-0.02-16.82 9.06-37.01 20.18-20.18 11.12-40.71 22.42-45.58 25.1-4.89 2.69-9.68 4.89-10.66 4.89-0.98 0-7.11-2.91-13.62-6.47-6.51-3.56-26.23-14.39-43.81-24.07-17.58-9.68-32.5-18.06-33.15-18.62-0.66-0.55-1.72-1-2.37-0.99-0.65 0.02-13.44 6.85-28.42 15.18z"/>
		<path id="Path 2" class="s2" d="m491.17 121.96c0.01 6.75 0.2 9.26 0.43 5.58 0.24-3.68 0.24-9.2 0-12.27-0.24-3.07-0.43-0.05-0.43 6.69z"/>
		<path id="Path 3" fill-rule="evenodd" class="s0" d="m189.67 51.17c0.16-0.02 15.08 8.09 33.15 18 18.07 9.92 38.33 21.01 45.02 24.63 6.68 3.63 12.14 6.93 12.12 7.34-0.03 0.41-12.68 7.76-28.15 16.34-15.45 8.58-35.82 19.93-62.44 34.87l-8.29-4.49c-4.55-2.47-18.41-10.11-30.78-16.97-12.38-6.87-28.84-15.95-36.59-20.19-7.75-4.23-14.26-7.94-14.47-8.25-0.21-0.31 15.71-9.54 35.4-20.52 19.68-10.97 40.05-22.37 45.26-25.34 5.21-2.95 9.6-5.4 9.77-5.42zm186.5 0.06c0.48-0.06 10.07 5.01 21.31 11.24 11.24 6.24 22.42 12.38 24.85 13.66 2.44 1.29 4.44 2.71 4.44 3.17 0.02 0.46-1.71 1.66-3.83 2.67-2.12 1-15.3 8.2-29.31 15.99-14.01 7.8-31.98 17.77-39.96 22.16-7.98 4.39-15.04 7.98-15.69 7.98-0.65 0-7.45-3.34-15.1-7.41-7.65-4.07-18.64-9.97-24.43-13.1-5.78-3.14-10.7-6.08-10.95-6.54-0.24-0.46 14.35-8.93 32.42-18.83 18.07-9.89 37.92-20.9 44.11-24.45 6.19-3.55 11.65-6.5 12.14-6.54zm-91.14 52.07l3.68 2.13c2.02 1.18 12.96 7.09 24.3 13.15 11.34 6.06 20.54 11.31 20.45 11.66-0.11 0.36-5.93 3.86-12.94 7.8-7.01 3.92-17.66 9.82-23.69 13.1-6.03 3.28-11.22 5.96-11.54 5.96-0.32 0-0.53-12.1-0.43-26.9zm-186.36 2.67c0.44 0.21 5.84 3.09 12 6.43 6.17 3.32 24.81 13.55 41.41 22.74 16.61 9.19 31.41 17.25 35.59 19.17l-0.07 105.4-3.85-2.15c-2.12-1.18-7.3-3.94-11.54-6.11-4.23-2.18-7.57-4.46-7.4-5.1 0.16-0.62-0.24-0.89-0.89-0.58-0.65 0.3-3.19-0.52-5.63-1.83-2.44-1.3-6.3-3.36-8.58-4.57-2.27-1.2-14.93-7.92-52.1-27.62l0.14-53.08c0.07-29.19 0.49-52.9 0.92-52.7zm114.09 108.39c6.03 3.28 18.69 10.05 45.3 24.13l9.11 19.81c5.02 10.9 9.72 21.32 10.46 23.16 1.28 3.19 1.24 3.26-0.83 1.54-1.2-0.98-8.82-5.41-16.97-9.83-8.13-4.43-20.6-11.9-27.68-16.61-11.65-7.73-13.18-9.15-15.79-14.69-1.6-3.38-5.18-11.15-7.97-17.29-2.79-6.13-5.41-12.29-5.82-13.66-0.68-2.23 0.5-1.83 10.19 3.44zm234.75 1.87c0.65-0.01 5.72 2.58 11.25 5.76 9.43 5.41 9.91 5.88 7.7 7.3-1.3 0.83-11.43 6.53-22.5 12.67-11.07 6.13-20.39 11.01-20.72 10.83-0.32-0.18-5.27-2.83-10.98-5.9-5.71-3.07-10.47-5.85-10.55-6.16-0.09-0.31 8.31-5.03 18.67-10.48 10.37-5.45 20.44-10.83 22.4-11.96 1.95-1.13 4.08-2.05 4.73-2.06zm-338.36 5.67c0.82-0.06 7.35 3.03 14.51 6.86 7.16 3.83 12.89 7.41 12.73 7.94-0.17 0.54-2.69 2.22-10.95 6.53l-13.62-7.46c-7.49-4.11-13.75-7.68-13.92-7.93-0.16-0.26 1.97-1.68 4.74-3.15 2.77-1.47 5.7-2.73 6.51-2.79zm-12.63 8.76l2.62 1.53c1.44 0.85 7.07 3.91 12.5 6.82 5.45 2.91 9.84 5.62 9.78 6.03-0.07 0.4-1.05 1.31-2.2 2.02-1.68 1.04-3.31 0.66-8.59-1.98-3.57-1.79-6.64-3.26-6.8-3.24-0.17 0.02-0.29 3.16-0.27 7 0.04 6.36-0.22 7.09-2.96 8.37-1.64 0.75-3.25 1.39-3.58 1.39-0.32 0-0.57-6.29-0.55-13.98zm145.26 36.96c0.81-0.05 8.27 3.6 16.57 8.12 8.3 4.5 16.83 9.02 22.8 11.86l17.46-9.46c9.61-5.19 18.13-9.46 18.95-9.48 0.82-0.01 10.41 4.79 21.31 10.66 10.91 5.87 20.37 11.08 21.02 11.58 0.7 0.54-7.15 5.51-18.94 12.01-11.08 6.1-28.13 15.56-37.9 21.03-9.76 5.48-18.03 10.08-18.35 10.26-0.33 0.17-5.13-2.14-10.66-5.12-5.54-2.99-23.12-12.58-39.07-21.32-15.96-8.75-29.7-16.48-30.54-17.19-1.21-1.01 2.49-3.61 17.17-12.08 10.28-5.92 19.36-10.82 20.18-10.87zm-42.93 24.5c0.65 0 4.38 1.65 8.29 3.68 3.91 2.03 18.3 9.86 31.97 17.4 13.68 7.54 25.8 14.28 26.94 14.97 1.14 0.69 1.67 1.72 1.18 2.27-0.49 0.56-0.22 0.7 0.6 0.28 0.81-0.4 4.4 0.9 14.47 6.52l0.02 48.79c0 31.44-0.41 49-1.17 49.36-0.65 0.3-1.17 1.18-1.16 1.95q0.01 1.4 1.16-0.28c0.89-1.28 1.16-0.9 1.18 1.68 0.04 2.69-0.25 3.06-1.45 1.93-0.83-0.77-2.04-1.42-2.69-1.43-0.65-0.01 0.14 1 1.77 2.25 1.63 1.25 2.56 2.52 2.08 2.82-0.49 0.31-3.3-0.7-6.22-2.23-2.94-1.54-5.07-3.29-4.74-3.9 0.32-0.62-0.07-0.87-0.88-0.56-0.82 0.31-12.67-5.6-26.35-13.14-13.68-7.53-29.77-16.44-35.76-19.8-5.99-3.35-10.66-6.48-10.36-6.93 0.29-0.46-0.13-1.22-0.94-1.68q-1.45-0.83-0.59 0.56c0.49 0.77 0.6 1.39 0.28 1.39-0.33 0-1.65-0.5-2.96-1.11-2.31-1.09-2.36-2.33-2.78-100.99l3.46-1.89c1.91-1.05 4-1.91 4.65-1.91zm-162.52 6.47l6.66 3.66c3.67 2.01 15.98 8.7 48.11 26.06l0.29 8.65c0.17 4.75-0.1 8.63-0.59 8.61-0.48-0.01-5.15-2.44-10.36-5.41-5.21-2.96-17.33-9.59-44.4-24.11zm150.38 0.18c0.48-0.01 0.89 21.31 0.89 94.79l-8.88-5.02c-4.88-2.77-9.14-5.02-9.48-5.02-0.32 0-5.79-2.94-12.13-6.54-6.35-3.59-21.54-11.99-33.75-18.68-12.21-6.68-22.06-12.21-21.91-12.28 0.17-0.08 10.16-5.65 22.21-12.4 12.05-6.75 30.96-17.35 42.03-23.55 11.07-6.2 20.53-11.28 21.02-11.3z"/>
		<path id="Path 4" class="s1" d="m385.93 126.07c-4.55 2.52-24.27 13.46-43.81 24.32-19.53 10.88-40.72 22.6-47.07 26.06-6.34 3.47-11.27 6.56-10.95 6.86 0.32 0.3 8.46-3.78 18.06-9.07 9.6-5.3 31.58-17.51 48.84-27.12 17.27-9.63 34.45-19.1 38.19-21.05 3.74-1.95 6.81-3.8 6.81-4.11 0-0.3-0.4-0.53-0.89-0.51-0.48 0.02-4.62 2.11-9.18 4.62zm-257.65 139.31c-11.98 6.8-24.99 14.04-28.9 16.09l-7.1 3.74c-11.93-6.79-15.93-8.77-16.58-8.77-0.65-0.01-0.12 0.68 1.18 1.53 1.3 0.86 9.17 5.13 17.47 9.49 8.3 4.37 15.37 7.69 15.69 7.39 0.32-0.31-3.01-2.4-7.4-4.64-7.56-3.85-7.87-4.16-5.63-5.66 1.3-0.87 13.56-7.8 27.24-15.39 13.67-7.59 25.67-14.3 26.64-14.9 0.97-0.62 1.2-1.14 0.48-1.17-0.69-0.04-11.09 5.5-23.09 12.29zm316.86 19.57c-5.21 2.82-16.79 9.22-25.74 14.21-8.95 4.99-16.04 9.33-15.73 9.63 0.3 0.3 11.36-5.42 24.56-12.73 13.2-7.3 25.08-13.96 26.38-14.79 1.31-0.82 1.84-1.48 1.19-1.47-0.65 0.01-5.45 2.34-10.66 5.15z"/>
		<path id="Path 5" class="s2" d="m409.38 93.29c-11.84 6.57-21.17 12.27-20.72 12.66 0.46 0.38 4.69 2.52 9.41 4.74 4.73 2.21 8.59 4.53 8.59 5.14 0 0.61-2 2.21-4.44 3.56-2.44 1.34-6.04 3.28-8 4.31-1.95 1.04-13.93 7.64-26.64 14.68-12.69 7.05-37.06 20.54-54.15 29.98-17.07 9.45-31.07 17.56-31.08 18.02-0.01 0.45 7.97 5.09 17.74 10.31l17.76 9.48c19.73-11.05 39.31-21.91 56.24-31.27 16.94-9.35 33.73-18.6 37.3-20.56 3.59-1.95 19.58-10.82 35.53-19.71 15.96-8.87 31.54-17.5 34.63-19.15 3.09-1.65 5.63-3.38 5.64-3.83 0-0.46-12.12-7.48-26.94-15.6-14.83-8.1-27.48-14.74-28.13-14.73-0.66 0.01-10.89 5.4-22.74 11.97zm-312.7 66.32c0.15 29.6 0.42 45.28 0.59 34.85 0.18-10.43 0.46-34.64 0.63-53.81 0.17-19.18-0.11-34.86-0.59-34.86-0.49 0-0.77 24.22-0.63 53.82zm271.35-43.29c-9.03 5.04-36.41 20.12-60.84 33.51-24.41 13.39-44.81 24.65-45.29 25-0.49 0.37 3.11 2.8 7.99 5.41l8.88 4.74c22.49-12.42 39.94-22.14 53.29-29.59 13.35-7.45 34.6-19.27 47.21-26.28 20.76-11.52 22.72-12.87 20.72-14.21-1.22-0.81-5.21-2.9-8.87-4.62l-6.64-3.14zm-128.94 70.98c-9.77 5.49-21.63 12.1-26.36 14.7-4.73 2.61-8.59 4.99-8.57 5.29 0.02 0.31 8.95 5.3 19.86 11.08 10.89 5.78 23.28 12.43 27.5 14.76 4.24 2.33 8.23 4.24 8.88 4.24 0.66 0 12.91-6.47 27.24-14.38 14.33-7.89 26.17-14.79 26.3-15.31 0.14-0.51-12.12-7.57-27.24-15.68-15.11-8.11-28.01-14.72-28.66-14.7-0.65 0.02-9.18 4.52-18.95 10zm92.25 36.56c-8.46 4.69-15.51 9.03-15.67 9.64-0.17 0.61 6.78 5.03 15.44 9.82 8.65 4.78 15.88 8.92 16.03 9.2 0.17 0.28-5.59 3.65-12.78 7.47-7.18 3.84-13.02 7.23-12.97 7.53 0.06 0.31 8.74 5.21 19.29 10.9 10.56 5.69 27.72 14.9 38.14 20.49 10.42 5.6 19.47 10.19 20.13 10.22 0.65 0.04 8.91-4.21 18.35-9.43 9.45-5.21 22.6-12.46 29.23-16.09 6.65-3.63 11.92-6.85 11.72-7.17-0.21-0.3-5.9-3.62-12.66-7.37-6.76-3.75-23.22-12.71-36.58-19.92-13.34-7.22-31.2-16.86-39.67-21.46-8.46-4.59-17.01-9.26-19-10.36l-3.63-2zm-211.41 26.74c-10.83 5.93-25.06 13.81-31.62 17.49-6.56 3.68-11.94 6.93-11.95 7.25-0.01 0.3 3.56 2.49 7.94 4.86 6.32 3.41 8.47 4.08 10.34 3.22 1.3-0.6 13.56-7.36 27.24-15.02 13.67-7.66 27.12-15.14 29.88-16.61 2.77-1.47 5.02-2.92 5.02-3.22-0.01-0.31-3.34-2.43-7.4-4.73-4.05-2.29-7.91-4.13-8.56-4.1-0.65 0.04-10.05 4.92-20.89 10.86zm33.32 2.9c-3.57 2.05-18.08 10.19-32.2 18.09-20.5 11.43-25.3 14.54-23.69 15.37 1.11 0.57 9.22 4.96 18 9.77l15.99 8.73c14.68-8.16 28.81-16.1 40.85-22.92 12.05-6.81 27.91-15.61 35.24-19.56 7.33-3.94 13.34-7.66 13.36-8.28 0.02-0.61-1.06-1.99-2.38-3.07-2.32-1.89-2.83-1.71-15.73 5.44l-13.32 7.38c-11.92-5.57-18.32-8.87-21.91-10.94-3.57-2.06-6.77-3.76-7.1-3.76-0.32 0-3.52 1.68-7.11 3.75zm-97.15 32.5c-9.42 5.21-17.5 9.83-17.98 10.27-0.48 0.45 5.65 4.3 13.62 8.57 7.97 4.26 17.68 9.57 21.59 11.79 3.9 2.22 9.77 5.44 13.02 7.17l5.92 3.13c21.12-11.42 29.26-15.87 31.75-17.27l4.51-2.54c-15.25-8.84-26.61-15.05-35.07-19.51-8.47-4.45-16.49-8.77-17.82-9.6-2.21-1.34-4.09-0.57-19.54 7.99zm399.69-4.69c-2.6 1.44-15.55 8.59-28.77 15.89-13.23 7.29-23.88 13.64-23.68 14.11 0.19 0.45 9.01 5.6 19.6 11.43l19.24 10.6c5.04-3.26 17.97-10.38 31.97-17.91 14.01-7.54 25.89-13.99 26.42-14.35 0.53-0.36-7.87-5.54-18.65-11.52-10.79-5.99-20.02-10.88-20.5-10.87-0.49 0-3.02 1.19-5.63 2.62zm-265.28 63.18c0 26.07 0.15 36.61 0.34 23.42 0.19-13.19 0.19-34.52 0-47.4-0.19-12.88-0.34-2.1-0.34 23.98zm256.12 2.55c-2.44 1.35-4.45 2.71-4.49 3.03-0.03 0.3 6.49 3.93 14.5 8.07 8 4.14 16.95 8.82 19.88 10.4 4.29 2.31 2.46 0.25-9.48-10.58-8.13-7.39-15.06-13.42-15.39-13.4-0.32 0.01-2.58 1.13-5.02 2.48z"/>
		<path id="Path 6" class="s3" d="m266.34 113.22c-8.47 4.68-21.53 11.9-29.01 16.03-7.48 4.14-19.34 10.71-26.34 14.61-6.99 3.91-12.32 7.56-11.84 8.12 0.49 0.56 0.35 0.71-0.3 0.33-0.66-0.36-2.92 0.3-5.04 1.5l-3.85 2.17c0 81.26 0.28 104.85 0.6 104.85 0.32 0 4.82-2.39 9.98-5.3 5.17-2.91 9.08-5.8 8.69-6.41-0.38-0.62-0.21-0.75 0.38-0.32 0.59 0.45 1.88 0.38 2.85-0.13 0.97-0.52 2.05-2.21 2.37-3.75 0.32-1.54 0.19-2.6-0.29-2.36-0.49 0.23-1.07 0.04-1.3-0.41-0.21-0.46-0.21-0.22 0 0.55 0.24 0.82-0.33 1.16-1.37 0.84-1.04-0.32-1.41-1.12-0.89-1.92 0.49-0.75-1.77 0.09-5.03 1.86-3.26 1.78-6.61 3.77-7.45 4.43-1.25 0.98-1.53-7.07-1.48-43.69l0.05-44.89c19.73-10.62 26.52-14.27 27.83-14.96 1.3-0.7 12.89-7.16 25.75-14.34 12.86-7.2 23.66-13.08 23.98-13.08 0.32 0 0.59 10.78 0.59 23.98v23.98l7.11-3.35c0.04-44.08-0.09-56.87-0.27-56.87-0.18 0.01-7.25 3.85-15.72 8.53zm-78.21 81.8c0 22.39 0.17 31.42 0.35 20.08 0.19-11.36 0.19-29.67 0-40.71-0.18-11.05-0.35-1.77-0.35 20.63zm233.9-22.15l-24.25 13.54c4.58 3.13 7.24 4.7 8.86 5.49 1.63 0.8 6.28 3.33 10.37 5.63 4.07 2.3 7.68 4.18 8 4.18 0.32 0 3.39 1.66 6.81 3.71 3.42 2.03 8.22 4.79 10.66 6.13l4.44 2.43c0.04-42.36-0.1-54.65-0.29-54.65-0.19 0-11.26 6.09-24.6 13.54zm-35.89 19.86l-8.09 4.32c0.99 17.88 1.3 25.45 1.32 28.36l0.05 5.3c13.31 7.23 17.7 9.32 18.36 9.32 0.65-0.02 8.64-3.96 17.76-8.79 9.12-4.83 19.77-10.36 23.68-12.29l7.1-3.53c-24.77-13.45-35.97-19.56-40.85-22.26-4.89-2.7-9.41-4.86-10.06-4.82-0.65 0.04-4.82 2.02-9.27 4.39zm-18.99 10.73c-5.11 2.84-9.22 5.74-9.14 6.44 0.09 0.71-0.25 0.93-0.75 0.48-0.51-0.45-2.49 0.03-4.4 1.08-1.9 1.04-3.37 2.28-3.25 2.77 0.11 0.48 0.74 0.61 1.39 0.31 0.65-0.3 1.19-0.06 1.19 0.56 0 0.61 5.33 3.88 11.84 7.25 6.51 3.37 12.1 6.01 12.42 5.85 0.32-0.15 0.46-6.93 0.3-15.08l-0.29-14.8zm97.53 30.52c-2.94 1.69-11.12 6.26-18.2 10.15-7.09 3.89-12.82 7.48-12.73 7.98 0.07 0.5-0.54 0.9-1.34 0.89-0.82-0.02-2.48 0.61-3.68 1.39-2.09 1.34-2.04 1.51 0.88 3.37 3.05 1.92 3.2 1.88 11.09-2.67 4.39-2.53 11.04-6.3 14.8-8.36 3.74-2.07 7.07-3.75 7.4-3.75 0.32 0 0.57 7.39 0.53 16.45-0.03 13.53 0.27 16.7 1.78 17.85 1 0.76 2.48 1.01 3.3 0.55q1.46-0.83 0.59 0.56c-0.48 0.76-0.34 1.4 0.31 1.4 0.75 0 1.16-8.89 1.13-24.54-0.04-13.5-0.18-24.49-0.3-24.45-0.13 0.06-2.64 1.48-5.56 3.18zm-369.07 5.1c0.01 4.29 0.23 5.8 0.48 3.34 0.26-2.45 0.26-5.97 0-7.81-0.26-1.84-0.48 0.17-0.48 4.47zm255.94 61.7c-5.19 2.95-9.99 5.59-10.66 5.85-0.68 0.26-10.53 5.69-21.91 12.06-11.37 6.38-23.74 13.41-27.47 15.62l-6.81 4.03-0.01 108.75c14.22-7.97 21.65-12.11 25.68-14.34 4.08-2.25 6.98-4.56 6.53-5.18-0.44-0.61-0.29-0.77 0.37-0.34 0.63 0.42 5.43-1.52 10.64-4.32 5.21-2.8 11.07-5.96 13.03-7.01 1.95-1.08 8.88-4.96 15.39-8.63 6.51-3.67 13.57-7.5 15.69-8.52l3.85-1.85v-93.69l-7.11-3.35v92.58c-10.56 6.12-18.41 10.55-24.27 13.8-5.86 3.23-17.33 9.55-25.46 14.04-8.15 4.48-17.21 9.58-20.13 11.32-2.94 1.74-5.73 3.18-6.22 3.19-0.49 0.02-0.91-20.92-0.94-46.53l-0.05-46.57c27.15-14.86 43.82-24.04 54.57-29.99 10.74-5.95 20.07-11.3 20.73-11.88 0.77-0.7 0.36-1.63-1.19-2.71-1.3-0.9-2.92-1.65-3.6-1.67-0.67-0.03-5.47 2.38-10.65 5.34zm-316.33-0.94c-0.49 0.61-0.66 5.34-0.35 10.52 0.31 5.16 0.71 9.31 0.89 9.21 0.18-0.11 0.45-4.84 0.59-10.5 0.15-5.68 0.16-10.32 0.03-10.32-0.13 0-0.65 0.49-1.16 1.09zm152.1 47.43c-0.18 26.68 0.07 48.52 0.57 48.52 0.49 0 0.89-21.84 0.89-48.52 0-26.69-0.26-48.52-0.57-48.52-0.32 0-0.71 21.83-0.89 48.52zm190.92 2.78c0 24.54 0.26 44.62 0.59 44.62 0.32 0 4.45-2.2 9.17-4.87 4.72-2.68 16.31-9.14 25.76-14.36 9.44-5.23 18.09-10.32 19.24-11.31 1.14-0.99 2.07-1.56 2.07-1.25 0 0.3 2.8-0.9 6.22-2.7 3.41-1.78 6.35-4.04 6.51-5.02 0.17-1.03-0.31-1.52-1.18-1.18-0.82 0.32-2.55-0.13-3.85-1.01-1.93-1.32-2.3-2.63-1.97-7.01 0.32-4.1-0.03-5.59-1.48-6.22-1.03-0.47-2.41-0.59-3.06-0.28-0.65 0.3-1.06 0.03-0.89-0.6 0.15-0.64-12.36-8.42-27.83-17.29-15.47-8.88-28.39-16.13-28.71-16.13-0.33 0-0.59 20.08-0.59 44.61zm107.75-37.92c0 0.62-0.4 0.89-0.89 0.62-0.5-0.27-6.09 2.36-12.44 5.85-6.36 3.49-11.16 6.82-10.66 7.37 0.5 0.56 0.24 0.68-0.58 0.28-0.82-0.41-4.82 1.06-8.88 3.26-4.08 2.2-7.67 4.2-7.99 4.45-0.34 0.25 2.03 2.59 5.26 5.2 3.23 2.62 6.29 4.63 6.81 4.48 0.52-0.15 0.96 0.35 0.97 1.12 0.02 0.76 4.55 5.53 10.07 10.59 5.52 5.06 10.57 9.2 11.22 9.2 0.66 0 0.98 0.37 0.73 0.84-0.25 0.46 1.61 2.85 4.14 5.3l4.58 4.46c0.02-52.71-0.4-64.13-1.16-64.13-0.65 0-1.18 0.5-1.18 1.11zm-393.89 25.66c0 5.2 0.2 7.21 0.45 4.46 0.24-2.77 0.24-7.03 0-9.48-0.25-2.46-0.45-0.2-0.45 5.02zm190.67 70.26c0 7.05 0.19 9.82 0.43 6.14 0.22-3.68 0.22-9.46 0-12.83-0.24-3.38-0.43-0.37-0.43 6.69z"/>
		<path id="Path 7" class="s1" d="m198.17 346.48l0.06 46.52c58.09 31.98 75.42 41.39 75.97 41.55 0.56 0.15 0.89-20.62 0.72-46.16l-0.29-46.44c-31.2-17.3-48.42-26.75-58.39-32.16l-18.13-9.85z"/>
		<path id="Path 8" class="s2" d="m197.48 342.81c0 5.52 0.21 8.03 0.45 5.57 0.25-2.45 0.25-6.97 0.02-10.03-0.25-3.07-0.45-1.06-0.47 4.46zm78.29 44.61c0 25.15 0.15 35.69 0.34 23.42 0.19-12.26 0.19-32.84 0-45.73-0.19-12.88-0.34-2.84-0.34 22.31z"/>
		<path id="Path 9" class="s3" d="m197.51 321.61c0.01 6.75 0.2 9.26 0.44 5.58 0.23-3.68 0.23-9.2 0-12.27-0.25-3.06-0.44-0.05-0.44 6.69zm0.06 50.75c0 11.35 0.16 15.88 0.39 10.04 0.21-5.83 0.21-15.11 0-20.63-0.23-5.52-0.39-0.75-0.39 10.59z"/>
		<path id="HYPERKIT" class="s4" aria-label="HYPERKIT"  d="m672.9 278h-24v-88.8h24v33.1h35.7v-33.1h24v88.8h-24v-35h-35.7zm130.4-88.8h23.7l-32.6 51.9v36.9h-24v-36.6l-33.8-52.2h25.4l20.8 32.5zm29.6 88.8v-87q15.3-2.9 30-2.9 21.7 0 32.3 8 10.7 7.9 10.7 24.8 0 16.2-10.3 24.4-10.3 8.3-30.5 8.3-1.9 0-5.5-0.1l-2.6-0.1v24.6zm32.4-41.7q9.1 0 13.2-3.5 4.2-3.6 4.2-11.9 0-8.1-4.3-11.8-4.2-3.7-13.3-3.7-4.6 0-8.2 0.6v29.8q4.3 0.5 8.4 0.5zm76.3 5.6v17.7h46.1v18.4h-69.8v-88.8h69.2v18.5h-45.5v15.7h39.3v18.5zm139.5 36.1h-26.2l-21.9-30.9q-1.5 0-3.3 0-1.9-0.1-3-0.1l-2.3-0.2v31.2h-23.6v-86.3q6.8-1.6 15.1-2.6 8.4-1 15.9-1 20.7 0 31 7.2 10.4 7.1 10.4 22.2 0 9.2-4.5 15.7-4.4 6.5-12.6 10zm-56.7-72v23.3q5.4 0.6 9.8 0.6 8.5 0 12.5-2.9 4.1-3 4.1-9.4 0-6.5-4.1-9.5-4.1-3-12.5-3-4.9 0-9.8 0.9zm145.7 72h-26.1l-23.8-34.9h-7.4v34.9h-24v-88.8h24v33.1h7.4l22-33.1h25.2l-28.4 42.9zm29.7 0h-24.1v-88.8h24.1zm62.3 0h-24v-69.4h-29.2v-19.4h82.4v19.4h-29.2z"/>
	</g>
</svg>