<svg version="1.2" xmlns="http://www.w3.org/2000/svg" viewBox="0 0 1024 1024" width="1024" height="1024">
	<style>
		.s0 { opacity: .99;fill: #d9f1fc } 
		.s1 { fill: #19363d } 
		.s2 { opacity: 1;fill: #79c0e6 } 
		.s3 { fill: #3f93c0 } 
	</style>
	<g id="Background">
		<path id="Path 0" class="s0" d="m653.43 419c0 14.02 0.15 19.88 0.32 13 0.17-6.88 0.17-18.35 0-25.5-0.17-7.15-0.32-1.52-0.32 12.5zm-301.07 59c0 5.23 0.17 7.25 0.38 4.5 0.2-2.75 0.2-7.02 0-9.5-0.21-2.48-0.38-0.23-0.38 5zm-51.02 48c0 4.13 0.17 5.92 0.39 4 0.21-1.92 0.21-5.3 0-7.5-0.22-2.2-0.39-0.63-0.39 3.5zm420.01 35.5c0 4.95 0.17 7.2 0.38 5 0.21-2.2 0.21-6.25 0.01-9-0.21-2.75-0.38-0.95-0.39 4z"/>
		<path id="Path 1" class="s1" d="m410.5 311.6c-12.65 7.47-29.98 17.65-38.5 22.63-8.52 4.98-16.28 9.78-17.23 10.66-1.59 1.48-1.73 5.52-1.78 50.61l-0.05 49c7.8 4.26 10.29 5.95 10.56 6.5 0.27 0.55-1.98 2.35-5 4l-5.5 3 0.04 30.5c-19.79 11.79-31.28 18.54-38.3 22.61l-12.75 7.39-0.02 20c9.71 5.67 20.85 12.1 31.03 17.95 14.84 8.54 19.04 10.53 21.25 10.1 2.24-0.45 7.63 2.27 29 14.6 14.44 8.34 36.6 21.22 49.25 28.63 12.65 7.42 35.71 20.85 51.25 29.85 15.54 9 28.81 16.37 29.5 16.38 0.69 0 2.15-0.62 3.25-1.38 1.1-0.77 19.1-11.5 40-23.85 20.9-12.36 51.16-30.18 67.25-39.62 16.09-9.44 29.7-17.16 30.25-17.16 0.55 0 6.29 2.98 12.75 6.61 6.46 3.64 13.44 7.46 15.5 8.5l3.75 1.89 34.5-20.55 0.46-16.95-21.68-32-26.28-15.5 0.07-47.5-19.57-12-0.5-52.5 35.01-20.5-0.51-21.76c-37.98-22.15-49.34-28.39-49.75-28.16-0.41 0.23-10.88-5.43-23.25-12.58-12.38-7.15-22.61-13.01-22.75-13.03-0.14-0.02-14.2 8.12-31.25 18.09-17.05 9.97-34.38 20.1-38.5 22.51-4.13 2.41-8.17 4.38-9 4.38-0.83 0-6-2.61-11.5-5.8-5.5-3.19-22.15-12.9-37-21.58-14.85-8.68-27.45-16.19-28-16.69-0.55-0.5-1.45-0.9-2-0.89-0.55 0.02-11.35 6.14-24 13.61z"/>
		<path id="Path 2" class="s2" d="m688.37 362.5c0.01 6.05 0.17 8.3 0.37 5 0.2-3.3 0.2-8.25 0-11-0.21-2.75-0.37-0.05-0.37 6z"/>
		<path id="Path 3" fill-rule="evenodd" class="s0" d="m433.75 300.03c0.14-0.02 12.74 7.25 28 16.14 15.26 8.89 32.37 18.83 38.02 22.08 5.64 3.25 10.25 6.21 10.23 6.58-0.02 0.37-10.71 6.96-23.77 14.65-13.05 7.69-30.25 17.87-52.73 31.26l-7-4.02c-3.85-2.22-15.55-9.07-26-15.22-10.45-6.16-24.35-14.3-30.9-18.1-6.54-3.79-12.04-7.12-12.22-7.4-0.18-0.27 13.27-8.55 29.9-18.39 16.62-9.84 33.82-20.06 38.22-22.72 4.4-2.65 8.11-4.84 8.25-4.86zm157.5 0.05c0.41-0.05 8.51 4.49 18 10.08 9.49 5.59 18.93 11.1 20.99 12.25 2.06 1.15 3.75 2.43 3.75 2.84 0.01 0.41-1.45 1.49-3.24 2.39-1.79 0.9-12.92 7.35-24.75 14.34-11.83 6.99-27.01 15.93-33.75 19.87-6.74 3.93-12.7 7.15-13.25 7.15-0.55 0-6.29-2.99-12.75-6.64-6.46-3.65-15.74-8.94-20.63-11.75-4.88-2.81-9.04-5.45-9.25-5.86-0.2-0.41 12.12-8.01 27.38-16.88 15.26-8.87 32.02-18.74 37.25-21.92 5.23-3.19 9.84-5.83 10.25-5.87zm-76.97 46.69l3.11 1.91c1.71 1.05 10.95 6.35 20.52 11.79 9.58 5.43 17.35 10.14 17.27 10.45-0.09 0.32-5 3.46-10.92 6.99-5.92 3.52-14.92 8.81-20.01 11.75-5.09 2.94-9.48 5.34-9.75 5.34-0.27 0-0.44-10.85-0.36-24.12zm-157.38 2.4c0.37 0.19 4.93 2.77 10.13 5.76 5.21 2.98 20.95 12.15 34.97 20.39 14.03 8.24 26.53 15.47 30.06 17.19l-0.06 94.5-3.25-1.93c-1.79-1.06-6.17-3.53-9.75-5.48-3.57-1.95-6.39-4-6.25-4.57 0.14-0.56-0.2-0.8-0.75-0.52-0.55 0.27-2.69-0.47-4.75-1.64-2.06-1.17-5.32-3.02-7.25-4.1-1.92-1.08-12.61-7.1-44-24.76l0.12-47.59c0.06-26.17 0.41-47.43 0.78-47.25zm96.35 97.18c5.09 2.94 15.78 9.01 38.25 21.63l7.7 17.76c4.24 9.77 8.21 19.12 8.83 20.77 1.08 2.86 1.05 2.92-0.7 1.38-1.01-0.88-7.45-4.85-14.33-8.82-6.87-3.97-17.4-10.67-23.38-14.89-9.84-6.93-11.13-8.2-13.33-13.17-1.35-3.03-4.38-10-6.73-15.5-2.36-5.5-4.57-11.02-4.92-12.25-0.57-2 0.42-1.64 8.61 3.09zm198.25 1.67c0.55-0.01 4.83 2.32 9.5 5.17 7.96 4.85 8.37 5.27 6.5 6.54-1.1 0.75-9.65 5.86-19 11.36-9.35 5.5-17.22 9.87-17.5 9.71-0.27-0.16-4.45-2.54-9.27-5.29-4.82-2.75-8.84-5.24-8.91-5.52-0.08-0.28 7.02-4.51 15.77-9.4 8.75-4.88 17.26-9.71 18.91-10.72 1.65-1.01 3.45-1.84 4-1.85zm-285.75 5.09c0.69-0.06 6.2 2.71 12.25 6.15 6.05 3.43 10.89 6.64 10.75 7.12-0.14 0.48-2.27 1.99-9.25 5.85l-11.5-6.69c-6.32-3.68-11.61-6.88-11.75-7.11-0.14-0.23 1.66-1.5 4-2.82 2.34-1.32 4.81-2.45 5.5-2.5zm-10.67 7.85l2.21 1.37c1.22 0.76 5.97 3.51 10.56 6.12 4.6 2.61 8.31 5.04 8.26 5.4-0.06 0.36-0.89 1.18-1.86 1.81-1.42 0.94-2.79 0.6-7.25-1.77-3.02-1.61-5.61-2.92-5.75-2.91-0.14 0.02-0.24 2.84-0.22 6.28 0.03 5.7-0.19 6.36-2.5 7.5-1.39 0.68-2.75 1.25-3.03 1.25-0.27 0-0.48-5.64-0.46-12.53zm122.67 33.13c0.69-0.04 6.99 3.23 14 7.28 7.01 4.04 14.21 8.09 19.25 10.64l14.75-8.48c8.11-4.66 15.31-8.49 16-8.5 0.69-0.01 8.79 4.29 18 9.55 9.21 5.27 17.2 9.94 17.75 10.39 0.59 0.48-6.04 4.94-16 10.76-9.35 5.47-23.75 13.95-32 18.86-8.25 4.91-15.23 9.04-15.5 9.2-0.28 0.15-4.33-1.92-9-4.59-4.68-2.68-19.53-11.28-33-19.12-13.48-7.84-25.08-14.77-25.79-15.41-1.02-0.91 2.1-3.24 14.5-10.83 8.68-5.31 16.35-9.7 17.04-9.75zm-36.25 21.97c0.55 0 3.7 1.48 7 3.3 3.3 1.82 15.45 8.84 27 15.6 11.55 6.76 21.79 12.8 22.75 13.42 0.96 0.62 1.41 1.54 1 2.04-0.42 0.5-0.19 0.62 0.5 0.25 0.69-0.36 3.72 0.8 12.22 5.84l0.02 43.75c0 28.18-0.35 43.93-0.99 44.25-0.55 0.27-0.99 1.06-0.98 1.75q0.01 1.25 0.98-0.25c0.75-1.15 0.98-0.81 1 1.5 0.03 2.42-0.21 2.75-1.23 1.73-0.7-0.69-1.72-1.27-2.27-1.28-0.55-0.01 0.12 0.9 1.5 2.02 1.37 1.12 2.16 2.26 1.75 2.53-0.41 0.28-2.78-0.63-5.25-2-2.48-1.38-4.28-2.95-4-3.5 0.27-0.55-0.06-0.78-0.75-0.5-0.69 0.28-10.7-5.02-22.25-11.78-11.55-6.75-25.14-14.74-30.2-17.75-5.06-3.01-9-5.81-8.75-6.22 0.25-0.41-0.11-1.09-0.79-1.5q-1.23-0.75-0.5 0.5c0.41 0.69 0.51 1.25 0.24 1.25-0.28 0-1.4-0.45-2.5-1-1.95-0.98-2-2.09-2.35-90.54l2.92-1.7c1.61-0.94 3.38-1.71 3.93-1.71zm-137.25 5.8l5.62 3.28c3.1 1.8 13.5 7.8 40.63 23.37l0.25 7.75c0.14 4.26-0.09 7.74-0.5 7.72-0.41-0.01-4.35-2.19-8.75-4.85-4.4-2.65-14.64-8.6-37.5-21.62zm127 0.17c0.41-0.01 0.75 19.1 0.75 84.98l-7.5-4.5c-4.12-2.48-7.72-4.5-8-4.5-0.27 0-4.89-2.64-10.25-5.86-5.36-3.22-18.19-10.75-28.5-16.75-10.31-5.99-18.63-10.95-18.5-11.01 0.14-0.07 8.58-5.07 18.75-11.12 10.18-6.05 26.15-15.55 35.5-21.11 9.35-5.56 17.34-10.12 17.75-10.13z"/>
		<path id="Path 4" class="s1" d="m599.5 366.18c-3.85 2.26-20.5 12.07-37 21.81-16.5 9.75-34.39 20.26-39.75 23.36-5.36 3.11-9.52 5.88-9.25 6.15 0.27 0.27 7.14-3.39 15.25-8.13 8.11-4.75 26.67-15.7 41.25-24.32 14.58-8.63 29.09-17.12 32.25-18.87 3.16-1.75 5.75-3.41 5.75-3.68 0-0.27-0.34-0.48-0.75-0.46-0.41 0.02-3.9 1.89-7.75 4.14zm-217.59 124.9c-10.12 6.1-21.11 12.59-24.41 14.43l-6 3.35c-10.07-6.09-13.45-7.86-14-7.86-0.55-0.01-0.1 0.61 1 1.37 1.1 0.77 7.74 4.6 14.75 8.51 7.01 3.92 12.98 6.89 13.25 6.62 0.27-0.27-2.54-2.15-6.25-4.16-6.38-3.45-6.64-3.73-4.75-5.07 1.1-0.78 11.45-6.99 23-13.8 11.55-6.8 21.68-12.82 22.5-13.36 0.82-0.55 1.01-1.02 0.41-1.05-0.59-0.03-9.37 4.93-19.5 11.02zm267.59 17.55c-4.4 2.53-14.18 8.26-21.74 12.74-7.56 4.47-13.54 8.36-13.28 8.63 0.25 0.27 9.59-4.86 20.74-11.41 11.15-6.55 21.18-12.52 22.28-13.26 1.1-0.74 1.55-1.33 1-1.32-0.55 0.01-4.6 2.1-9 4.62z"/>
		<path id="Path 5" class="s2" d="m619.3 336.79c-10 5.89-17.88 11-17.5 11.35 0.39 0.34 3.96 2.26 7.95 4.25 3.99 1.98 7.25 4.06 7.25 4.61 0 0.55-1.69 1.98-3.75 3.19-2.06 1.2-5.1 2.94-6.75 3.87-1.65 0.93-11.77 6.85-22.5 13.16-10.72 6.32-31.3 18.41-45.73 26.88-14.42 8.47-26.24 15.74-26.25 16.15-0.01 0.41 6.73 4.57 14.98 9.25l15 8.5c16.66-9.91 33.2-19.65 47.5-28.04 14.3-8.38 28.48-16.68 31.5-18.43 3.03-1.75 16.53-9.7 30-17.67 13.48-7.96 26.64-15.69 29.25-17.17 2.61-1.48 4.75-3.03 4.76-3.44 0-0.41-10.23-6.7-22.75-13.98-12.52-7.27-23.21-13.22-23.76-13.21-0.55 0.01-9.19 4.84-19.2 10.73zm-264.08 59.46c0.13 26.54 0.35 40.6 0.5 31.25 0.15-9.35 0.39-31.06 0.53-48.25 0.14-17.19-0.09-31.25-0.5-31.25-0.41 0-0.65 21.71-0.53 48.25zm229.16-38.81c-7.63 4.52-30.75 18.04-51.38 30.04-20.62 12.01-37.84 22.1-38.25 22.42-0.41 0.33 2.63 2.51 6.75 4.85l7.5 4.25c18.99-11.14 33.73-19.85 45-26.53 11.28-6.68 29.22-17.28 39.87-23.56 17.53-10.33 19.19-11.54 17.5-12.74-1.03-0.73-4.4-2.6-7.49-4.15l-5.61-2.81zm-108.89 63.64c-8.25 4.92-18.27 10.85-22.26 13.18-4 2.34-7.26 4.47-7.24 4.74 0.02 0.28 7.56 4.75 16.77 9.93 9.2 5.19 19.66 11.15 23.23 13.24 3.58 2.09 6.95 3.8 7.5 3.8 0.55 0 10.9-5.8 23-12.89 12.1-7.08 22.1-13.26 22.21-13.73 0.12-0.46-10.23-6.79-23-14.06-12.76-7.27-23.66-13.2-24.21-13.18-0.55 0.02-7.75 4.05-16 8.97zm77.91 32.78c-7.15 4.2-13.1 8.09-13.24 8.64-0.14 0.55 5.73 4.51 13.04 8.8 7.31 4.29 13.41 8 13.54 8.25 0.14 0.25-4.72 3.27-10.79 6.7-6.07 3.44-11 6.48-10.96 6.75 0.05 0.28 7.38 4.67 16.29 9.77 8.92 5.1 23.41 13.36 32.21 18.37 8.8 5.02 16.45 9.14 17 9.17 0.55 0.03 7.53-3.78 15.5-8.46 7.98-4.67 19.09-11.17 24.69-14.42 5.61-3.26 10.06-6.15 9.89-6.43-0.17-0.27-4.98-3.25-10.69-6.61-5.71-3.36-19.61-11.4-30.89-17.86-11.27-6.47-26.35-15.12-33.5-19.24-7.15-4.12-14.37-8.3-16.05-9.29l-3.06-1.79zm-178.54 23.97c-9.15 5.32-21.17 12.38-26.71 15.68-5.54 3.3-10.08 6.22-10.09 6.5-0.01 0.27 3.01 2.24 6.71 4.36 5.33 3.06 7.15 3.66 8.73 2.89 1.1-0.54 11.45-6.6 23-13.47 11.55-6.87 22.91-13.57 25.24-14.89 2.34-1.32 4.24-2.62 4.24-2.89-0.01-0.28-2.82-2.18-6.25-4.24-3.42-2.05-6.68-3.7-7.23-3.67-0.55 0.03-8.49 4.41-17.64 9.73zm28.14 2.6c-3.02 1.84-15.27 9.14-27.2 16.22-17.31 10.25-21.36 13.04-20 13.78 0.93 0.51 7.78 4.45 15.2 8.76l13.5 7.83c12.4-7.32 24.33-14.44 34.5-20.55 10.18-6.11 23.57-14 29.76-17.54 6.19-3.53 11.27-6.87 11.28-7.42 0.02-0.55-0.89-1.79-2.01-2.75-1.96-1.7-2.39-1.54-13.28 4.87l-11.25 6.62c-10.07-4.99-15.47-7.95-18.5-9.81-3.02-1.85-5.72-3.37-6-3.37-0.27 0-2.97 1.51-6 3.36zm-82.05 29.14c-7.95 4.67-14.78 8.81-15.18 9.21-0.41 0.4 4.77 3.85 11.5 7.68 6.73 3.82 14.93 8.58 18.23 10.57 3.3 1.99 8.25 4.88 11 6.43l5 2.81c17.83-10.24 24.71-14.23 26.81-15.49l3.81-2.27c-12.88-7.93-22.47-13.5-29.62-17.5-7.15-3.99-13.92-7.86-15.05-8.6-1.86-1.2-3.45-0.51-16.5 7.16zm337.55-4.2c-2.2 1.29-13.14 7.7-24.3 14.24-11.17 6.54-20.17 12.23-20 12.65 0.16 0.41 7.61 5.02 16.55 10.25l16.25 9.5c4.26-2.92 15.18-9.3 27-16.05 11.83-6.76 21.87-12.55 22.31-12.87 0.45-0.32-6.64-4.97-15.75-10.33-9.11-5.37-16.9-9.75-17.31-9.74-0.41 0-2.55 1.06-4.75 2.35zm-224.04 56.64c0 23.37 0.13 32.82 0.29 21 0.16-11.83 0.16-30.95 0-42.5-0.16-11.55-0.29-1.88-0.29 21.5zm216.3 2.29c-2.06 1.21-3.76 2.43-3.79 2.71-0.03 0.27 5.48 3.53 12.24 7.24 6.76 3.71 14.32 7.91 16.79 9.32 3.63 2.07 2.08 0.23-8-9.48-6.87-6.63-12.72-12.03-13-12.02-0.27 0.01-2.18 1.02-4.24 2.23z"/>
		<path id="Path 6" class="s3" d="m498.5 354.66c-7.15 4.2-18.18 10.67-24.5 14.37-6.32 3.71-16.33 9.6-22.24 13.1-5.91 3.51-10.41 6.78-10 7.28 0.41 0.5 0.29 0.64-0.26 0.3-0.55-0.33-2.46 0.27-4.25 1.34l-3.25 1.95c0 72.85 0.23 94 0.5 94 0.27 0 4.07-2.14 8.43-4.75 4.37-2.61 7.67-5.2 7.34-5.75-0.32-0.55-0.18-0.67 0.32-0.28 0.5 0.4 1.59 0.34 2.41-0.12 0.82-0.47 1.73-1.98 2-3.36 0.27-1.38 0.16-2.33-0.25-2.12-0.41 0.21-0.9 0.04-1.09-0.37-0.18-0.41-0.18-0.19 0 0.5 0.2 0.73-0.28 1.04-1.16 0.75-0.88-0.29-1.19-1-0.75-1.72 0.41-0.67-1.5 0.08-4.25 1.67-2.75 1.59-5.58 3.38-6.29 3.97-1.06 0.88-1.29-6.34-1.25-39.17l0.04-40.25c16.66-9.52 22.4-12.79 23.5-13.41 1.1-0.63 10.89-6.42 21.75-12.86 10.86-6.45 19.98-11.73 20.25-11.73 0.27 0 0.5 9.67 0.5 21.5v21.5l6-3c0.04-39.52-0.07-50.99-0.22-50.99-0.16 0.01-6.13 3.45-13.28 7.65zm-66.05 73.34c0 20.07 0.14 28.17 0.3 18 0.16-10.18 0.16-26.6 0-36.5-0.16-9.9-0.3-1.58-0.3 18.5zm197.53-19.86l-20.48 12.14c3.87 2.81 6.12 4.21 7.49 4.92 1.37 0.72 5.3 2.99 8.75 5.05 3.44 2.06 6.49 3.75 6.76 3.75 0.27 0 2.86 1.49 5.75 3.32 2.89 1.82 6.94 4.3 9 5.5l3.75 2.18c0.04-37.98-0.08-49-0.24-49-0.16 0-9.51 5.46-20.78 12.14zm-30.31 17.81l-6.83 3.87c0.84 16.03 1.1 22.82 1.12 25.43l0.04 4.75c11.24 6.48 14.95 8.35 15.5 8.35 0.55-0.01 7.3-3.55 15-7.88 7.7-4.33 16.7-9.29 20-11.02l6-3.16c-20.92-12.06-30.38-17.54-34.5-19.96-4.13-2.42-7.95-4.36-8.5-4.32-0.55 0.04-4.07 1.81-7.83 3.94zm-16.03 9.62c-4.32 2.54-7.79 5.14-7.72 5.77 0.07 0.64-0.21 0.83-0.64 0.43-0.43-0.4-2.1 0.03-3.71 0.97-1.61 0.93-2.85 2.04-2.75 2.48 0.1 0.43 0.63 0.55 1.18 0.28 0.55-0.27 1-0.05 1 0.5 0 0.55 4.5 3.48 10 6.5 5.5 3.02 10.22 5.39 10.49 5.25 0.27-0.14 0.39-6.22 0.25-13.52l-0.24-13.27zm82.36 27.36c-2.48 1.52-9.39 5.61-15.37 9.1-5.98 3.49-10.82 6.71-10.75 7.16 0.06 0.44-0.45 0.8-1.13 0.79-0.69-0.01-2.09 0.55-3.11 1.25-1.76 1.2-1.72 1.35 0.75 3.02 2.57 1.72 2.7 1.69 9.36-2.39 3.71-2.27 9.33-5.65 12.5-7.5 3.16-1.85 5.97-3.36 6.25-3.36 0.27 0 0.48 6.63 0.45 14.75-0.03 12.13 0.23 14.97 1.5 16 0.85 0.68 2.1 0.91 2.79 0.5q1.23-0.75 0.5 0.5c-0.41 0.68-0.29 1.25 0.26 1.25 0.63 0 0.98-7.97 0.95-22-0.03-12.1-0.15-21.96-0.25-21.92-0.11 0.05-2.23 1.33-4.7 2.85zm-311.68 4.57c0.01 3.85 0.19 5.2 0.4 3 0.22-2.2 0.22-5.35 0-7-0.22-1.65-0.4 0.15-0.4 4zm216.14 55.32c-4.38 2.65-8.43 5.01-9 5.25-0.57 0.23-8.89 5.1-18.5 10.81-9.6 5.72-20.05 12.02-23.2 14l-5.75 3.62-0.01 97.5c12.01-7.15 18.28-10.86 21.69-12.86 3.44-2.02 5.89-4.09 5.51-4.64-0.37-0.55-0.24-0.69 0.31-0.31 0.54 0.38 4.59-1.36 8.99-3.87 4.4-2.51 9.35-5.34 11-6.29 1.65-0.96 7.5-4.44 13-7.73 5.5-3.29 11.46-6.73 13.25-7.64l3.25-1.66v-84l-6-3v83c-8.92 5.49-15.55 9.46-20.5 12.37-4.95 2.9-14.63 8.57-21.5 12.59-6.88 4.02-14.53 8.59-17 10.15-2.48 1.56-4.84 2.85-5.25 2.86-0.42 0.02-0.77-18.76-0.8-41.72l-0.04-41.75c22.93-13.32 37.01-21.55 46.09-26.89 9.07-5.33 16.95-10.13 17.5-10.65 0.65-0.63 0.31-1.46-1-2.43-1.1-0.81-2.47-1.48-3.04-1.5-0.57-0.02-4.62 2.14-9 4.79zm-267.14-0.84c-0.42 0.55-0.56 4.79-0.3 9.43 0.26 4.63 0.6 8.35 0.75 8.26 0.16-0.1 0.38-4.34 0.5-9.42 0.13-5.09 0.14-9.25 0.03-9.25-0.11 0-0.55 0.44-0.98 0.98zm128.45 42.52c-0.15 23.92 0.06 43.5 0.48 43.5 0.41 0 0.75-19.58 0.75-43.5 0-23.93-0.22-43.5-0.48-43.5-0.27 0-0.6 19.57-0.75 43.5zm161.23 2.5c0 22 0.22 40 0.5 40 0.27 0 3.76-1.97 7.75-4.37 3.98-2.4 13.77-8.19 21.75-12.87 7.97-4.69 15.28-9.25 16.25-10.14 0.96-0.89 1.75-1.4 1.75-1.12 0 0.27 2.36-0.81 5.25-2.42 2.88-1.6 5.36-3.62 5.5-4.5 0.14-0.93-0.26-1.37-1-1.06-0.69 0.29-2.15-0.12-3.25-0.91-1.63-1.18-1.94-2.35-1.66-6.28 0.27-3.68-0.03-5.01-1.25-5.58-0.87-0.42-2.04-0.53-2.59-0.25-0.55 0.27-0.89 0.03-0.75-0.54 0.13-0.57-10.44-7.55-23.5-15.5-13.07-7.96-23.98-14.46-24.25-14.46-0.28 0-0.5 18-0.5 40zm91-34c0 0.55-0.34 0.8-0.75 0.55-0.42-0.24-5.14 2.12-10.51 5.25-5.37 3.13-9.42 6.11-9 6.61 0.42 0.5 0.2 0.61-0.49 0.25-0.69-0.37-4.07 0.95-7.5 2.92-3.44 1.97-6.48 3.77-6.75 3.99-0.28 0.22 1.72 2.32 4.45 4.66 2.72 2.35 5.31 4.15 5.75 4.02 0.44-0.14 0.81 0.31 0.82 1 0.01 0.68 3.84 4.96 8.5 9.5 4.66 4.53 8.93 8.25 9.48 8.25 0.55 0 0.82 0.33 0.61 0.75-0.21 0.41 1.36 2.55 3.5 4.75l3.87 4c0.01-47.26-0.34-57.5-0.98-57.5-0.55 0-1 0.45-1 1zm-332.65 23c0 4.67 0.17 6.47 0.38 4 0.21-2.48 0.21-6.3 0-8.5-0.21-2.2-0.38-0.18-0.38 4.5zm161.03 63c0 6.32 0.16 8.8 0.36 5.5 0.19-3.3 0.19-8.48 0-11.5-0.2-3.03-0.36-0.33-0.36 6z"/>
		<path id="Path 7" class="s1" d="m440.93 563.79l0.05 41.71c49.06 28.67 63.69 37.11 64.16 37.25 0.47 0.14 0.75-18.48 0.61-41.38l-0.25-41.64c-26.35-15.51-40.89-23.98-49.31-28.83l-15.31-8.83z"/>
		<path id="Path 8" class="s2" d="m440.35 560.5c0 4.95 0.17 7.2 0.38 5 0.21-2.2 0.21-6.25 0.01-9-0.21-2.75-0.38-0.95-0.39 4zm66.11 40c0 22.55 0.13 32 0.29 21 0.16-11 0.16-29.45 0-41-0.16-11.55-0.29-2.55-0.29 20z"/>
		<path id="Path 9" class="s3" d="m440.37 541.5c0.01 6.05 0.17 8.3 0.37 5 0.2-3.3 0.2-8.25 0-11-0.21-2.75-0.37-0.05-0.37 6zm0.05 45.5c0 10.17 0.14 14.23 0.33 9 0.18-5.23 0.18-13.55 0-18.5-0.19-4.95-0.33-0.67-0.33 9.5z"/>
	</g>
</svg>