<?xml version="1.0" encoding="UTF-8"?>
<svg id="Capa_1" xmlns="http://www.w3.org/2000/svg" viewBox="0 0 1920 800">
  <defs>
    <style>
      .cls-1, .cls-2 {
        fill: #fff;
      }

      .cls-2 {
        fill-rule: evenodd;
      }
    </style>
  </defs>
  <polygon class="cls-1" points="376.82 357.45 254.08 357.45 254.08 259.46 210 259.46 210 496.8 254.08 496.8 254.08 395.08 376.82 395.08 376.82 496.8 420.56 496.8 420.56 259.46 376.82 259.46 376.82 357.45"/>
  <path class="cls-1" d="M545.43,450.07l-57.4-134.33h-43.74l79.07,181.44-3.12,7.08c-4.07,9.27-8.48,15.82-13.22,19.66-4.75,3.84-10.97,5.77-18.65,5.77-5.88,0-11.48-1.13-16.78-3.39-5.31-2.26-10.12-5.2-14.41-8.82l-16.61,30.85c5.65,5.2,12.88,9.27,21.7,12.21,8.82,2.93,17.74,4.41,26.78,4.41,9.94,0,19.16-1.64,27.63-4.92,8.48-3.28,16.16-8.82,23.06-16.61,6.89-7.8,13.17-18.37,18.82-31.7l84.77-195.98h-40.69l-57.2,134.33Z"/>
  <path class="cls-1" d="M843.2,357.45c-8.03-14.01-18.93-24.86-32.72-32.55-13.79-7.68-29.5-11.53-47.13-11.53-15.15,0-28.82,3.34-41.03,10-7.18,3.93-13.38,9.1-18.65,15.45v-23.08h-40.35v246.84h42.04v-87.85c5.12,5.9,10.98,10.74,17.63,14.44,11.98,6.67,25.43,10,40.35,10,17.63,0,33.34-3.84,47.13-11.53,13.79-7.68,24.69-18.48,32.72-32.38,8.02-13.9,12.04-30.23,12.04-49s-4.02-34.81-12.04-48.83ZM805.05,436.11c-4.75,8.59-11.14,15.26-19.16,20-8.03,4.75-17.24,7.12-27.63,7.12s-18.99-2.37-27.13-7.12c-8.14-4.75-14.58-11.41-19.33-20-4.75-8.59-7.12-18.53-7.12-29.84s2.37-21.53,7.12-30.01c4.75-8.48,11.19-15.03,19.33-19.66,8.14-4.63,17.18-6.95,27.13-6.95s19.61,2.32,27.63,6.95c8.02,4.63,14.41,11.19,19.16,19.66,4.75,8.48,7.12,18.48,7.12,30.01s-2.37,21.25-7.12,29.84Z"/>
  <path class="cls-1" d="M1014.59,325.07c-13.79-7.8-29.5-11.7-47.13-11.7s-34.19,4.01-48.32,12.04c-14.13,8.03-25.21,18.99-33.23,32.89-8.03,13.9-12.04,29.9-12.04,47.98s4.12,34.08,12.38,47.98c8.25,13.9,19.89,24.87,34.92,32.89,15.03,8.03,32.6,12.04,52.72,12.04,15.82,0,29.89-2.49,42.21-7.46,12.32-4.97,22.66-12.21,31.03-21.7l-23.06-26.45c-6.33,6.56-13.56,11.53-21.7,14.92-8.14,3.39-17.29,5.08-27.46,5.08-11.98,0-22.5-2.32-31.53-6.95-9.04-4.63-15.99-11.13-20.85-19.5-3.06-5.27-5.16-11.03-6.29-17.29h142.08c.22-1.8.39-3.9.51-6.27.11-2.37.17-4.35.17-5.93,0-19.21-3.96-35.82-11.87-49.84-7.92-14.01-18.77-24.92-32.55-32.72ZM921.69,373.38c4.29-8.14,10.45-14.41,18.48-18.82,8.02-4.41,17.12-6.61,27.29-6.61s19.44,2.2,27.13,6.61c7.68,4.41,13.73,10.63,18.14,18.65,3.09,5.63,5.02,11.8,5.83,18.48h-102.62c.94-6.67,2.84-12.78,5.75-18.31Z"/>
  <path class="cls-1" d="M1133.6,342.06v-26.31h-40.35v181.06h42.04v-87.48c0-18.99,4.75-33.11,14.24-42.39,9.49-9.26,22.38-13.9,38.65-13.9,1.36,0,2.82.06,4.41.17,1.58.12,3.16.28,4.75.51v-40.35c-16.95,0-31.31,3.22-43.06,9.66-8.69,4.76-15.58,11.11-20.68,19.02Z"/>
  <rect class="cls-1" x="1228.88" y="315.74" width="42.04" height="181.06"/>
  <path class="cls-1" d="M1249.9,235.04c-7.92,0-14.41,2.49-19.5,7.46-5.09,4.97-7.63,10.85-7.63,17.63,0,7.24,2.54,13.34,7.63,18.31,5.09,4.97,11.58,7.46,19.5,7.46s14.69-2.54,19.66-7.63c4.97-5.09,7.46-11.24,7.46-18.48s-2.54-13.16-7.63-17.8c-5.09-4.63-11.59-6.95-19.5-6.95Z"/>
  <path class="cls-1" d="M1700,347.95c-6.67-11.75-15.6-20.45-26.79-26.11-11.19-5.65-24.13-8.47-38.82-8.47-15.82,0-29.79,3.17-41.87,9.49-8.07,4.22-14.77,9.63-20.17,16.17v-23.29h-40.35v181.06h42.04v-91.55c0-12.21,2.09-22.32,6.27-30.35,4.18-8.02,10.11-14.07,17.8-18.14,7.68-4.07,16.5-6.1,26.45-6.1,13.78,0,24.41,3.96,31.87,11.87,7.46,7.92,11.19,19.89,11.19,35.94v98.33h42.38v-103.75c0-18.31-3.34-33.34-10-45.09Z"/>
  <g>
    <path class="cls-2" d="M1451.29,361.96c-1.95.16-3.96.35-5.93.6-1.82.25-3.61.57-5.4.91,3.23,2.83,6.18,6,8.73,9.48,4.08,5.59,6.25,11.71,3.48,18.49-4.87,12.02-22.26,22.67-31.87,29.79,15.73-7.69,31.93-17.64,44.24-29.32,4.27-4.05,16.45-16.92,13.41-23.83-3.05-6.91-20.75-6.53-26.65-6.12Z"/>
    <path class="cls-2" d="M1485.37,358.12c-8.25-13.78-19.66-24.69-34.25-32.72-14.58-8.02-31.25-12.04-50.01-12.04s-35.04,4.01-49.5,12.04c-14.47,8.03-25.89,18.94-34.25,32.72-8.37,13.79-12.55,29.84-12.55,48.15s4.18,33.79,12.55,47.81c8.36,14.02,19.84,25.04,34.41,33.06,14.58,8.03,31.03,12.04,49.33,12.04s35.15-4.01,49.84-12.04c14.69-8.02,26.16-18.99,34.41-32.89,8.25-13.9,12.38-29.89,12.38-47.98s-4.13-34.36-12.38-48.15ZM1459.58,407.23c-.41,30.99-25.65,56.01-56.76,56.01-5.05,0-9.92-.75-14.63-1.92-24.49-6.06,5.24-17.05,13-22.26-6.34,2.45-12.81,4.55-19.4,6.34-5.62,1.57-11.08,2.83-16.26,3.74l-.13.03c-24.3,4.33-42.67,1.66-47.19-8.57-3.77-8.48,6.56-22.16,21.76-35.35-.06,1.7-.03,3.36.09,5.05-.6.5-1.16,1.04-1.73,1.57-4.27,4.05-16.45,16.92-13.41,23.83,3.05,6.91,20.78,6.53,26.65,6.12,2.07-.16,4.21-.38,6.31-.63-7.44-9.61-11.87-21.66-11.87-34.75,0-31.36,25.43-56.79,56.79-56.79,11.84,0,22.82,3.61,31.9,9.79,2.07-.5,4.14-.97,6.25-1.38,22.26-3.33,38.87-.44,43.14,9.23,4.46,10.08-5.56,25.12-24.52,39.93Z"/>
  </g>
</svg>