<?xml version="1.0" encoding="UTF-8"?>
<svg id="Capa_1" xmlns="http://www.w3.org/2000/svg" viewBox="0 0 800 800">
  <defs>
    <style>
      .cls-1 {
        fill-rule: evenodd;
      }
    </style>
  </defs>
  <path class="cls-1" d="M568.46,250.69c-6.56.53-13.33,1.16-19.99,2.01-6.14.85-12.16,1.9-18.19,3.07,10.89,9.52,20.84,20.2,29.4,31.94,13.75,18.83,21.05,39.45,11.74,62.3-16.39,40.51-74.99,76.37-107.36,100.38,52.99-25.91,107.57-59.45,149.03-98.79,14.39-13.64,55.43-57.01,45.16-80.28-10.26-23.27-69.92-22-89.8-20.63Z"/>
  <path class="cls-1" d="M683.3,237.78c-27.81-46.44-66.25-83.19-115.38-110.23-49.12-27.02-105.29-40.55-168.5-40.55s-118.05,13.53-166.78,40.55c-48.75,27.04-87.21,63.8-115.38,110.23-28.18,46.47-42.27,100.53-42.27,162.22s14.09,113.86,42.27,161.07c28.17,47.23,66.83,84.36,115.95,111.38,49.12,27.04,104.53,40.56,166.21,40.56s118.41-13.52,167.93-40.56c49.5-27.02,88.14-63.97,115.95-110.81,27.79-46.84,41.7-100.7,41.7-161.64s-13.9-115.75-41.7-162.22ZM596.39,403.21c-1.38,104.4-86.42,188.7-191.24,188.7-17.03,0-33.42-2.54-49.29-6.45-82.5-20.41,17.66-57.44,43.79-74.99-21.37,8.25-43.16,15.34-65.37,21.37-18.93,5.29-37.34,9.52-54.79,12.59l-.42.11c-81.87,14.6-143.75,5.61-158.98-28.88-12.69-28.56,22.11-74.68,73.3-119.1-.21,5.71-.11,11.32.32,17.03-2.01,1.69-3.91,3.49-5.82,5.29-14.39,13.65-55.43,57.01-45.16,80.28,10.26,23.27,70.02,22,89.8,20.63,6.98-.53,14.17-1.27,21.26-2.11-25.07-32.37-39.98-72.98-39.98-117.09,0-105.67,85.68-191.34,191.34-191.34,39.88,0,76.9,12.16,107.47,33,6.98-1.69,13.96-3.28,21.05-4.65,74.99-11.21,130.95-1.48,145.33,31.1,15.02,33.95-18.72,84.62-82.61,134.54Z"/>
</svg>