<?xml version="1.0" encoding="UTF-8"?>
<svg id="Capa_1" xmlns="http://www.w3.org/2000/svg" viewBox="0 0 1920 800">
  <defs>
    <style>
      .cls-1, .cls-2 {
        fill: #fff;
      }

      .cls-2 {
        fill-rule: evenodd;
      }

      .cls-3 {
        fill: #00cfff;
      }
    </style>
  </defs>
  <path class="cls-3" d="M325.99,260.92c0-59.64-48.35-108-108-108s-108,48.35-108,108,48.35,108,108,108,108-48.35,108-108"/>
  <path d="M290.88,255.53c0-.26-4.67-3.24-7.13-4.8-1.07-.67-2.04-1.45-2.94-2.33-1.84-1.82-4.91-5-5.91-6.96-.64-1.25-.38-3.5.12-5.65.87-3.77.21-7.73-1.82-11.03l-3.2-5.21c-1.46-2.38-2.67-4.92-3.53-7.58-.77-2.38-2.36-5.84-5.6-9.01-5.2-5.08-19.61-7.58-31.58-7.98-.73-.21-1.47-.4-2.25-.54-5.33-.91-11.01-2.37-16.11-1.42-7.57,1.41-15.23,3.78-20.94,9.64-1.15,1.18-2.95,1.74-4.19,2.86-2.46,2.22-5.77,2.22-7.96,4.69-1.28,1.44-1.87,6.13-5.23,7.93-5.55,2.97-9.66,6.25-11,7.92-1.02,1.26-1.8,2.73-2.79,4.01-1.01,1.32-5.79,3.55-7.18,4.94-1.38,1.39-3.25,4.79-2.42,8.8.08.37.14.67.19.91.55,2.04,2.03,5.73,1.69,7.43-.4,2.01-5.56,16.96,5.97,20.95,2.4.83,3.42,2.45,3.68,4.91.2,1.84.75,3.72,1.71,5.75,1.05,2.21,3.12,3.42,3.29,3.56.7.61,3.93,3.99,4.2,4.48,4.09,7.56,2.94,11.34,10.77,13.91,2.01.66,3.95,1.55,5.76,2.64,2.76,1.65,5.25,2.59,7.06,3.13.07.02.18.06.31.11,1.74-4.2,3.5-8.19,5.26-11.94-14.1-14.45-10.39-30.65-9.04-34.99.18-.56.87-.75,1.31-.36,2.96,2.59,11.95,11.94,10.9,28.82,3.11-6.21,6.14-11.68,8.9-16.34-10.17-17.24-2.59-32.35-.2-36.33.31-.51,1.04-.53,1.37-.04,2.07,3.08,7.71,13.17,4.22,27.71,2.53-3.87,4.58-6.73,5.93-8.53,3.63-24.04,21.79-31.92,26.56-33.59.56-.2,1.13.25,1.08.83-.44,4.97-3.51,24.11-24.56,33.94-2.53,3.33-4.97,6.84-7.3,10.44,8.05-6.29,19.33-9.25,28.71-6.98.57.14.83.81.47,1.28-2.69,3.57-13.41,15.6-33.61,12.85-3.41,5.75-6.54,11.58-9.32,17.16,8.72-6.6,21.46-9.12,31.35-5.8.57.19.77.9.36,1.34-3.07,3.3-14.89,14.15-34.33,9.85-1.82,3.85-4.54,10.18-5.87,13.31-.46,1.08-.88,2.16-1.25,3.27-.86,2.55-2.02,5.73-3.4,8.91-.83,1.91.16,4.11,2.12,4.82,8.32,2.99,17.28,4.61,26.63,4.61,7.29,0,14.35-.99,21.06-2.85,1.05-.29,1.91-1.06,2.33-2.07.33-.78.65-1.51.65-1.51,0,0,6.78-15.75,7.78-22.61.39-2.7,1.18-4.72,1.98-6.18,1.08-1.96,3.08-3.22,5.31-3.34,5.17-.27,16.17-1,20.17-2.26,5.32-1.69,3.01-11.38,2.73-12.42-.28-1.05,2.56-3.47,3.14-4.89.59-1.42-1.44-1.9-2.26-3.46-.82-1.56,2.05-2.67,2.46-4.08.41-1.42-.94-2.96-1.48-4.01-.55-1.04-.75-2.35-.75-2.35,0,0,3.89-2.85,5.96-4.65,2.07-1.8,1.68-3.28,1.68-3.63"/>
  <g>
    <polygon class="cls-1" points="433.89 297.07 433.89 254 418.31 285.36 409.15 285.36 393.56 254 393.56 297.07 376.86 297.07 376.86 224.77 394.99 224.77 413.73 262.55 432.57 224.77 450.59 224.77 450.59 297.07 433.89 297.07"/>
    <polygon class="cls-1" points="525.44 282.41 525.44 297.07 474.62 297.07 474.62 224.77 524.52 224.77 524.52 239.44 491.32 239.44 491.32 253.49 519.84 253.49 519.84 267.03 491.32 267.03 491.32 282.41 525.44 282.41"/>
    <polygon class="cls-1" points="600.9 239.44 578.9 239.44 578.9 297.07 562.2 297.07 562.2 239.44 540.1 239.44 540.1 224.77 600.9 224.77 600.9 239.44"/>
    <rect class="cls-1" x="619.22" y="224.77" width="16.7" height="72.3"/>
    <path class="cls-1" d="M703.34,246.05c-.2-.34-.92-.87-2.14-1.58-1.22-.71-2.75-1.48-4.58-2.29-1.83-.81-3.84-1.53-6.01-2.14-2.17-.61-4.35-.92-6.52-.92-2.85,0-5.06.49-6.62,1.47-1.56.98-2.34,2.48-2.34,4.5,0,1.62.59,2.9,1.78,3.84,1.19.95,2.9,1.77,5.14,2.48,2.24.71,4.99,1.53,8.25,2.48,4.62,1.21,8.62,2.68,12.02,4.4,3.39,1.72,5.99,3.93,7.79,6.62,1.8,2.7,2.7,6.27,2.7,10.72,0,4.05-.75,7.47-2.24,10.27-1.49,2.8-3.51,5.06-6.06,6.78-2.55,1.72-5.45,2.97-8.71,3.74-3.26.77-6.62,1.16-10.08,1.16s-7.15-.36-10.85-1.07c-3.7-.71-7.25-1.73-10.64-3.05-3.4-1.32-6.52-2.94-9.37-4.84l7.33-14.56c.27.34,1.15.97,2.65,1.88,1.49.92,3.34,1.87,5.55,2.85,2.21.99,4.67,1.85,7.38,2.6,2.71.75,5.46,1.12,8.25,1.12,2.99,0,5.21-.46,6.67-1.4,1.46-.93,2.19-2.23,2.19-3.89,0-1.82-.76-3.24-2.29-4.25-1.53-1.01-3.6-1.92-6.21-2.73-2.61-.81-5.62-1.72-9.01-2.73-4.41-1.35-8.06-2.87-10.95-4.56-2.89-1.69-5.02-3.75-6.42-6.18-1.39-2.43-2.09-5.47-2.09-9.12,0-5.06,1.2-9.33,3.61-12.81,2.41-3.48,5.65-6.11,9.72-7.9,4.07-1.79,8.52-2.68,13.34-2.68,3.39,0,6.67.41,9.83,1.22,3.16.81,6.11,1.83,8.86,3.05,2.75,1.22,5.21,2.44,7.38,3.67l-7.33,13.85Z"/>
  </g>
  <polygon class="cls-1" points="536.25 448.81 418.98 448.81 418.98 355.19 376.86 355.19 376.86 581.96 418.98 581.96 418.98 484.77 536.25 484.77 536.25 581.96 578.04 581.96 578.04 355.19 536.25 355.19 536.25 448.81"/>
  <path class="cls-1" d="M697.35,537.31l-54.84-128.34h-41.79l75.55,173.36-2.98,6.76c-3.89,8.85-8.1,15.12-12.63,18.79-4.54,3.67-10.48,5.51-17.82,5.51-5.62,0-10.96-1.08-16.04-3.24-5.08-2.16-9.67-4.97-13.77-8.42l-15.87,29.48c5.4,4.97,12.31,8.85,20.73,11.66,8.42,2.8,16.95,4.21,25.59,4.21,9.5,0,18.3-1.57,26.4-4.7,8.1-3.13,15.44-8.42,22.03-15.87,6.59-7.45,12.58-17.55,17.98-30.29l80.99-187.24h-38.87l-54.65,128.34Z"/>
  <path class="cls-1" d="M981.84,448.81c-7.67-13.39-18.09-23.75-31.26-31.1-13.18-7.34-28.18-11.01-45.03-11.01-14.47,0-27.54,3.19-39.2,9.56-6.86,3.75-12.79,8.69-17.82,14.76v-22.05h-38.55v235.84h40.17v-83.93c4.89,5.64,10.49,10.26,16.85,13.8,11.44,6.37,24.3,9.56,38.55,9.56,16.85,0,31.85-3.67,45.03-11.02,13.17-7.34,23.59-17.66,31.26-30.94,7.66-13.28,11.5-28.88,11.5-46.81s-3.84-33.26-11.5-46.65ZM945.39,523.97c-4.54,8.21-10.64,14.58-18.3,19.11-7.67,4.54-16.47,6.8-26.4,6.8s-18.14-2.27-25.92-6.8-13.93-10.9-18.47-19.11c-4.54-8.21-6.8-17.71-6.8-28.51s2.27-20.57,6.8-28.67c4.54-8.1,10.69-14.36,18.47-18.79,7.77-4.42,16.41-6.64,25.92-6.64s18.73,2.22,26.4,6.64c7.66,4.43,13.77,10.69,18.3,18.79,4.54,8.1,6.8,17.66,6.8,28.67s-2.27,20.3-6.8,28.51Z"/>
  <path class="cls-1" d="M1145.59,417.88c-13.18-7.45-28.18-11.18-45.03-11.18s-32.67,3.84-46.16,11.5c-13.5,7.67-24.08,18.14-31.75,31.42-7.67,13.28-11.5,28.56-11.5,45.84s3.94,32.56,11.82,45.84c7.88,13.28,19,23.76,33.37,31.42,14.36,7.67,31.15,11.5,50.37,11.5,15.12,0,28.56-2.37,40.33-7.13,11.77-4.75,21.65-11.66,29.64-20.73l-22.03-25.27c-6.05,6.26-12.96,11.01-20.73,14.25-7.77,3.24-16.52,4.86-26.24,4.86-11.45,0-21.49-2.21-30.13-6.64-8.64-4.42-15.28-10.64-19.92-18.63-2.93-5.03-4.93-10.54-6.01-16.52h135.75c.21-1.72.37-3.72.49-5.99.11-2.27.16-4.16.16-5.67,0-18.35-3.78-34.23-11.34-47.62-7.56-13.39-17.93-23.81-31.1-31.26ZM1056.83,464.04c4.1-7.77,9.99-13.77,17.66-17.98,7.66-4.21,16.36-6.32,26.08-6.32s18.57,2.11,25.92,6.32c7.34,4.21,13.12,10.15,17.33,17.82,2.95,5.38,4.79,11.27,5.57,17.66h-98.05c.89-6.37,2.71-12.21,5.5-17.49Z"/>
  <path class="cls-1" d="M1259.29,434.11v-25.14h-38.55v172.99h40.17v-83.58c0-18.14,4.54-31.64,13.61-40.5,9.07-8.85,21.38-13.28,36.93-13.28,1.3,0,2.7.05,4.21.16,1.51.11,3.02.27,4.54.49v-38.55c-16.2,0-29.91,3.08-41.14,9.23-8.3,4.55-14.88,10.61-19.76,18.17Z"/>
  <rect class="cls-1" x="1350.32" y="408.97" width="40.17" height="172.99"/>
  <path class="cls-1" d="M1370.41,331.87c-7.56,0-13.77,2.38-18.63,7.13-4.86,4.75-7.29,10.37-7.29,16.84,0,6.92,2.43,12.75,7.29,17.5,4.86,4.75,11.07,7.13,18.63,7.13s14.03-2.43,18.79-7.29c4.75-4.86,7.13-10.74,7.13-17.66s-2.43-12.58-7.29-17.01c-4.86-4.42-11.07-6.64-18.63-6.64Z"/>
  <path class="cls-1" d="M1800.44,439.74c-6.37-11.23-14.9-19.54-25.59-24.94-10.69-5.39-23.06-8.1-37.09-8.1-15.12,0-28.46,3.03-40.01,9.07-7.71,4.03-14.11,9.2-19.27,15.45v-22.25h-38.55v172.99h40.17v-87.47c0-11.66,2-21.33,5.99-28.99,3.99-7.66,9.66-13.45,17.01-17.33,7.34-3.89,15.76-5.83,25.27-5.83,13.17,0,23.32,3.78,30.45,11.34,7.13,7.56,10.69,19.01,10.69,34.34v93.95h40.49v-99.13c0-17.49-3.19-31.85-9.56-43.08Z"/>
  <g>
    <path class="cls-2" d="M1562.82,453.12c-1.86.15-3.78.33-5.67.57-1.74.24-3.45.54-5.16.87,3.09,2.7,5.91,5.73,8.34,9.06,3.9,5.34,5.97,11.19,3.33,17.67-4.65,11.49-21.27,21.66-30.45,28.47,15.03-7.35,30.51-16.86,42.26-28.02,4.08-3.87,15.72-16.17,12.81-22.77-2.91-6.6-19.83-6.24-25.47-5.85Z"/>
    <path class="cls-2" d="M1595.39,449.46c-7.89-13.17-18.79-23.59-32.72-31.26-13.93-7.66-29.86-11.5-47.78-11.5s-33.48,3.84-47.3,11.5c-13.82,7.67-24.73,18.09-32.72,31.26-7.99,13.18-11.99,28.51-11.99,46s3.99,32.29,11.99,45.68c7.99,13.39,18.95,23.92,32.88,31.59,13.93,7.67,29.64,11.5,47.13,11.5s33.58-3.83,47.62-11.5c14.04-7.66,24.99-18.14,32.88-31.42,7.88-13.28,11.82-28.56,11.82-45.84s-3.94-32.82-11.82-46ZM1570.74,496.38c-.39,29.61-24.51,53.51-54.23,53.51-4.83,0-9.48-.72-13.98-1.83-23.4-5.79,5.01-16.29,12.42-21.27-6.06,2.34-12.24,4.35-18.54,6.06-5.37,1.5-10.59,2.7-15.54,3.57l-.12.03c-23.22,4.14-40.76,1.59-45.08-8.19-3.6-8.1,6.27-21.18,20.79-33.77-.06,1.62-.03,3.21.09,4.83-.57.48-1.11.99-1.65,1.5-4.08,3.87-15.72,16.17-12.81,22.77,2.91,6.6,19.86,6.24,25.47,5.85,1.98-.15,4.02-.36,6.03-.6-7.11-9.18-11.34-20.7-11.34-33.2,0-29.97,24.3-54.26,54.26-54.26,11.31,0,21.81,3.45,30.48,9.36,1.98-.48,3.96-.93,5.97-1.32,21.27-3.18,37.13-.42,41.21,8.82,4.26,9.63-5.31,24-23.43,38.15Z"/>
  </g>
</svg>