<svg version="1.2" xmlns="http://www.w3.org/2000/svg" viewBox="0 0 2175 870" width="2175" height="870">
	<style>
		.s0 { fill: #ffffff } 
	</style>
	<g id="Background">
		<path id="Path 0" fill-rule="evenodd" class="s0" d="m567.65 183.46c34.08 0.48 36.65 0.82 55.69 7.29 10.99 3.74 26.58 10.74 34.67 15.57 8.09 4.82 20.72 14.46 28.08 21.42 7.35 6.97 17.46 18.82 22.44 26.33 5 7.52 11.89 19.81 15.34 27.31 3.43 7.53 8.34 21.71 10.91 31.53 2.83 10.9 5.08 27.27 5.75 42.02 0.61 13.3 0.4 27.01-0.44 30.47-1.43 5.72-2.2 4.35-8.44-14.71-3.79-11.55-10.43-28.09-14.74-36.77-4.3-8.66-14.12-25.13-21.81-36.59-7.69-11.45-20.59-27.42-28.68-35.47-8.09-8.05-22.28-19.62-31.53-25.72-9.24-6.09-22.71-13.53-29.94-16.54-7.23-3-19.99-7.31-28.37-9.58-8.39-2.27-23.75-5.23-34.15-6.58-11.05-1.45-27.65-1.91-39.93-1.13-11.55 0.71-24.79 1.81-29.42 2.42-8.3 1.07-8.23 1 4.21-4.96 6.93-3.34 19.71-8.03 28.37-10.43 8.67-2.39 18.13-4.81 21.01-5.38 2.9-0.54 21.33-0.77 40.98-0.5zm-126.09 30.89c1.16 0.02-0.73 2.06-4.2 4.54-3.47 2.5-14.82 13.15-25.22 23.7-11.87 12.02-22.53 25.35-28.66 35.81-5.36 9.16-14.06 27.53-19.34 40.81-5.29 13.3-12.88 35.51-16.87 49.38-5.61 19.42-7.69 24.25-9.04 21.02-0.96-2.32-1.72-21.23-1.72-42.03 0.04-35.81 0.34-38.69 5.78-54.11 3.17-8.95 8.95-21.25 12.86-27.32 3.91-6.07 10.76-14.52 15.24-18.77 4.47-4.26 15.23-11.3 23.89-15.67 8.68-4.35 22.38-10.05 30.47-12.65 8.09-2.61 15.66-4.73 16.81-4.71zm1339.68 58.63h54.63v323.61h-52.53v-15.76c0-8.66-0.23-15.78-0.53-15.78-0.29-0.02-6.66 5.97-14.18 13.28-9.94 9.69-17.09 14.63-26.27 18.09-7 2.65-19.63 5.26-28.37 5.87-8.66 0.58-21.44 0-28.37-1.31-6.93-1.32-17.57-4.73-23.64-7.6-6.07-2.86-16.33-10.15-22.8-16.23-6.5-6.07-14.84-16.22-18.56-22.59-3.72-6.34-8.89-17.69-11.49-25.21-3.62-10.4-5.03-20.18-5.84-40.98-0.82-20.53-0.26-31.25 2.26-43.08 1.85-8.66 6.69-22.61 10.72-30.99 4.06-8.39 11.37-19.61 16.29-24.97 4.92-5.34 12.71-12.33 17.34-15.53 4.62-3.19 14.54-7.73 22.06-10.08 7.52-2.36 18.85-4.86 25.22-5.59 6.37-0.72 17.69-0.34 25.22 0.86 7.52 1.2 19.33 4.96 26.26 8.34 6.94 3.38 16.63 10.49 21.54 15.78 4.92 5.32 9.4 9.65 9.99 9.65 0.58 0 1.05-26.94 1.05-59.89zm-96.67 144.64c-4.04 3.3-10.68 12.41-14.71 20.3l-7.36 14.31c0 56.77 0.45 60.2 5.26 70.64 2.9 6.27 9.1 14.78 13.8 18.92 4.69 4.14 13.2 8.89 18.92 10.57 5.69 1.66 14.62 3.02 19.81 3.02 5.19 0 14.19-1.32 19.97-2.96 7.27-2.04 13.49-5.91 20.21-12.48 6.43-6.33 11.33-13.79 14.5-22.15 3.93-10.26 4.84-16.92 4.94-35.72 0.09-15.58-1.01-26.88-3.32-34.68-1.89-6.34-6.58-15.76-10.42-20.89-4.06-5.4-11.39-11.57-17.46-14.7-7.76-4-14.25-5.53-25.22-5.93-9.23-0.34-17.91 0.65-23.16 2.63-4.62 1.72-11.73 5.82-15.76 9.12zm-1341.42 6.66c1.64 6.36 5.4 19.12 8.39 28.37 2.98 9.24 9.26 26.26 13.93 37.82 4.68 11.56 10.84 25.28 13.68 30.47 2.86 5.21 9.2 15.13 14.12 22.06 4.92 6.94 15.42 18.83 23.37 26.44 7.92 7.61 17.04 15.63 20.26 17.86 3.19 2.23 5.57 4.35 5.25 4.73-0.34 0.38-7.21-1.43-15.3-4.01-8.09-2.57-21.33-7.65-29.42-11.27-8.49-3.8-19.46-11.01-25.91-17.02-6.16-5.73-13.91-14.67-17.19-19.88-3.3-5.19-8.66-17.02-11.89-26.26-5.61-16-5.89-18.64-5.93-54.64 0-20.8 0.82-39.72 1.83-42.03 1.53-3.49 2.35-2.23 4.81 7.36zm396.48-5.61c0.99 2.5 1.35 16.39 0.8 30.82q-0.97 26.27-5.61 44.13c-2.54 9.84-8.2 25.43-12.57 34.68-4.35 9.24-12.19 22.48-17.42 29.41-5.23 6.94-15.55 18.16-22.93 24.97-7.35 6.79-19.52 15.72-27.04 19.86-7.5 4.14-22.17 10.38-32.57 13.85-18.35 6.15-20.11 6.34-58.84 6.4-35.69 0.07-41.72-0.46-56.74-4.81-9.25-2.69-22.49-7.65-29.42-11.03-11.23-5.46-11.79-6.03-5.26-5.17 4.06 0.55 18.71 1.6 32.57 2.35 20.6 1.12 29.85 0.57 50.44-3 13.87-2.42 32.78-7.33 42.03-10.93 9.25-3.59 22.48-9.92 29.42-14.08 6.93-4.14 16.87-10.9 22.06-15.02 5.22-4.12 14.97-13.2 21.67-20.15 6.72-6.96 18.24-21.63 25.62-32.62 7.37-10.97 17.67-28.93 22.88-39.92 5.21-10.97 11.64-27.7 14.31-37.14 3.97-14.1 5.15-16.34 6.6-12.6z"/>
		<path id="Path 7" fill-rule="evenodd" class="s0" d="m852.69 272.68l85.49 0.85c73.95 0.73 87.19 1.36 98.09 4.58 6.94 2.03 16.88 5.88 22.07 8.53 5.19 2.65 13.72 8.53 18.91 13.09 5.19 4.56 12.73 13.39 16.75 19.65 4.01 6.26 9.06 17.06 11.22 23.99 2.69 8.6 3.97 19.32 4.06 33.63 0.1 14.2-1.05 25.09-3.56 33.62-2.03 6.93-5.63 16.39-8 21.01-2.4 4.63-9.14 13.45-15.03 19.59-5.88 6.15-14.48 13.38-19.1 16.07-4.62 2.69-14.54 7.02-22.06 9.65-12.68 4.43-17.82 4.83-128.19 6.18v113.47h-60.95zm62.75 157.9c67.59-0.09 91.46-1.07 96.67-2.27 5.19-1.18 12.76-4.41 16.81-7.17 4.04-2.77 9.65-9.1 12.44-14.08q5.11-9.05 6.12-22.71c0.57-7.52-0.09-17.93-1.45-23.12-1.35-5.21-5.59-13.24-9.42-17.86-3.82-4.62-11.13-10.25-16.24-12.5-8.11-3.55-15.49-4.2-56.91-4.92l-47.62-0.84zm322.58-72.27c9.24 0.55 21.07 2.04 26.26 3.3 5.22 1.24 15.37 4.98 22.59 8.3 7.53 3.45 18.75 11.29 26.27 18.33 8.39 7.81 15.93 17.52 20.85 26.79 4.22 7.96 9.29 20.64 11.24 28.16 2.29 8.76 3.57 21.96 3.6 36.77 0.02 15.3-1.2 27.74-3.6 36.78-1.97 7.5-6.49 19.33-10.02 26.26-3.51 6.94-12.17 18.56-19.21 25.83-7.63 7.86-18.37 16.12-26.5 20.36-7.5 3.95-20.51 8.64-28.89 10.42-8.39 1.81-22.09 3.26-30.47 3.24-8.39-0.02-21.86-1.45-29.95-3.21-8.09-1.75-20.76-6.22-28.16-9.94-7.77-3.91-19.1-12.32-26.79-19.9-9.23-9.08-15.6-17.84-20.66-28.37-4.01-8.39-8.87-23.29-10.76-33.1-2.4-12.44-3.09-23.62-2.29-36.77 0.63-10.4 3.21-25.53 5.72-33.62 2.52-8.1 7.69-19.93 11.51-26.27 3.83-6.37 12-16.35 18.18-22.21 6.18-5.85 15.49-13.1 20.68-16.08 5.21-3 14.18-7.04 19.96-8.95 5.78-1.91 15.72-4.31 22.07-5.32 6.36-1.01 19.12-1.36 28.37-0.8zm-48.46 62.69c-5.26 5.23-10.38 13.38-13.28 21.14-2.69 7.1-5.3 19.94-5.99 29.42-0.74 10.13-0.17 22.23 1.43 30.47 1.45 7.5 4.79 17.9 7.41 23.11 2.61 5.19 8.43 12.69 12.91 16.65 4.49 3.95 11.47 8.55 15.51 10.23 4.05 1.66 13.97 3.07 22.06 3.11 11.07 0.04 17.53-1.2 26.1-4.98 6.7-2.96 14.31-8.49 18.47-13.45 3.89-4.62 9.08-13.62 11.52-19.96 3.47-9.06 4.47-16.56 4.64-34.68 0.17-17.1-0.78-26.12-3.59-34.67-2.08-6.37-6.85-15.82-10.59-21.01-4.25-5.91-10.7-11.41-17.21-14.67-7.86-3.95-14.29-5.36-26.19-5.74-10.57-0.31-18.87 0.65-25.21 3.01-5.2 1.91-13.31 7.31-17.99 12.02zm316.39-62.77c7.52 0.53 18.56 2.58 24.55 4.6 5.98 2.02 15.21 6.73 20.48 10.49 5.3 3.76 12.49 11.32 16 16.81 3.51 5.48 7.94 14.71 9.87 20.49 3.01 9.01 3.6 23.03 4.75 185.97h-56.74v-78.28c-0.02-51.44-0.82-81.15-2.37-86.68-1.3-4.62-5.32-11.37-8.93-14.96-3.6-3.62-10.34-7.63-14.96-8.93-4.63-1.28-12.65-2.38-17.87-2.4-5.19-0.02-13.7 1.39-18.91 3.13-5.19 1.75-13.15 6.73-17.65 11.08-4.52 4.33-10.19 12.12-12.61 17.33-4.18 8.98-4.43 13.37-5.46 159.71h-54.64v-233.25h52.53l-0.06 34.67 12.13-12.65c6.74-7.04 17.23-15.22 23.66-18.43 6.37-3.19 16.29-6.66 22.06-7.71 5.78-1.05 16.67-1.49 24.17-0.99z"/>
	</g>
</svg>